<svg width="26" height="286" viewBox="0 0 26 286" fill="none" xmlns="http://www.w3.org/2000/svg">
<g filter="url(#filter0_d)">
<line x1="7.5" y1="142.5" x2="18.5" y2="142.5" stroke="#CFCFCF" stroke-width="3" stroke-linecap="round"/>
<line x1="13.5729" y1="18.0107" x2="12.5" y2="268.008" stroke="#CFCFCF" stroke-width="5"/>
<path d="M12.634 1.5C13.0189 0.833333 13.9811 0.833333 14.366 1.5L23.4593 17.25C23.8442 17.9167 23.3631 18.75 22.5933 18.75H4.40673C3.63693 18.75 3.15581 17.9167 3.54071 17.25L12.634 1.5Z" fill="#CFCFCF"/>
<path d="M13.366 284.5C12.9811 285.167 12.0189 285.167 11.634 284.5L2.54071 268.75C2.15581 268.083 2.63693 267.25 3.40673 267.25L21.5933 267.25C22.3631 267.25 22.8442 268.083 22.4593 268.75L13.366 284.5Z" fill="#CFCFCF"/>
</g>
<defs>
<filter id="filter0_d" x="2.40521" y="1" width="22.1895" height="285" filterUnits="userSpaceOnUse" color-interpolation-filters="sRGB">
<feFlood flood-opacity="0" result="BackgroundImageFix"/>
<feColorMatrix in="SourceAlpha" type="matrix" values="0 0 0 0 0 0 0 0 0 0 0 0 0 0 0 0 0 0 127 0" result="hardAlpha"/>
<feOffset dx="1" dy="1"/>
<feComposite in2="hardAlpha" operator="out"/>
<feColorMatrix type="matrix" values="0 0 0 0 0 0 0 0 0 0 0 0 0 0 0 0 0 0 0.25 0"/>
<feBlend mode="normal" in2="BackgroundImageFix" result="effect1_dropShadow"/>
<feBlend mode="normal" in="SourceGraphic" in2="effect1_dropShadow" result="shape"/>
</filter>
</defs>
</svg>
