<?xml version="1.0" encoding="UTF-8" standalone="no"?>
<!-- Created with Inkscape (http://www.inkscape.org/) -->

<svg
   width="299.99994"
   height="35.791885"
   viewBox="0 0 79.374938 9.4699367"
   version="1.1"
   id="svg5"
   inkscape:version="1.1 (c68e22c387, 2021-05-23)"
   sodipodi:docname="yamatologo_resize.svg"
   inkscape:export-filename="C:\Users\Sorachi\Desktop\DeFiGeek Community JAPAN\yamatoProtocol関連\yamatoProtocol_logo\案111111111111113.png"
   inkscape:export-xdpi="96"
   inkscape:export-ydpi="96"
   xmlns:inkscape="http://www.inkscape.org/namespaces/inkscape"
   xmlns:sodipodi="http://sodipodi.sourceforge.net/DTD/sodipodi-0.dtd"
   xmlns="http://www.w3.org/2000/svg"
   xmlns:svg="http://www.w3.org/2000/svg">
  <sodipodi:namedview
     id="namedview7"
     pagecolor="#ffffff"
     bordercolor="#666666"
     borderopacity="1.0"
     inkscape:pageshadow="2"
     inkscape:pageopacity="0.0"
     inkscape:pagecheckerboard="0"
     inkscape:document-units="px"
     showgrid="false"
     units="px"
     showguides="false"
     inkscape:guide-bbox="true"
     inkscape:lockguides="true"
     inkscape:zoom="1.8101933"
     inkscape:cx="131.20146"
     inkscape:cy="28.726213"
     inkscape:window-width="1485"
     inkscape:window-height="1040"
     inkscape:window-x="201"
     inkscape:window-y="0"
     inkscape:window-maximized="0"
     inkscape:current-layer="g1103"
     fit-margin-top="0"
     fit-margin-left="0"
     fit-margin-right="0"
     fit-margin-bottom="0">
    <sodipodi:guide
       position="0,396.87502"
       orientation="0,1500"
       id="guide1606"
       inkscape:locked="true" />
    <sodipodi:guide
       position="396.87489,396.87502"
       orientation="1500,0"
       id="guide1608"
       inkscape:locked="true" />
    <sodipodi:guide
       position="396.87489,0.00012919104"
       orientation="0,-1500"
       id="guide1610"
       inkscape:locked="true" />
    <sodipodi:guide
       position="0,0.00012919104"
       orientation="-1500,0"
       id="guide1612"
       inkscape:locked="true" />
    <sodipodi:guide
       position="0,396.87502"
       orientation="0,1500"
       id="guide1614"
       inkscape:locked="true" />
    <sodipodi:guide
       position="396.87489,396.87502"
       orientation="1500,0"
       id="guide1616"
       inkscape:locked="true" />
    <sodipodi:guide
       position="396.87489,0.00012919104"
       orientation="0,-1500"
       id="guide1618"
       inkscape:locked="true" />
    <sodipodi:guide
       position="0,0.00012919104"
       orientation="-1500,0"
       id="guide1620"
       inkscape:locked="true" />
    <sodipodi:guide
       position="0,396.87502"
       orientation="0,1500"
       id="guide1622"
       inkscape:locked="true" />
    <sodipodi:guide
       position="396.87489,396.87502"
       orientation="1500,0"
       id="guide1624"
       inkscape:locked="true" />
    <sodipodi:guide
       position="396.87489,0.00012919104"
       orientation="0,-1500"
       id="guide1626"
       inkscape:locked="true" />
    <sodipodi:guide
       position="0,0.00012919104"
       orientation="-1500,0"
       id="guide1628"
       inkscape:locked="true" />
    <sodipodi:guide
       position="0,396.87502"
       orientation="0,1500"
       id="guide1630"
       inkscape:locked="true" />
    <sodipodi:guide
       position="396.87489,396.87502"
       orientation="1500,0"
       id="guide1632"
       inkscape:locked="true" />
    <sodipodi:guide
       position="396.87489,0.00012919104"
       orientation="0,-1500"
       id="guide1634"
       inkscape:locked="true" />
    <sodipodi:guide
       position="0,0.00012919104"
       orientation="-1500,0"
       id="guide1636"
       inkscape:locked="true" />
    <sodipodi:guide
       position="0,396.87502"
       orientation="0,1500"
       id="guide1638"
       inkscape:locked="true" />
    <sodipodi:guide
       position="396.87489,396.87502"
       orientation="1500,0"
       id="guide1640"
       inkscape:locked="true" />
    <sodipodi:guide
       position="396.87489,0.00012919104"
       orientation="0,-1500"
       id="guide1642"
       inkscape:locked="true" />
    <sodipodi:guide
       position="0,0.00012919104"
       orientation="-1500,0"
       id="guide1644"
       inkscape:locked="true" />
    <sodipodi:guide
       position="0,396.87502"
       orientation="0,1500"
       id="guide1646"
       inkscape:locked="true" />
    <sodipodi:guide
       position="396.87489,396.87502"
       orientation="1500,0"
       id="guide1648"
       inkscape:locked="true" />
    <sodipodi:guide
       position="396.87489,0.00012919104"
       orientation="0,-1500"
       id="guide1650"
       inkscape:locked="true" />
    <sodipodi:guide
       position="0,0.00012919104"
       orientation="-1500,0"
       id="guide1652"
       inkscape:locked="true" />
    <sodipodi:guide
       position="-2904.1672,198.43654"
       orientation="0,-1"
       id="guide1654"
       inkscape:locked="true" />
    <sodipodi:guide
       position="198.31393,229.24361"
       orientation="1,0"
       id="guide1656"
       inkscape:locked="true" />
  </sodipodi:namedview>
  <defs
     id="defs2" />
  <g
     inkscape:label="レイヤー 1"
     inkscape:groupmode="layer"
     id="layer1">
    <circle
       style="display:none;fill:#5bad92;stroke:none;stroke-width:7.56708;stroke-linecap:round;stroke-linejoin:round"
       id="path909"
       cx="198.4375"
       cy="198.4375"
       r="198.4375" />
    <g
       id="g1031"
       transform="matrix(8.4955188,0,0,8.4955188,31.280067,-2569.9461)"
       style="display:none;stroke-width:0.117709"
       inkscape:export-filename="C:\Users\Sorachi\Desktop\DeFiGeek Community JAPAN\yamatoProtocol関連\yamatoProtocol_logo\path2ew62320.png"
       inkscape:export-xdpi="96"
       inkscape:export-ydpi="96">
      <g
         aria-label="Yamato-Protocol"
         id="text5465"
         style="font-size:36.5474px;line-height:1.25;letter-spacing:-0.669396px;word-spacing:0px;stroke-width:0.0311437">
        <path
           d="m 47.832326,312.72988 h 6.460039 l 5.23862,9.12152 v 0 l 5.236636,-9.12152 h 6.210203 l -8.841409,14.26099 -0.0099,12.00745 h -5.44285 l 0.0099,-12.11452 z"
           style="font-weight:bold;font-family:Helvetica;-inkscape-font-specification:'Helvetica, Bold';fill:#5bad92;fill-opacity:1;stroke-width:0.0311437"
           id="path49866"
           sodipodi:nodetypes="ccccccccccc" />
        <path
           d="m 71.613195,325.8641 q 0.624589,-4.05091 2.730348,-5.40716 2.105758,-1.3741 5.764067,-1.3741 3.694,0 5.83545,1.39195 2.141449,1.39194 2.141449,4.17582 v 10.42172 q 0,2.69466 1.124261,3.14079 v 0.7852 h -5.603459 q -0.339063,-0.96365 -0.481826,-2.19498 v -0.16061 q -2.426976,2.85526 -6.120976,2.85526 -2.569739,0 -4.300744,-1.42763 -1.731005,-1.44548 -1.731005,-4.24721 0,-5.31793 5.621304,-6.13882 l 4.586271,-0.69597 q 1.784541,-0.26768 1.784541,-1.62393 0,-2.21283 -3.122947,-2.21283 -1.731005,0 -2.40913,0.67812 -0.678126,0.67813 -0.85658,2.03438 z m 11.349681,3.72969 q -0.517517,0.37475 -1.51686,0.64243 -0.981497,0.26769 -1.927304,0.41045 -1.552551,0.21414 -2.498358,0.83873 -0.927961,0.60675 -0.927961,1.99869 0,1.23133 0.678126,1.78454 0.678125,0.55321 1.820231,0.55321 1.784542,0 3.069411,-1.10642 1.302715,-1.10641 1.302715,-2.65896 z m -2.587584,-12.50963 z m 3.4977,21.91416 z"
           style="font-weight:bold;font-family:Helvetica;-inkscape-font-specification:'Helvetica, Bold';fill:#5bad92;fill-opacity:1;stroke-width:0.0311437"
           id="path49868" />
        <path
           d="m 91.912154,319.58251 h 4.889643 v 2.92665 q 1.998686,-3.42632 5.764063,-3.42632 2.12361,0 3.35494,0.89227 1.24918,0.89227 1.98084,2.24853 1.82023,-3.1408 5.37147,-3.1408 2.92665,0 4.76473,1.73101 1.83807,1.731 1.83807,4.72903 v 13.45544 h -5.12163 v -11.77797 q 0,-3.83676 -2.94449,-3.83676 -3.35494,0 -3.35494,3.96168 v 11.65305 h -5.12163 v -11.65305 q 0,-2.23068 -0.71382,-3.08726 -0.69597,-0.87442 -2.33775,-0.87442 -3.247863,0 -3.247863,3.78322 v 11.83151 h -5.121633 z"
           style="font-weight:bold;font-family:Helvetica;-inkscape-font-specification:'Helvetica, Bold';fill:#5bad92;fill-opacity:1;stroke-width:0.0311437"
           id="path49870" />
        <path
           d="m 123.09682,325.8641 q 0.62459,-4.05091 2.73035,-5.40716 2.10576,-1.3741 5.76407,-1.3741 3.694,0 5.83545,1.39195 2.14145,1.39194 2.14145,4.17582 v 10.42172 q 0,2.69466 1.12426,3.14079 v 0.7852 h -5.60346 q -0.33906,-0.96365 -0.48183,-2.19498 v -0.16061 q -2.42697,2.85526 -6.12097,2.85526 -2.56974,0 -4.30075,-1.42763 -1.731,-1.44548 -1.731,-4.24721 0,-5.31793 5.6213,-6.13882 l 4.58627,-0.69597 q 1.78454,-0.26768 1.78454,-1.62393 0,-2.21283 -3.12294,-2.21283 -1.73101,0 -2.40913,0.67812 -0.67813,0.67813 -0.85658,2.03438 z m 11.34968,3.72969 q -0.51751,0.37475 -1.51686,0.64243 -0.98149,0.26769 -1.9273,0.41045 -1.55255,0.21414 -2.49836,0.83873 -0.92796,0.60675 -0.92796,1.99869 0,1.23133 0.67813,1.78454 0.67812,0.55321 1.82023,0.55321 1.78454,0 3.06941,-1.10642 1.30271,-1.10641 1.30271,-2.65896 z m -2.58758,-12.50963 z m 3.4977,21.91416 z"
           style="font-weight:bold;font-family:Helvetica;-inkscape-font-specification:'Helvetica, Bold';fill:#5bad92;fill-opacity:1;stroke-width:0.0311437"
           id="path49872" />
        <path
           d="m 141.3971,323.20513 v -3.62262 h 2.64112 v -5.13947 h 5.12163 v 5.13947 h 3.14079 v 3.62262 h -3.14079 v 10.61802 q 0,1.07073 0.41044,1.32056 0.42829,0.24984 1.7667,0.24984 0.46398,0 1.01719,-0.0535 v 3.90815 q -1.48117,0.0535 -2.56974,0.0535 -3.42632,0 -4.58627,-0.9458 -1.15995,-0.94581 -1.15995,-3.26571 v -11.88505 z m 6.44219,15.79319 z"
           style="font-weight:bold;font-family:Helvetica;-inkscape-font-specification:'Helvetica, Bold';fill:#5bad92;fill-opacity:1;stroke-width:0.0311437"
           id="path49874" />
        <path
           d="m 153.86192,329.29042 q 0,-4.69335 2.73035,-7.44154 2.73035,-2.76604 7.1917,-2.76604 4.24721,0 7.08463,2.65897 2.83742,2.65897 2.83742,7.54861 0,4.51489 -2.64112,7.37015 -2.64112,2.83742 -7.28093,2.83742 -4.26505,0 -7.10247,-2.65896 -2.81958,-2.67681 -2.81958,-7.54861 z m 5.28224,0.0535 q 0,5.90684 4.63981,5.90684 4.63981,0 4.63981,-5.90684 0,-5.90683 -4.63981,-5.90683 -4.63981,0 -4.63981,5.90683 z m 4.71119,-12.25979 z"
           style="font-weight:bold;font-family:Helvetica;-inkscape-font-specification:'Helvetica, Bold';fill:#5bad92;fill-opacity:1;stroke-width:0.0311437"
           id="path49876" />
        <path
           d="m 188.53516,312.72988 h 11.88505 q 3.92599,0 6.0139,2.30205 2.10576,2.28422 2.10576,5.90684 0,3.90814 -2.30206,6.26373 -2.28421,2.3556 -5.99606,2.3556 h -6.26374 v 9.44022 h -5.44285 z m 5.44285,4.60411 v 7.61999 h 5.01456 q 4.01522,0 4.01522,-3.92599 0,-2.1236 -1.1778,-2.9088 -1.17779,-0.7852 -3.58692,-0.7852 z"
           style="font-weight:bold;font-family:Helvetica;-inkscape-font-specification:'Helvetica, Bold';fill:#5bad92;fill-opacity:1;stroke-width:0.0311437"
           id="path49880" />
        <path
           d="m 211.76078,338.99832 v -19.41581 h 4.88964 v 3.51555 q 1.08857,-2.21283 2.33775,-3.1051 1.24918,-0.91012 3.14079,-0.91012 0.24984,0 1.03504,0.0535 v 5.19301 q -0.76736,-0.0535 -1.32056,-0.0535 -4.96103,0 -4.96103,4.60411 v 10.11835 z m 6.0139,-21.91416 z m -3.51554,21.91416 z"
           style="font-weight:bold;font-family:Helvetica;-inkscape-font-specification:'Helvetica, Bold';fill:#5bad92;fill-opacity:1;stroke-width:0.0311437"
           id="path49882" />
        <path
           d="m 224.27914,329.29042 q 0,-4.69335 2.73034,-7.44154 2.73035,-2.76604 7.1917,-2.76604 4.24721,0 7.08463,2.65897 2.83742,2.65897 2.83742,7.54861 0,4.51489 -2.64112,7.37015 -2.64112,2.83742 -7.28093,2.83742 -4.26505,0 -7.10247,-2.65896 -2.81957,-2.67681 -2.81957,-7.54861 z m 5.28224,0.0535 q 0,5.90684 4.6398,5.90684 4.63981,0 4.63981,-5.90684 0,-5.90683 -4.63981,-5.90683 -4.6398,0 -4.6398,5.90683 z m 4.71119,-12.25979 z"
           style="font-weight:bold;font-family:Helvetica;-inkscape-font-specification:'Helvetica, Bold';fill:#5bad92;fill-opacity:1;stroke-width:0.0311437"
           id="path49884" />
        <path
           d="m 244.9707,323.20513 v -3.62262 h 2.64112 v -5.13947 h 5.12163 v 5.13947 h 3.14079 v 3.62262 h -3.14079 v 10.61802 q 0,1.07073 0.41044,1.32056 0.42829,0.24984 1.7667,0.24984 0.46398,0 1.01719,-0.0535 v 3.90815 q -1.48117,0.0535 -2.56974,0.0535 -3.42632,0 -4.58627,-0.9458 -1.15995,-0.94581 -1.15995,-3.26571 v -11.88505 z m 6.44219,15.79319 z"
           style="font-weight:bold;font-family:Helvetica;-inkscape-font-specification:'Helvetica, Bold';fill:#5bad92;fill-opacity:1;stroke-width:0.0311437"
           id="path49886" />
        <path
           d="m 257.43552,329.29042 q 0,-4.69335 2.73035,-7.44154 2.73035,-2.76604 7.1917,-2.76604 4.24721,0 7.08463,2.65897 2.83742,2.65897 2.83742,7.54861 0,4.51489 -2.64112,7.37015 -2.64112,2.83742 -7.28093,2.83742 -4.26505,0 -7.10247,-2.65896 -2.81958,-2.67681 -2.81958,-7.54861 z m 5.28225,0.0535 q 0,5.90684 4.6398,5.90684 4.63981,0 4.63981,-5.90684 0,-5.90683 -4.63981,-5.90683 -4.6398,0 -4.6398,5.90683 z m 4.71118,-12.25979 z"
           style="font-weight:bold;font-family:Helvetica;-inkscape-font-specification:'Helvetica, Bold';fill:#5bad92;fill-opacity:1;stroke-width:0.0311437"
           id="path49888" />
        <path
           d="m 291.65391,331.78878 h 5.28224 q -0.57106,3.67615 -2.80173,5.69268 -2.23068,2.01653 -6.12098,2.01653 -4.05091,0 -6.49573,-2.46266 -2.42697,-2.48052 -2.42697,-7.42369 0,-4.72904 2.30205,-7.62 2.30206,-2.9088 6.90618,-2.9088 3.46201,0 5.79976,1.78454 2.35559,1.7667 2.83742,5.63915 v 0 h -5.28224 v 0 q -0.26769,-1.30271 -1.01719,-2.17714 -0.73167,-0.89227 -2.19499,-0.89227 -4.06875,0 -4.06875,6.08529 0,5.72838 3.81892,5.72838 1.42763,0 2.44482,-0.99935 1.01719,-0.99934 1.01719,-2.46266 z m -3.28356,-14.70462 z m -0.28553,21.91416 z"
           style="font-weight:bold;font-family:Helvetica;-inkscape-font-specification:'Helvetica, Bold';fill:#5bad92;fill-opacity:1;stroke-width:0.0311437"
           id="path49890" />
        <path
           d="m 298.74726,329.29042 q 0,-4.69335 2.73035,-7.44154 2.73035,-2.76604 7.1917,-2.76604 4.24721,0 7.08463,2.65897 2.83742,2.65897 2.83742,7.54861 0,4.51489 -2.64112,7.37015 -2.64112,2.83742 -7.28093,2.83742 -4.26505,0 -7.10247,-2.65896 -2.81958,-2.67681 -2.81958,-7.54861 z m 5.28224,0.0535 q 0,5.90684 4.63981,5.90684 4.63981,0 4.63981,-5.90684 0,-5.90683 -4.63981,-5.90683 -4.63981,0 -4.63981,5.90683 z m 4.71119,-12.25979 z"
           style="font-weight:bold;font-family:Helvetica;-inkscape-font-specification:'Helvetica, Bold';fill:#5bad92;fill-opacity:1;stroke-width:0.0311437"
           id="path49892" />
        <path
           d="m 321.6695,338.99832 v -26.26844 h 5.12163 v 26.26844 z m 2.56974,-28.26713 z m 0,28.26713 z"
           style="font-weight:bold;font-family:Helvetica;-inkscape-font-specification:'Helvetica, Bold';fill:#5bad92;fill-opacity:1;stroke-width:0.0311437"
           id="path49894" />
      </g>
      <path
         sodipodi:type="star"
         style="fill:#fcfaf2;fill-opacity:1;stroke:none;stroke-width:3.32237;stroke-linecap:round;stroke-linejoin:round"
         id="path20073-3"
         inkscape:flatsided="true"
         sodipodi:sides="3"
         sodipodi:cx="249.29526"
         sodipodi:cy="-224.70244"
         sodipodi:r1="22.622484"
         sodipodi:r2="11.311242"
         sodipodi:arg1="0.52359878"
         sodipodi:arg2="1.5707963"
         inkscape:rounded="0"
         inkscape:randomized="0"
         transform="matrix(-0.26739033,0,0,-0.26880396,126.19015,255.36948)"
         inkscape:transform-center-y="1.5202548"
         d="m 268.8869,-213.3912 -39.18329,0 19.59165,-33.93372 z"
         inkscape:transform-center-x="-2.0074996e-06" />
      <path
         sodipodi:type="star"
         style="fill:#f9aea5;fill-opacity:1;stroke:none;stroke-width:7.68495;stroke-linecap:round;stroke-linejoin:round"
         id="path20073-3-2"
         inkscape:flatsided="true"
         sodipodi:sides="3"
         sodipodi:cx="249.29526"
         sodipodi:cy="-224.70244"
         sodipodi:r1="22.622484"
         sodipodi:r2="11.311242"
         sodipodi:arg1="0.52359878"
         sodipodi:arg2="1.5707963"
         inkscape:rounded="0"
         inkscape:randomized="0"
         transform="matrix(-0.11559884,0,0,-0.11620999,88.349227,289.65772)"
         inkscape:transform-center-y="0.65724397"
         inkscape:transform-center-x="-1.5961771e-06"
         d="m 268.8869,-213.3912 -39.18329,0 19.59165,-33.93372 z" />
    </g>
    <g
       id="g1103">
      <g
         id="g1168"
         transform="scale(0.02386125)"
         style="stroke-width:41.9089">
        <g
           id="g1072"
           style="stroke-width:41.9089">
          <path
             style="color:#000000;fill:#5bad92;stroke-width:317.128;stroke-linecap:round;stroke-linejoin:round;-inkscape-stroke:none"
             d="M 396.875,198.4375 A 198.4375,198.4375 0 0 1 198.4375,396.875 198.4375,198.4375 0 0 1 0,198.4375 198.4375,198.4375 0 0 1 198.4375,0 198.4375,198.4375 0 0 1 396.875,198.4375 Z"
             id="path2620"
             inkscape:export-filename="C:\Users\Sorachi\Desktop\DeFiGeek Community JAPAN\yamatoProtocol関連\yamatoProtocol_logo\rect1443324385.png"
             inkscape:export-xdpi="96"
             inkscape:export-ydpi="96" />
          <path
             style="color:#000000;fill:#f9aea5;stroke-width:831.633;-inkscape-stroke:none"
             d="m 171.73688,225.11379 26.57711,46.0329 26.57711,-46.0329 z"
             id="path2622"
             inkscape:export-filename="C:\Users\Sorachi\Desktop\DeFiGeek Community JAPAN\yamatoProtocol関連\yamatoProtocol_logo\rect1443324385.png"
             inkscape:export-xdpi="96"
             inkscape:export-ydpi="96" />
          <g
             inkscape:transform-center-x="3.0801949e-06"
             inkscape:transform-center-y="-20.206277"
             transform="matrix(0.14146267,0,0,0.14146267,70.820221,87.597692)"
             id="g2626"
             inkscape:export-filename="C:\Users\Sorachi\Desktop\DeFiGeek Community JAPAN\yamatoProtocol関連\yamatoProtocol_logo\rect1443324385.png"
             inkscape:export-xdpi="96"
             inkscape:export-ydpi="96"
             style="stroke-width:41.9089">
            <path
               style="color:#000000;fill:#5bad92;stroke-width:5878.82;-inkscape-stroke:none"
               d="M 406.4477,922.49044 901.2538,65.461182 1396.0599,922.49046 Z"
               id="path2575" />
            <path
               style="color:#000000;fill:#fcfaf2;stroke-width:41.9089;-inkscape-stroke:none"
               d="M 901.25391,-74.814453 284.96484,992.62891 H 406.44727 1517.543 Z m 0,280.550783 373.32229,646.61523 H 527.92969 Z"
               id="path2577" />
          </g>
          <g
             inkscape:transform-center-x="3.0801949e-06"
             inkscape:transform-center-y="-20.206277"
             transform="matrix(0.14146267,0,0,0.14146267,0.82362959,147.374)"
             id="g2630"
             inkscape:export-filename="C:\Users\Sorachi\Desktop\DeFiGeek Community JAPAN\yamatoProtocol関連\yamatoProtocol_logo\rect1443324385.png"
             inkscape:export-xdpi="96"
             inkscape:export-ydpi="96"
             style="stroke-width:41.9089">
            <path
               style="color:#000000;fill:#5bad92;stroke-width:5878.82;-inkscape-stroke:none"
               d="M 406.4477,922.49044 901.2538,65.461182 1396.0599,922.49046 Z"
               id="path2581" />
            <path
               style="color:#000000;fill:#fcfaf2;stroke-width:41.9089;-inkscape-stroke:none"
               d="M 901.25391,-74.814453 284.96484,992.62891 H 406.44727 1517.543 Z m 0,280.550783 373.32229,646.61523 H 527.92969 Z"
               id="path2583" />
          </g>
          <g
             inkscape:transform-center-x="3.0801949e-06"
             inkscape:transform-center-y="-20.206277"
             transform="matrix(0.14146267,0,0,0.14146267,140.81681,147.37401)"
             id="g2634"
             inkscape:export-filename="C:\Users\Sorachi\Desktop\DeFiGeek Community JAPAN\yamatoProtocol関連\yamatoProtocol_logo\rect1443324385.png"
             inkscape:export-xdpi="96"
             inkscape:export-ydpi="96"
             style="stroke-width:41.9089">
            <path
               style="color:#000000;fill:#5bad92;stroke-width:5878.82;-inkscape-stroke:none"
               d="M 406.4477,922.49044 901.2538,65.461182 1396.0599,922.49046 Z"
               id="path2587" />
            <path
               style="color:#000000;fill:#fcfaf2;stroke-width:41.9089;-inkscape-stroke:none"
               d="M 901.25391,-74.814453 284.96484,992.62891 H 406.44727 1517.543 Z m 0,280.550783 373.32229,646.61523 H 527.92969 Z"
               id="path2589" />
          </g>
        </g>
        <g
           id="g1137"
           style="stroke-width:41.9089">
          <path
             d="m 448.30371,67.90725 h 68.2713 l 55.36305,96.3985 v 0 l 55.34208,-96.3985 h 65.63097 l -93.43822,150.71371 -0.10462,126.89773 h -57.5214 l 0.10462,-128.02928 z"
             style="font-weight:bold;font-size:36.5474px;line-height:1.25;font-family:Helvetica;-inkscape-font-specification:'Helvetica, Bold';letter-spacing:-0.669396px;word-spacing:0px;fill:#5bad92;fill-opacity:1;stroke-width:11.0884"
             id="path49866-2"
             sodipodi:nodetypes="ccccccccccc" />
          <path
             d="m 671.54203,206.71297 q 6.60081,-42.81103 28.855,-57.14422 22.25418,-14.52183 60.9161,-14.52183 39.03912,0 61.6705,14.71047 22.63137,14.71037 22.63137,44.13111 v 110.13935 q 0,28.47784 11.88147,33.19265 v 8.29819 h -59.21876 q -3.5833,-10.18409 -5.09206,-23.1971 v -1.69736 q -25.64889,30.1751 -64.688,30.1751 -27.15765,0 -45.45134,-15.08755 -18.29369,-15.2762 -18.29369,-44.88558 0,-56.20121 59.40734,-64.87658 l 48.46886,-7.35519 q 18.85948,-2.82891 18.85948,-17.1621 0,-23.38574 -33.00409,-23.38574 -18.29369,0 -25.46029,7.16654 -7.1666,7.16665 -9.05255,21.49984 z m 119.94627,39.4163 q -5.46925,3.96045 -16.03056,6.78936 -10.3727,2.82901 -20.36823,4.33774 -16.40775,2.26308 -26.40327,8.8639 -9.80692,6.41229 -9.80692,21.12266 0,13.013 7.1666,18.85946 7.16659,5.84647 19.23666,5.84647 18.85948,0 32.4383,-11.69293 13.76742,-11.69281 13.76742,-28.10055 z m -27.34624,-132.2049 z m 36.96457,231.59432 z"
             style="font-weight:bold;font-size:36.5474px;line-height:1.25;font-family:Helvetica;-inkscape-font-specification:'Helvetica, Bold';letter-spacing:-0.669396px;word-spacing:0px;fill:#5bad92;fill-opacity:1;stroke-width:11.0884"
             id="path49868-8" />
          <path
             d="m 881.30404,140.32756 h 51.67497 v 30.92957 q 21.12261,-36.21021 60.9166,-36.21021 22.44269,0 35.45569,9.42973 13.2017,9.42973 20.934,23.76303 19.2367,-33.19276 56.7671,-33.19276 30.9295,0 50.3548,18.29375 19.4252,18.29364 19.4252,49.97757 v 142.20045 h -54.1267 V 221.04616 q 0,-40.54784 -31.1181,-40.54784 -35.4558,0 -35.4558,41.86803 v 123.15234 h -54.1267 V 222.36635 q 0,-23.57439 -7.54366,-32.62694 -7.35533,-9.24109 -24.70642,-9.24109 -34.32428,0 -34.32428,39.98202 v 125.03835 h -54.1267 z"
             style="font-weight:bold;font-size:36.5474px;line-height:1.25;font-family:Helvetica;-inkscape-font-specification:'Helvetica, Bold';letter-spacing:-0.669396px;word-spacing:0px;fill:#5bad92;fill-opacity:1;stroke-width:11.0884"
             id="path49870-9" />
          <path
             d="m 1210.8718,206.71297 q 6.6008,-42.81103 28.855,-57.14422 22.2542,-14.52183 60.9161,-14.52183 39.0392,0 61.6705,14.71047 22.6314,14.71037 22.6314,44.13111 v 110.13935 q 0,28.47784 11.8815,33.19265 v 8.29819 h -59.2188 q -3.5833,-10.18409 -5.0921,-23.1971 v -1.69736 q -25.6488,30.1751 -64.6879,30.1751 -27.1577,0 -45.4514,-15.08755 -18.2937,-15.2762 -18.2937,-44.88558 0,-56.20121 59.4073,-64.87658 l 48.4689,-7.35519 q 18.8594,-2.82891 18.8594,-17.1621 0,-23.38574 -33.004,-23.38574 -18.2937,0 -25.4602,7.16654 -7.1667,7.16665 -9.0526,21.49984 z m 119.9462,39.4163 q -5.4691,3.96045 -16.0305,6.78936 -10.3726,2.82901 -20.3682,4.33774 -16.4077,2.26308 -26.4033,8.8639 -9.8069,6.41229 -9.8069,21.12266 0,13.013 7.1666,18.85946 7.1666,5.84647 19.2367,5.84647 18.8595,0 32.4383,-11.69293 13.7673,-11.69281 13.7673,-28.10055 z m -27.3461,-132.2049 z m 36.9645,231.59432 z"
             style="font-weight:bold;font-size:36.5474px;line-height:1.25;font-family:Helvetica;-inkscape-font-specification:'Helvetica, Bold';letter-spacing:-0.669396px;word-spacing:0px;fill:#5bad92;fill-opacity:1;stroke-width:11.0884"
             id="path49872-2" />
          <path
             d="m 1409.5653,178.61231 v -38.28475 h 27.912 V 86.012353 h 54.1266 v 54.315207 h 33.1927 v 38.28475 h -33.1927 V 290.8262 q 0,11.31574 4.3377,13.95601 4.5262,2.64037 18.6709,2.64037 4.9034,0 10.7499,-0.5654 v 41.30231 q -15.6534,0.5654 -27.1576,0.5654 -36.2103,0 -48.4689,-9.99545 -12.2586,-9.99556 -12.2586,-34.51284 V 178.61242 Z m 68.0826,166.90638 z"
             style="font-weight:bold;font-size:36.5474px;line-height:1.25;font-family:Helvetica;-inkscape-font-specification:'Helvetica, Bold';letter-spacing:-0.669396px;word-spacing:0px;fill:#5bad92;fill-opacity:1;stroke-width:11.0884"
             id="path49874-2" />
          <path
             d="m 1536.0051,242.92318 q 0,-49.6005 28.855,-78.64406 28.855,-29.2322 76.0037,-29.2322 44.8855,0 74.8721,28.10066 29.9866,28.10066 29.9866,79.7756 0,47.71448 -27.912,77.88958 -27.9121,29.98657 -76.9467,29.98657 -45.0741,0 -75.0607,-28.10056 -29.798,-28.28919 -29.798,-79.77559 z m 55.824,0.5654 q 0,62.42496 49.0347,62.42496 49.0346,0 49.0346,-62.42496 0,-62.42486 -49.0346,-62.42486 -49.0347,0 -49.0347,62.42486 z m 49.789,-129.56453 z"
             style="font-weight:bold;font-size:36.5474px;line-height:1.25;font-family:Helvetica;-inkscape-font-specification:'Helvetica, Bold';letter-spacing:-0.669396px;word-spacing:0px;fill:#5bad92;fill-opacity:1;stroke-width:11.0884"
             id="path49876-2" />
          <path
             d="m 1874.3936,67.90725 h 125.6042 q 41.4908,0 63.5564,24.32864 22.2542,24.14021 22.2542,62.42496 0,41.3022 -24.3288,66.19667 -24.1401,24.89457 -63.3678,24.89457 h -66.1968 v 99.7666 h -57.5214 z m 57.5214,48.65739 v 80.52995 h 52.9951 q 42.4339,0 42.4339,-41.49084 0,-22.44273 -12.4473,-30.74092 -12.4472,-8.29819 -37.9075,-8.29819 z"
             style="font-weight:bold;font-size:36.5474px;line-height:1.25;font-family:Helvetica;-inkscape-font-specification:'Helvetica, Bold';letter-spacing:-0.669396px;word-spacing:0px;fill:#5bad92;fill-opacity:1;stroke-width:11.0884"
             id="path49880-9" />
          <path
             d="M 2110.8522,345.51869 V 140.32756 h 51.6749 v 37.15321 q 11.5043,-23.38574 24.7059,-32.81548 13.2017,-9.61837 33.1927,-9.61837 2.6404,0 10.9385,0.5654 v 54.88103 q -8.1096,-0.5654 -13.956,-0.5654 -52.4294,0 -52.4294,48.65738 v 106.93326 z m 63.5564,-231.59432 z m -37.1531,231.59432 z"
             style="font-weight:bold;font-size:36.5474px;line-height:1.25;font-family:Helvetica;-inkscape-font-specification:'Helvetica, Bold';letter-spacing:-0.669396px;word-spacing:0px;fill:#5bad92;fill-opacity:1;stroke-width:11.0884"
             id="path49882-1" />
          <path
             d="m 2243.1493,242.92318 q 0,-49.6005 28.8549,-78.64406 28.8551,-29.2322 76.0037,-29.2322 44.8856,0 74.8722,28.10066 29.9865,28.10066 29.9865,79.7756 0,47.71448 -27.912,77.88958 -27.912,29.98657 -76.9467,29.98657 -45.0741,0 -75.0607,-28.10056 -29.7979,-28.28919 -29.7979,-79.77559 z m 55.8241,0.5654 q 0,62.42496 49.0345,62.42496 49.0347,0 49.0347,-62.42496 0,-62.42486 -49.0347,-62.42486 -49.0345,0 -49.0345,62.42486 z m 49.789,-129.56453 z"
             style="font-weight:bold;font-size:36.5474px;line-height:1.25;font-family:Helvetica;-inkscape-font-specification:'Helvetica, Bold';letter-spacing:-0.669396px;word-spacing:0px;fill:#5bad92;fill-opacity:1;stroke-width:11.0884"
             id="path49884-6" />
          <path
             d="m 2467.1144,178.61231 v -38.28475 h 27.912 V 86.012353 h 54.1267 v 54.315207 h 33.1927 v 38.28475 h -33.1927 V 290.8262 q 0,11.31574 4.3376,13.95601 4.5263,2.64037 18.671,2.64037 4.9034,0 10.7499,-0.5654 v 41.30231 q -15.6534,0.5654 -27.1577,0.5654 -36.2102,0 -48.4688,-9.99545 -12.2587,-9.99556 -12.2587,-34.51284 V 178.61242 Z m 68.0827,166.90638 z"
             style="font-weight:bold;font-size:36.5474px;line-height:1.25;font-family:Helvetica;-inkscape-font-specification:'Helvetica, Bold';letter-spacing:-0.669396px;word-spacing:0px;fill:#5bad92;fill-opacity:1;stroke-width:11.0884"
             id="path49886-0" />
          <path
             d="m 2593.5542,242.92318 q 0,-49.6005 28.8551,-78.64406 28.855,-29.2322 76.0036,-29.2322 44.8856,0 74.8722,28.10066 29.9865,28.10066 29.9865,79.7756 0,47.71448 -27.912,77.88958 -27.912,29.98657 -76.9467,29.98657 -45.0741,0 -75.0606,-28.10056 -29.7981,-28.28919 -29.7981,-79.77559 z m 55.8242,0.5654 q 0,62.42496 49.0345,62.42496 49.0347,0 49.0347,-62.42496 0,-62.42486 -49.0347,-62.42486 -49.0345,0 -49.0345,62.42486 z m 49.7889,-129.56453 z"
             style="font-weight:bold;font-size:36.5474px;line-height:1.25;font-family:Helvetica;-inkscape-font-specification:'Helvetica, Bold';letter-spacing:-0.669396px;word-spacing:0px;fill:#5bad92;fill-opacity:1;stroke-width:11.0884"
             id="path49888-0" />
          <path
             d="m 2955.1827,269.32647 h 55.8241 q -6.0351,38.85047 -29.6094,60.16167 -23.5744,21.31119 -64.6881,21.31119 -42.811,0 -68.6485,-26.02601 -25.6488,-26.21475 -25.6488,-78.45541 0,-49.97768 24.3287,-80.53007 24.3287,-30.74092 72.9862,-30.74092 36.5874,0 61.2933,18.85946 24.8945,18.67093 29.9866,59.59595 v 0 h -55.8241 v 0 q -2.829,-13.76736 -10.7499,-23.00856 -7.7325,-9.42973 -23.1972,-9.42973 -42.9995,0 -42.9995,64.31086 0,60.53896 40.3593,60.53896 15.0875,0 25.8374,-10.56138 10.7499,-10.56128 10.7499,-26.02601 z m -34.7014,-155.4021 z m -3.0176,231.59432 z"
             style="font-weight:bold;font-size:36.5474px;line-height:1.25;font-family:Helvetica;-inkscape-font-specification:'Helvetica, Bold';letter-spacing:-0.669396px;word-spacing:0px;fill:#5bad92;fill-opacity:1;stroke-width:11.0884"
             id="path49890-3" />
          <path
             d="m 3030.147,242.92318 q 0,-49.6005 28.8551,-78.64406 28.855,-29.2322 76.0036,-29.2322 44.8856,0 74.8722,28.10066 29.9865,28.10066 29.9865,79.7756 0,47.71448 -27.912,77.88958 -27.912,29.98657 -76.9467,29.98657 -45.0741,0 -75.0606,-28.10056 -29.7981,-28.28919 -29.7981,-79.77559 z m 55.8241,0.5654 q 0,62.42496 49.0346,62.42496 49.0347,0 49.0347,-62.42496 0,-62.42486 -49.0347,-62.42486 -49.0346,0 -49.0346,62.42486 z m 49.789,-129.56453 z"
             style="font-weight:bold;font-size:36.5474px;line-height:1.25;font-family:Helvetica;-inkscape-font-specification:'Helvetica, Bold';letter-spacing:-0.669396px;word-spacing:0px;fill:#5bad92;fill-opacity:1;stroke-width:11.0884"
             id="path49892-2" />
          <path
             d="M 3272.395,345.51869 V 67.90725 h 54.1267 v 277.61144 z m 27.1577,-298.734096 z m 0,298.734096 z"
             style="font-weight:bold;font-size:36.5474px;line-height:1.25;font-family:Helvetica;-inkscape-font-specification:'Helvetica, Bold';letter-spacing:-0.669396px;word-spacing:0px;fill:#5bad92;fill-opacity:1;stroke-width:11.0884"
             id="path49894-9" />
          <path
             sodipodi:type="star"
             style="fill:#fcfaf2;fill-opacity:1;stroke:none;stroke-width:111.929;stroke-linecap:round;stroke-linejoin:round"
             id="path20073-3-4"
             inkscape:flatsided="true"
             sodipodi:sides="3"
             sodipodi:cx="249.29526"
             sodipodi:cy="-224.70244"
             sodipodi:r1="22.622484"
             sodipodi:r2="11.311242"
             sodipodi:arg1="0.52359878"
             sodipodi:arg2="1.5707963"
             inkscape:rounded="0"
             inkscape:randomized="0"
             transform="matrix(-2.8258479,0,0,-2.8407875,1276.4085,-538.2918)"
             inkscape:transform-center-y="1.5202548"
             inkscape:transform-center-x="-2.0074996e-06"
             d="m 268.8869,-213.3912 -39.18329,0 19.59165,-33.93372 z" />
          <path
             sodipodi:type="star"
             style="fill:#f9aea5;fill-opacity:1;stroke:none;stroke-width:258.903;stroke-linecap:round;stroke-linejoin:round"
             id="path20073-3-2-3"
             inkscape:flatsided="true"
             sodipodi:sides="3"
             sodipodi:cx="249.29526"
             sodipodi:cy="-224.70244"
             sodipodi:r1="22.622484"
             sodipodi:r2="11.311242"
             sodipodi:arg1="0.52359878"
             sodipodi:arg2="1.5707963"
             inkscape:rounded="0"
             inkscape:randomized="0"
             transform="matrix(-1.2216774,0,0,-1.2281362,876.49644,-175.92511)"
             inkscape:transform-center-y="0.65724397"
             inkscape:transform-center-x="-1.5961771e-06"
             d="m 268.8869,-213.3912 -39.18329,0 19.59165,-33.93372 z" />
        </g>
      </g>
    </g>
  </g>
</svg>
