<?xml version="1.0" encoding="UTF-8" standalone="no"?>
<svg
   width="41.015644"
   height="284.00024"
   viewBox="0 0 41.015644 284.00024"
   fill="none"
   version="1.1"
   id="svg29"
   sodipodi:docname="１円矢印.svg"
   inkscape:version="1.1 (c68e22c387, 2021-05-23)"
   xmlns:inkscape="http://www.inkscape.org/namespaces/inkscape"
   xmlns:sodipodi="http://sodipodi.sourceforge.net/DTD/sodipodi-0.dtd"
   xmlns="http://www.w3.org/2000/svg"
   xmlns:svg="http://www.w3.org/2000/svg">
  <sodipodi:namedview
     id="namedview31"
     pagecolor="#ffffff"
     bordercolor="#666666"
     borderopacity="1.0"
     inkscape:pageshadow="2"
     inkscape:pageopacity="0.0"
     inkscape:pagecheckerboard="0"
     showgrid="false"
     fit-margin-top="0"
     fit-margin-left="0"
     fit-margin-right="0"
     fit-margin-bottom="0"
     inkscape:zoom="2.0570379"
     inkscape:cx="27.709747"
     inkscape:cy="154.59122"
     inkscape:window-width="1904"
     inkscape:window-height="982"
     inkscape:window-x="-77"
     inkscape:window-y="28"
     inkscape:window-maximized="0"
     inkscape:current-layer="svg29" />
  <defs
     id="defs27">
    <filter
       id="filter0_d"
       x="2.40521"
       y="1"
       width="22.189501"
       height="285"
       filterUnits="userSpaceOnUse"
       color-interpolation-filters="sRGB">
      <feFlood
         flood-opacity="0"
         result="BackgroundImageFix"
         id="feFlood12" />
      <feColorMatrix
         in="SourceAlpha"
         type="matrix"
         values="0 0 0 0 0 0 0 0 0 0 0 0 0 0 0 0 0 0 127 0"
         result="hardAlpha"
         id="feColorMatrix14" />
      <feOffset
         dx="1"
         dy="1"
         id="feOffset16" />
      <feComposite
         in2="hardAlpha"
         operator="out"
         id="feComposite18" />
      <feColorMatrix
         type="matrix"
         values="0 0 0 0 0 0 0 0 0 0 0 0 0 0 0 0 0 0 0.25 0"
         id="feColorMatrix20" />
      <feBlend
         mode="normal"
         in2="BackgroundImageFix"
         result="effect1_dropShadow"
         id="feBlend22" />
      <feBlend
         mode="normal"
         in="SourceGraphic"
         in2="effect1_dropShadow"
         result="shape"
         id="feBlend24" />
    </filter>
  </defs>
  <g
     style="fill:none"
     id="g5938"
     transform="translate(-2.4052428,-0.99999975)">
    <line
       x1="7.5"
       y1="142.5"
       x2="18.5"
       y2="142.5"
       stroke="#cfcfcf"
       stroke-width="3"
       stroke-linecap="round"
       id="line5920" />
    <line
       x1="13.5729"
       y1="18.0107"
       x2="12.5"
       y2="268.008"
       stroke="#cfcfcf"
       stroke-width="5"
       id="line5922" />
    <path
       d="m 12.634,1.5 c 0.3849,-0.666667 1.3471,-0.666667 1.732,0 l 9.0933,15.75 c 0.3849,0.6667 -0.0962,1.5 -0.866,1.5 H 4.40673 c -0.7698,0 -1.25092,-0.8333 -0.86602,-1.5 z"
       fill="#cfcfcf"
       id="path5924" />
    <path
       d="m 13.366,284.5 c -0.3849,0.667 -1.3471,0.667 -1.732,0 L 2.54071,268.75 c -0.3849,-0.667 0.09622,-1.5 0.86602,-1.5 H 21.5933 c 0.7698,0 1.2509,0.833 0.866,1.5 z"
       fill="#cfcfcf"
       id="path5926" />
  </g>
  <g
     style="fill:none"
     id="g5949"
     transform="translate(21.103642,135.50063)">
    <path
       d="M 0.664,10 H 7.468 V 8.572 h -2.4 V 1.084 H 3.772 C 3.112,1.528 2.332,1.636 1.216,1.828 v 1.104 h 2.088 v 5.64 H 0.664 Z M 15.472,5.032 V 2.008 h 3 V 5.032 Z M 11.224,2.008 h 2.832 V 5.032 H 11.224 Z M 19.912,0.592 H 9.784 v 10.44 h 1.44 V 6.448 h 7.248 v 2.904 c 0,0.204 -0.084,0.276 -0.312,0.288 -0.24,0 -1.02,0.012 -1.704,-0.036 0.204,0.372 0.444,1.032 0.516,1.428 1.068,0 1.788,-0.024 2.268,-0.264 0.504,-0.228 0.672,-0.624 0.672,-1.404 z"
       fill="#818181"
       id="path5940" />
  </g>
</svg>
