<svg width="34" height="284" viewBox="0 0 34 284" fill="none" xmlns="http://www.w3.org/2000/svg">
<path d="M10 0L1.33975 15L18.6603 15L10 0ZM10 284L18.6603 269L1.33976 269L10 284ZM8.5 13.5L8.50001 270.5L11.5 270.5L11.5 13.5L8.5 13.5Z" fill="#CFCFCF"/>
<path d="M0.874209 16.5L10 0.986154L19.1258 16.5H0.874209Z" fill="#CFCFCF" stroke="#CFCFCF"/>
<path d="M0.874209 267.5L10 283.014L19.1258 267.5H0.874209Z" fill="#CFCFCF" stroke="#CFCFCF"/>
<rect x="3.5" y="140.5" width="13" height="2" rx="1" fill="#D9D9D9" stroke="#CFCFCF"/>
<path d="M22.3466 137.273L24.5795 142.131L23.7614 142.472L21.1705 137.273H22.3466ZM24 142.131L26.233 137.273H27.4091L24.8182 142.472L24 142.131ZM24.8182 141.415V146H23.7614V141.415H24.8182ZM26.7273 141.653V142.42H21.8523V141.653H26.7273ZM26.7273 143.341V144.108H21.8523V143.341H26.7273ZM31.5458 137.273V146H30.489V138.381H30.4379L28.3072 139.795V138.722L30.489 137.273H31.5458Z" fill="#818181"/>
</svg>
