<svg width="46" height="315" viewBox="0 0 46 315" fill="none" xmlns="http://www.w3.org/2000/svg">
<path d="M22.5545 25.4442V29.8206L12.5028 33.9292L32.6061 42.1465L12.5028 50.3637L32.6061 58.581L12.5028 66.7983L32.6061 75.0155L12.5028 83.2328L32.6061 91.45L12.5028 99.6673L32.6061 107.885L12.5028 116.102L32.6061 124.319L22.5545 128.428V132.804" stroke="#CBCBCB" stroke-width="5.00001" stroke-linecap="square"/>
<path d="M22.5545 182.115V186.502L12.5028 190.621L32.6061 198.858L12.5028 207.095L32.6061 215.333L12.5028 223.57L32.6061 231.807L12.5028 240.044L32.6061 248.281L12.5028 256.519L32.6061 264.756L12.5028 272.993L32.6061 281.23L22.5545 285.349V289.736" stroke="#CBCBCB" stroke-width="5.00001" stroke-linecap="square"/>
<path d="M45.0239 157.5C45.0239 163.467 42.6534 169.19 38.4338 173.41C34.2143 177.629 28.4913 180 22.5239 180C16.5566 180 10.8336 177.629 6.61402 173.41C2.39445 169.19 0.0239258 163.467 0.0239258 157.5C0.0239258 151.533 2.39445 145.81 6.61402 141.59C10.8336 137.37 16.5566 135 22.5239 135C28.4913 135 34.2143 137.37 38.4338 141.59C42.6534 145.81 45.0239 151.533 45.0239 157.5Z" fill="#5BAD92"/>
<path d="M31.4568 140.154C31.2273 140.219 31.0332 140.373 30.9173 140.582C30.8014 140.79 30.7731 141.037 30.8387 141.266C30.9043 141.496 31.0584 141.69 31.267 141.806C31.7977 142.1 32.3083 142.419 32.7982 142.76C33.288 143.101 33.7571 143.463 34.2046 143.846C34.6522 144.229 35.0782 144.631 35.482 145.052C35.8858 145.473 36.2673 145.911 36.6258 146.366C36.9843 146.821 37.3196 147.293 37.6312 147.778C37.9428 148.263 38.2305 148.763 38.4936 149.274C38.7567 149.786 38.9952 150.31 39.2082 150.844C39.4212 151.378 39.6086 151.922 39.7698 152.474C39.9311 153.026 40.0663 153.587 40.1742 154.153C40.2822 154.72 40.3629 155.292 40.416 155.869C40.4691 156.446 40.4944 157.027 40.4911 157.61C40.4878 158.193 40.4561 158.779 40.3948 159.365C40.3335 159.95 40.2428 160.536 40.1219 161.12C40.0011 161.705 39.85 162.287 39.668 162.867C39.4859 163.446 39.2728 164.022 39.0277 164.592C38.7827 165.162 38.5118 165.713 38.217 166.244C37.9222 166.775 37.6034 167.285 37.2627 167.775C36.9221 168.265 36.5595 168.734 36.1769 169.181C36.1769 169.181 36.1769 169.182 36.1769 169.182C35.7943 169.629 35.3916 170.055 34.9709 170.459C34.5501 170.863 34.1113 171.244 33.6563 171.603C33.2013 171.961 32.7302 172.297 32.245 172.608C31.7597 172.92 31.2602 173.208 30.7486 173.471C30.237 173.734 29.7132 173.973 29.1793 174.186C28.6454 174.399 28.1014 174.586 27.5492 174.747C26.997 174.909 26.4366 175.044 25.8701 175.152C25.3036 175.26 24.731 175.341 24.1543 175.394C23.5775 175.447 22.9965 175.472 22.4134 175.469C21.8302 175.466 21.2449 175.434 20.6592 175.372C20.0736 175.311 19.4877 175.22 18.9035 175.1C18.3193 174.979 17.7367 174.828 17.1576 174.646C17.0448 174.61 16.9262 174.597 16.8084 174.608C16.6907 174.618 16.5762 174.652 16.4714 174.706C16.3666 174.761 16.2736 174.836 16.1977 174.926C16.1218 175.017 16.0645 175.122 16.029 175.234C15.9936 175.347 15.9807 175.466 15.9911 175.583C16.0014 175.701 16.0349 175.816 16.0896 175.92C16.1442 176.025 16.219 176.118 16.3096 176.194C16.4002 176.27 16.5049 176.327 16.6176 176.363C17.2546 176.563 17.8956 176.729 18.5388 176.862C19.1819 176.995 19.8271 177.095 20.4719 177.163C21.1166 177.23 21.7612 177.265 22.4032 177.269C23.0452 177.273 23.6845 177.245 24.3192 177.186C24.954 177.128 25.584 177.039 26.2072 176.92C26.8303 176.801 27.4466 176.653 28.0539 176.475C28.6611 176.298 29.2593 176.092 29.8464 175.857C30.4334 175.623 31.0094 175.361 31.5719 175.072C32.1345 174.782 32.6838 174.466 33.2176 174.123C33.7514 173.78 34.2696 173.411 34.7702 173.017C35.2709 172.622 35.754 172.202 36.2172 171.758C36.6804 171.313 37.1238 170.844 37.5451 170.351C37.9664 169.858 38.3655 169.342 38.7405 168.803C39.1155 168.263 39.4662 167.702 39.7904 167.118C40.1146 166.534 40.4123 165.929 40.6813 165.302C40.9504 164.676 41.1847 164.043 41.3849 163.406C41.5852 162.769 41.7515 162.128 41.8845 161.485C42.0176 160.842 42.1173 160.197 42.1848 159.552C42.1848 159.552 42.1848 159.552 42.1848 159.552C42.2523 158.907 42.2875 158.262 42.2911 157.62C42.2948 156.978 42.267 156.339 42.2085 155.704C42.1501 155.069 42.0611 154.439 41.9423 153.816C41.8236 153.193 41.6752 152.577 41.4979 151.97C41.3205 151.362 41.1142 150.764 40.88 150.177C40.6458 149.59 40.3838 149.014 40.0945 148.451C39.8052 147.889 39.4887 147.339 39.146 146.805C38.8032 146.272 38.4341 145.753 38.0396 145.253C37.6451 144.752 37.2251 144.269 36.7806 143.806C36.3361 143.342 35.8671 142.899 35.3744 142.478C34.8816 142.056 34.3651 141.657 33.8259 141.282C33.2868 140.907 32.7248 140.556 32.1411 140.232C31.9324 140.116 31.6863 140.088 31.4568 140.154V140.154Z" fill="#FCFAF2"/>
<path d="M22.6446 137.731C22.0027 137.728 21.3633 137.756 20.7286 137.814C20.0938 137.872 19.4638 137.961 18.8407 138.08C18.2175 138.199 17.6012 138.348 16.9939 138.525C16.3867 138.702 15.7885 138.909 15.2015 139.143C14.6144 139.377 14.0384 139.639 13.4759 139.928C12.9133 140.218 12.364 140.534 11.8302 140.877C11.2964 141.22 10.7783 141.589 10.2776 141.983C9.77691 142.378 9.29378 142.798 8.83059 143.243C8.3674 143.687 7.92403 144.156 7.50273 144.649C7.08143 145.142 6.68229 145.658 6.30731 146.197C5.93234 146.737 5.5816 147.299 5.25739 147.883C4.93317 148.466 4.63551 149.072 4.36646 149.698C4.09742 150.324 3.86315 150.957 3.6629 151.594C3.46264 152.231 3.29633 152.872 3.16329 153.515C3.03025 154.158 2.93048 154.803 2.863 155.448C2.79551 156.093 2.76035 156.738 2.7567 157.38C2.75304 158.022 2.78087 158.661 2.8393 159.296C2.89773 159.931 2.98673 160.561 3.10549 161.184C3.22425 161.807 3.37262 162.424 3.54995 163.031C3.72729 163.638 3.93364 164.236 4.16782 164.823C4.402 165.41 4.66401 165.986 4.95333 166.549C5.24264 167.112 5.55907 167.661 5.90182 168.195C6.24458 168.729 6.61373 169.247 7.00822 169.748C7.40271 170.248 7.82269 170.731 8.2672 171.195C8.71171 171.658 9.1807 172.101 9.67345 172.522C10.1662 172.944 10.6827 173.343 11.2219 173.718C11.7611 174.093 12.323 174.444 12.9067 174.768C13.1154 174.884 13.3615 174.912 13.591 174.847C13.8205 174.781 14.0146 174.627 14.1305 174.418C14.2464 174.21 14.2747 173.964 14.2091 173.734C14.1435 173.505 13.9895 173.311 13.7808 173.195C13.2501 172.9 12.7395 172.581 12.2497 172.24C11.7598 171.9 11.2907 171.537 10.8432 171.155C10.3956 170.772 9.9696 170.369 9.56583 169.948C9.16204 169.527 8.78049 169.089 8.422 168.634C8.06352 168.179 7.72818 167.707 7.41659 167.222C7.10499 166.737 6.81733 166.237 6.55424 165.726C6.29114 165.214 6.05257 164.69 5.83959 164.157C5.62662 163.623 5.43924 163.078 5.27798 162.526C5.11672 161.974 4.98156 161.414 4.8736 160.847C4.76564 160.281 4.68487 159.708 4.63177 159.131C4.57867 158.554 4.55338 157.973 4.5567 157.39C4.56001 156.807 4.59174 156.221 4.65303 155.636C4.71433 155.05 4.805 154.464 4.92586 153.88C5.04673 153.296 5.19777 152.713 5.37985 152.134C5.56194 151.554 5.77526 150.979 6.0203 150.408C6.26535 149.838 6.53604 149.287 6.83084 148.756C7.12563 148.226 7.44444 147.715 7.78509 147.225C8.12574 146.735 8.48826 146.266 8.87089 145.819C9.25353 145.371 9.65619 144.945 10.0769 144.541C10.4977 144.137 10.9365 143.756 11.3915 143.397C11.8465 143.039 12.3176 142.703 12.8029 142.392C13.2881 142.08 13.7877 141.792 14.2992 141.529C14.8108 141.266 15.3346 141.028 15.8685 140.815C16.4024 140.602 16.9464 140.414 17.4986 140.253C18.0508 140.091 18.6112 139.956 19.1777 139.848C19.7442 139.74 20.3168 139.66 20.8936 139.606C21.4704 139.553 22.0513 139.528 22.6344 139.531C23.2176 139.535 23.803 139.566 24.3886 139.628C24.9742 139.689 25.5601 139.78 26.1443 139.901C26.7285 140.021 27.3111 140.172 27.8903 140.355C28.003 140.39 28.1216 140.403 28.2394 140.393C28.3571 140.382 28.4717 140.349 28.5764 140.294C28.6812 140.239 28.7742 140.165 28.8501 140.074C28.926 139.983 28.9834 139.879 29.0188 139.766C29.0543 139.653 29.0672 139.535 29.0568 139.417C29.0464 139.299 29.0129 139.185 28.9582 139.08C28.9036 138.975 28.8288 138.882 28.7382 138.806C28.6476 138.73 28.5429 138.673 28.4302 138.637C27.7932 138.437 27.1522 138.271 26.509 138.138C25.8659 138.005 25.2207 137.905 24.5759 137.837C23.9312 137.77 23.2866 137.735 22.6446 137.731Z" fill="#FCFAF2"/>
<path d="M29.5787 140.096L23.9602 141.559L25.4985 135.973L29.5787 140.096Z" fill="#F9AEA5"/>
<path d="M25.5386 135.546C25.4381 135.537 25.3375 135.563 25.2544 135.62C25.1713 135.678 25.1111 135.762 25.0844 135.859L23.546 141.445C23.5261 141.518 23.5256 141.595 23.5447 141.667C23.5637 141.74 23.6016 141.807 23.6546 141.86C23.7076 141.914 23.7737 141.952 23.8464 141.972C23.9191 141.992 23.9958 141.993 24.0687 141.974L29.6872 140.511C29.7602 140.492 29.8268 140.454 29.8804 140.401C29.9341 140.349 29.9728 140.283 29.9928 140.21C30.0128 140.138 30.0133 140.061 29.9942 139.988C29.9752 139.915 29.9373 139.849 29.8843 139.795L25.8041 135.672C25.7331 135.6 25.6392 135.556 25.5386 135.546ZM25.7156 136.802L28.7503 139.869L24.5714 140.957L25.7156 136.802Z" fill="#FCFAF2"/>
<path d="M15.4692 174.904L21.0876 173.441L19.5493 179.027L15.4692 174.904Z" fill="#F9AEA5"/>
<path d="M21.1575 173.018C21.0981 173.009 21.0373 173.011 20.979 173.026L15.3606 174.489C15.2876 174.508 15.221 174.546 15.1673 174.599C15.1137 174.652 15.0749 174.718 15.055 174.79C15.035 174.863 15.0345 174.939 15.0536 175.012C15.0726 175.085 15.1105 175.151 15.1635 175.205L19.2437 179.328C19.2967 179.382 19.3628 179.42 19.4355 179.44C19.5082 179.46 19.5849 179.461 19.6578 179.442C19.7308 179.423 19.7974 179.385 19.851 179.332C19.9047 179.279 19.9434 179.213 19.9634 179.141L21.5018 173.555C21.5177 173.497 21.5212 173.436 21.5122 173.377C21.5031 173.317 21.4817 173.261 21.4492 173.21C21.4168 173.16 21.374 173.116 21.3238 173.083C21.2735 173.05 21.2168 173.028 21.1575 173.018ZM20.4763 174.043L19.3322 178.198L16.2975 175.131L20.4763 174.043Z" fill="#FCFAF2"/>
<path d="M22.5239 171.196H25.2073V164.753H30.8007V162.28H25.175V159.807H30.8007V157.333H26.6461L33.2094 145.758H27.325L22.5238 155.442L22.5239 171.196ZM22.5237 171.196H19.8403V164.753H14.2469V162.28H19.8726V159.807H14.2469V157.333H18.4015L11.8382 145.758H17.7226L22.5238 155.442" fill="#FCFAF2"/>
<path d="M34.0874 0H11.0874V23H34.0874V0Z" fill="#5BAD92"/>
<path d="M34.0874 292H11.0874V315H34.0874V292Z" fill="#5BAD92"/>
</svg>
