<svg width="46" height="315" viewBox="0 0 46 315" fill="none" xmlns="http://www.w3.org/2000/svg">
<path d="M23.2933 24.7227V31.1303L13.2416 37.1458L33.3449 49.1768L13.2416 61.2078L33.3449 73.2388L13.2416 85.2698L33.3449 97.3008L13.2416 109.332L33.3449 121.363L13.2416 133.394L33.3449 145.425L13.2416 157.456L33.3449 169.487L23.2933 175.502V181.91" stroke="#CBCBCB" stroke-width="5.00001" stroke-linecap="square"/>
<path d="M20.7938 228.822V230.922V231.726L3.59653 235.603L23.7 240.134L3.59653 244.667L23.7 249.199L3.59653 253.73L23.7 258.264L3.59653 262.795L23.6981 267.326L3.59653 271.86L23.6981 276.393L3.59653 280.924L23.7 285.457L20.7938 286.112V290.136V292.236H25.7938V290.136V289.332L42.9891 285.456L22.8856 280.924L42.9891 276.393L22.8856 271.86L42.9891 267.328L22.8875 262.795L42.9891 258.264L22.8875 253.732L42.9891 249.199L22.8875 244.666L42.9891 240.134L22.8836 235.603L25.7938 234.947V230.922V228.822H20.7938Z" fill="#CBCBCB"/>
<path d="M45.7627 206.5C45.7627 212.467 43.3922 218.19 39.1726 222.41C34.9531 226.629 29.2301 229 23.2627 229C17.2954 229 11.5724 226.629 7.35282 222.41C3.13326 218.19 0.762726 212.467 0.762726 206.5C0.762726 200.533 3.13326 194.81 7.35282 190.59C11.5724 186.371 17.2954 184 23.2627 184C29.2301 184 34.9531 186.371 39.1726 190.59C43.3922 194.81 45.7627 200.533 45.7627 206.5Z" fill="#5BAD92"/>
<path d="M32.1956 189.154C31.9661 189.219 31.7721 189.373 31.6561 189.582C31.5402 189.79 31.512 190.037 31.5775 190.266C31.6431 190.496 31.7972 190.69 32.0058 190.806C32.5365 191.1 33.0472 191.419 33.537 191.76C34.0268 192.101 34.4959 192.463 34.9434 192.846C35.391 193.229 35.817 193.631 36.2208 194.052C36.6246 194.473 37.0061 194.911 37.3646 195.366C37.7231 195.821 38.0584 196.293 38.37 196.778C38.6816 197.263 38.9693 197.763 39.2324 198.274C39.4955 198.786 39.7341 199.31 39.947 199.844C40.16 200.378 40.3474 200.922 40.5086 201.474C40.6699 202.026 40.8051 202.587 40.913 203.153C41.021 203.72 41.1018 204.292 41.1549 204.869C41.208 205.446 41.2332 206.027 41.2299 206.61C41.2266 207.194 41.1949 207.779 41.1336 208.365C41.0723 208.95 40.9816 209.536 40.8608 210.12C40.7399 210.705 40.5889 211.287 40.4068 211.867C40.2247 212.446 40.0116 213.022 39.7665 213.592C39.5215 214.162 39.2506 214.713 38.9558 215.244C38.661 215.775 38.3422 216.285 38.0015 216.775C37.6609 217.265 37.2984 217.734 36.9157 218.181C36.9157 218.181 36.9157 218.182 36.9157 218.182C36.5331 218.629 36.1304 219.055 35.7097 219.459C35.2889 219.863 34.8501 220.244 34.3951 220.603C33.9401 220.961 33.469 221.297 32.9838 221.608C32.4985 221.92 31.999 222.208 31.4874 222.471C30.9758 222.734 30.452 222.973 29.9181 223.186C29.3842 223.399 28.8402 223.586 28.288 223.748C27.7358 223.909 27.1754 224.044 26.6089 224.152C26.0424 224.26 25.4699 224.341 24.8931 224.394C24.3163 224.447 23.7353 224.472 23.1522 224.469C22.5691 224.466 21.9837 224.434 21.398 224.372C20.8124 224.311 20.2266 224.22 19.6423 224.1C19.0581 223.979 18.4755 223.828 17.8964 223.646C17.7836 223.61 17.665 223.597 17.5472 223.608C17.4295 223.618 17.315 223.652 17.2102 223.706C17.1054 223.761 17.0124 223.836 16.9365 223.926C16.8606 224.017 16.8033 224.122 16.7678 224.234C16.7324 224.347 16.7195 224.466 16.7299 224.583C16.7403 224.701 16.7737 224.816 16.8284 224.92C16.8831 225.025 16.9578 225.118 17.0484 225.194C17.139 225.27 17.2437 225.327 17.3565 225.363C17.9934 225.563 18.6345 225.729 19.2776 225.862C19.9207 225.995 20.5659 226.095 21.2107 226.163C21.8555 226.23 22.5 226.265 23.142 226.269C23.784 226.273 24.4233 226.245 25.0581 226.186C25.6928 226.128 26.3228 226.039 26.946 225.92C27.5691 225.801 28.1855 225.653 28.7927 225.475C29.4 225.298 29.9981 225.092 30.5852 224.857C31.1722 224.623 31.7482 224.361 32.3108 224.072C32.8733 223.782 33.4226 223.466 33.9564 223.123C34.4902 222.78 35.0084 222.411 35.509 222.017C36.0097 221.622 36.4928 221.202 36.956 220.758C37.4192 220.313 37.8626 219.844 38.2839 219.351C38.7052 218.858 39.1043 218.342 39.4793 217.803C39.8543 217.264 40.205 216.702 40.5292 216.118C40.8535 215.534 41.1511 214.929 41.4202 214.302C41.6892 213.676 41.9235 213.043 42.1237 212.406C42.324 211.77 42.4903 211.128 42.6233 210.485C42.7564 209.842 42.8561 209.197 42.9236 208.552C42.9236 208.552 42.9236 208.552 42.9236 208.552C42.9911 207.907 43.0263 207.262 43.0299 206.62C43.0336 205.978 43.0058 205.339 42.9473 204.704C42.8889 204.069 42.7999 203.439 42.6811 202.816C42.5624 202.193 42.414 201.577 42.2367 200.97C42.0593 200.362 41.853 199.764 41.6188 199.177C41.3846 198.59 41.1226 198.014 40.8333 197.451C40.544 196.889 40.2276 196.339 39.8848 195.805C39.5421 195.272 39.1729 194.753 38.7784 194.253C38.3839 193.752 37.9639 193.269 37.5194 192.806C37.0749 192.342 36.6059 191.899 36.1132 191.478C35.6204 191.056 35.1039 190.657 34.5648 190.282C34.0256 189.907 33.4636 189.556 32.8799 189.232C32.6713 189.116 32.4251 189.088 32.1956 189.154V189.154Z" fill="#FCFAF2"/>
<path d="M23.3834 186.731C22.7415 186.728 22.1021 186.756 21.4674 186.814C20.8326 186.872 20.2026 186.961 19.5795 187.08C18.9563 187.199 18.34 187.348 17.7327 187.525C17.1255 187.702 16.5273 187.909 15.9403 188.143C15.3532 188.377 14.7772 188.639 14.2147 188.928C13.6521 189.218 13.1028 189.534 12.569 189.877C12.0352 190.22 11.5171 190.589 11.0164 190.983C10.5157 191.378 10.0326 191.798 9.56939 192.243C9.1062 192.687 8.66283 193.156 8.24153 193.649C7.82023 194.142 7.42109 194.658 7.04611 195.197C6.67114 195.737 6.3204 196.299 5.99619 196.883C5.67197 197.466 5.37431 198.072 5.10526 198.698C4.83622 199.324 4.60195 199.957 4.4017 200.594C4.20144 201.231 4.03513 201.872 3.90209 202.515C3.76905 203.158 3.66928 203.803 3.6018 204.448C3.53431 205.093 3.49915 205.738 3.4955 206.38C3.49185 207.022 3.51967 207.661 3.5781 208.296C3.63653 208.931 3.72553 209.561 3.84429 210.184C3.96305 210.807 4.11142 211.424 4.28875 212.031C4.46609 212.638 4.67244 213.236 4.90662 213.823C5.1408 214.41 5.40281 214.986 5.69213 215.549C5.98144 216.112 6.29787 216.661 6.64062 217.195C6.98338 217.729 7.35253 218.247 7.74702 218.748C8.14151 219.248 8.56149 219.731 9.006 220.195C9.45051 220.658 9.9195 221.101 10.4123 221.522C10.905 221.944 11.4215 222.343 11.9607 222.718C12.4999 223.093 13.0618 223.444 13.6455 223.768C13.8542 223.884 14.1003 223.912 14.3298 223.847C14.5593 223.781 14.7534 223.627 14.8693 223.418C14.9852 223.21 15.0135 222.964 14.9479 222.734C14.8823 222.505 14.7283 222.311 14.5196 222.195C13.9889 221.9 13.4783 221.581 12.9885 221.24C12.4986 220.9 12.0295 220.537 11.582 220.155C11.1344 219.772 10.7084 219.369 10.3046 218.948C9.90084 218.528 9.51929 218.089 9.1608 217.634C8.80232 217.179 8.46698 216.707 8.15539 216.222C7.84379 215.737 7.55613 215.237 7.29304 214.726C7.02994 214.214 6.79137 213.69 6.57839 213.157C6.36542 212.623 6.17804 212.078 6.01678 211.526C5.85552 210.974 5.72036 210.414 5.6124 209.847C5.50444 209.281 5.42367 208.708 5.37057 208.131C5.31747 207.554 5.29218 206.973 5.2955 206.39C5.29881 205.807 5.33054 205.221 5.39183 204.636C5.45313 204.05 5.5438 203.464 5.66466 202.88C5.78553 202.296 5.93657 201.713 6.11865 201.134C6.30074 200.554 6.51406 199.979 6.7591 199.408C7.00415 198.838 7.27484 198.287 7.56964 197.756C7.86443 197.226 8.18324 196.715 8.52389 196.225C8.86454 195.735 9.22706 195.266 9.60969 194.819C9.99233 194.371 10.395 193.945 10.8157 193.541C11.2365 193.137 11.6753 192.756 12.1303 192.397C12.5853 192.039 13.0564 191.703 13.5417 191.392C14.0269 191.08 14.5265 190.792 15.038 190.529C15.5496 190.266 16.0734 190.028 16.6073 189.815C17.1412 189.602 17.6852 189.414 18.2374 189.253C18.7896 189.091 19.35 188.956 19.9165 188.848C20.483 188.74 21.0556 188.66 21.6324 188.606C22.2092 188.553 22.7901 188.528 23.3732 188.531C23.9564 188.535 24.5418 188.566 25.1274 188.628C25.713 188.689 26.2989 188.78 26.8831 188.901C27.4673 189.021 28.0499 189.172 28.6291 189.355C28.7418 189.39 28.8604 189.403 28.9782 189.393C29.0959 189.382 29.2105 189.349 29.3152 189.294C29.42 189.239 29.513 189.165 29.5889 189.074C29.6648 188.983 29.7222 188.879 29.7576 188.766C29.7931 188.653 29.806 188.535 29.7956 188.417C29.7852 188.299 29.7517 188.185 29.697 188.08C29.6424 187.975 29.5676 187.882 29.477 187.806C29.3864 187.73 29.2817 187.673 29.169 187.637C28.532 187.437 27.891 187.271 27.2478 187.138C26.6047 187.005 25.9595 186.905 25.3147 186.838C24.67 186.77 24.0254 186.735 23.3834 186.731Z" fill="#FCFAF2"/>
<path d="M30.3175 189.096L24.699 190.559L26.2373 184.973L30.3175 189.096Z" fill="#F9AEA5"/>
<path d="M26.2774 184.546C26.1769 184.537 26.0763 184.563 25.9932 184.62C25.9101 184.678 25.8499 184.762 25.8232 184.859L24.2848 190.445C24.2649 190.518 24.2644 190.595 24.2834 190.667C24.3025 190.74 24.3404 190.807 24.3934 190.86C24.4464 190.914 24.5125 190.952 24.5852 190.972C24.6579 190.992 24.7346 190.993 24.8075 190.974L30.426 189.511C30.4989 189.492 30.5656 189.454 30.6192 189.401C30.6729 189.349 30.7116 189.283 30.7316 189.21C30.7516 189.138 30.7521 189.061 30.733 188.988C30.714 188.915 30.6761 188.849 30.6231 188.795L26.5429 184.672C26.4719 184.6 26.3779 184.556 26.2774 184.546ZM26.4544 185.802L29.4891 188.869L25.3102 189.957L26.4544 185.802Z" fill="#FCFAF2"/>
<path d="M16.208 223.904L21.8264 222.441L20.2881 228.027L16.208 223.904Z" fill="#F9AEA5"/>
<path d="M21.8963 222.018C21.8369 222.009 21.7761 222.011 21.7178 222.026L16.0994 223.489C16.0264 223.508 15.9598 223.546 15.9061 223.599C15.8525 223.652 15.8137 223.718 15.7938 223.79C15.7738 223.863 15.7733 223.939 15.7924 224.012C15.8114 224.085 15.8493 224.151 15.9023 224.205L19.9825 228.328C20.0355 228.382 20.1016 228.42 20.1743 228.44C20.247 228.46 20.3237 228.461 20.3966 228.442C20.4696 228.423 20.5362 228.385 20.5898 228.332C20.6435 228.279 20.6822 228.213 20.7022 228.141L22.2406 222.555C22.2565 222.497 22.26 222.436 22.251 222.377C22.2419 222.317 22.2205 222.261 22.188 222.21C22.1556 222.16 22.1128 222.116 22.0626 222.083C22.0123 222.05 21.9557 222.028 21.8963 222.018ZM21.2152 223.043L20.071 227.198L17.0363 224.131L21.2152 223.043Z" fill="#FCFAF2"/>
<path d="M23.2627 220.196H25.9461V213.753H31.5395V211.28H25.9138V208.807H31.5395V206.333H27.3849L33.9482 194.759H28.0638L23.2626 204.442L23.2627 220.196ZM23.2625 220.196H20.5791V213.753H14.9857V211.28H20.6114V208.807H14.9857V206.333H19.1403L12.577 194.759H18.4614L23.2626 204.442" fill="#FCFAF2"/>
<path d="M34.8262 0H11.8262V23H34.8262V0Z" fill="#5BAD92"/>
<path d="M34.8262 292H11.8262V315H34.8262V292Z" fill="#5BAD92"/>
</svg>
