<svg width="46" height="315" viewBox="0 0 46 315" fill="none" xmlns="http://www.w3.org/2000/svg">
<path d="M20.3162 22.697V24.7115V25.6291L3.57983 29.4443L23.6833 34.0259L3.57983 38.6091L23.6814 43.1922L3.57983 47.7754L23.6833 52.3586L3.57983 56.9402L23.6853 61.5234L3.57983 66.1066L23.6833 70.6882L3.57983 75.2714L23.6833 79.853L20.3162 80.6211V84.5857V86.6003H25.3162V84.5857V83.6697L42.0525 79.8546L21.9509 75.2714L42.0525 70.6882L21.949 66.105L42.0525 61.5234L21.9509 56.9402L42.0525 52.357L21.949 47.7754L42.0525 43.1922L21.9509 38.6091L42.0525 34.0259L21.949 29.4443L25.3162 28.6762V24.7115V22.697H20.3162Z" fill="#CBCBCB"/>
<path d="M22.8157 133.055V139.442L12.764 145.438L32.8673 157.43L12.764 169.422L32.8673 181.415L12.764 193.407L32.8673 205.399L12.764 217.391L32.8673 229.384L12.764 241.376L32.8673 253.368L12.764 265.361L32.8673 277.353L22.8157 283.349V289.736" stroke="#CBCBCB" stroke-width="5.00001" stroke-linecap="square"/>
<path d="M45.2851 108.5C45.2851 114.467 42.9146 120.19 38.695 124.41C34.4754 128.629 28.7525 131 22.7851 131C16.8177 131 11.0948 128.629 6.87519 124.41C2.65562 120.19 0.285095 114.467 0.285095 108.5C0.285095 102.533 2.65562 96.8097 6.87519 92.5901C11.0948 88.3705 16.8177 86 22.7851 86C28.7525 86 34.4754 88.3705 38.695 92.5901C42.9146 96.8097 45.2851 102.533 45.2851 108.5Z" fill="#5BAD92"/>
<path d="M31.718 91.1535C31.4885 91.2191 31.2944 91.3732 31.1785 91.5818C31.0626 91.7905 31.0343 92.0366 31.0999 92.2661C31.1655 92.4956 31.3195 92.6897 31.5282 92.8056C32.0589 93.1004 32.5695 93.4192 33.0593 93.7598C33.5491 94.1005 34.0183 94.4632 34.4658 94.8459C34.9133 95.2285 35.3394 95.6311 35.7432 96.0519C36.147 96.4727 36.5285 96.9115 36.887 97.3665C37.2455 97.8215 37.5808 98.2928 37.8924 98.7781C38.204 99.2634 38.4917 99.7628 38.7548 100.274C39.0179 100.786 39.2564 101.31 39.4694 101.844C39.6824 102.378 39.8698 102.922 40.031 103.474C40.1923 104.026 40.3274 104.587 40.4354 105.153C40.5434 105.72 40.6241 106.292 40.6772 106.869C40.7303 107.446 40.7556 108.027 40.7523 108.61C40.749 109.194 40.7172 109.779 40.656 110.365C40.5947 110.95 40.504 111.536 40.3831 112.12C40.2623 112.705 40.1112 113.287 39.9291 113.867C39.7471 114.446 39.534 115.022 39.2889 115.592C39.0439 116.162 38.773 116.713 38.4782 117.244C38.1834 117.775 37.8646 118.285 37.5239 118.775C37.1833 119.265 36.8207 119.734 36.4381 120.181C36.4381 120.181 36.4381 120.182 36.4381 120.182C36.0555 120.629 35.6528 121.055 35.232 121.459C34.8113 121.863 34.3725 122.244 33.9175 122.603C33.4625 122.961 32.9914 123.297 32.5061 123.608C32.0209 123.92 31.5213 124.208 31.0098 124.471C30.4982 124.734 29.9744 124.973 29.4405 125.186C28.9066 125.399 28.3626 125.586 27.8104 125.748C27.2582 125.909 26.6978 126.044 26.1313 126.152C25.5648 126.26 24.9922 126.341 24.4154 126.394C23.8386 126.447 23.2577 126.472 22.6746 126.469C22.0914 126.466 21.506 126.434 20.9204 126.372C20.3348 126.311 19.7489 126.22 19.1647 126.1C18.5805 125.979 17.9979 125.828 17.4187 125.646C17.306 125.61 17.1874 125.597 17.0696 125.608C16.9519 125.618 16.8373 125.652 16.7326 125.706C16.6278 125.761 16.5348 125.836 16.4589 125.926C16.383 126.017 16.3256 126.122 16.2902 126.234C16.2547 126.347 16.2418 126.466 16.2522 126.583C16.2626 126.701 16.2961 126.816 16.3508 126.92C16.4054 127.025 16.4802 127.118 16.5708 127.194C16.6614 127.27 16.7661 127.327 16.8788 127.363C17.5158 127.563 18.1568 127.729 18.8 127.862C19.4431 127.995 20.0883 128.095 20.7331 128.163C21.3778 128.23 22.0224 128.265 22.6644 128.269C23.3064 128.273 23.9457 128.245 24.5804 128.186C25.2152 128.128 25.8452 128.039 26.4683 127.92C27.0915 127.801 27.7078 127.653 28.3151 127.475C28.9223 127.298 29.5205 127.092 30.1075 126.857C30.6946 126.623 31.2706 126.361 31.8331 126.072C32.3957 125.782 32.945 125.466 33.4788 125.123C34.0126 124.78 34.5307 124.411 35.0314 124.017C35.5321 123.622 36.0152 123.202 36.4784 122.758C36.9416 122.313 37.385 121.844 37.8063 121.351C38.2276 120.858 38.6267 120.342 39.0017 119.803C39.3767 119.264 39.7274 118.702 40.0516 118.118C40.3758 117.534 40.6735 116.929 40.9425 116.302C41.2116 115.676 41.4458 115.043 41.6461 114.406C41.8464 113.77 42.0127 113.128 42.1457 112.485C42.2788 111.842 42.3785 111.197 42.446 110.552C42.446 110.552 42.446 110.552 42.446 110.552C42.5135 109.907 42.5486 109.262 42.5523 108.62C42.556 107.978 42.5281 107.339 42.4697 106.704C42.4113 106.069 42.3223 105.439 42.2035 104.816C42.0848 104.193 41.9364 103.577 41.759 102.97C41.5817 102.362 41.3754 101.764 41.1412 101.177C40.907 100.59 40.645 100.014 40.3557 99.4513C40.0664 98.8887 39.7499 98.3392 39.4072 97.8054C39.0644 97.2716 38.6953 96.7533 38.3008 96.2526C37.9063 95.7519 37.4863 95.2688 37.0418 94.8056C36.5973 94.3423 36.1283 93.899 35.6355 93.4777C35.1428 93.0564 34.6263 92.6571 34.0871 92.2821C33.5479 91.9071 32.986 91.5564 32.4023 91.2321C32.1936 91.1162 31.9475 91.088 31.718 91.1535V91.1535Z" fill="#FCFAF2"/>
<path d="M22.9058 88.7314C22.2638 88.7278 21.6245 88.7556 20.9897 88.814C20.355 88.8725 19.725 88.9614 19.1018 89.0802C18.4787 89.199 17.8623 89.3475 17.2551 89.5249C16.6478 89.7023 16.0497 89.9086 15.4626 90.1428C14.8756 90.377 14.2996 90.6391 13.737 90.9285C13.1745 91.2178 12.6252 91.5342 12.0914 91.877C11.5576 92.2198 11.0394 92.5889 10.5388 92.9834C10.0381 93.3779 9.55495 93.798 9.09176 94.2426C8.62857 94.6871 8.1852 95.1563 7.7639 95.6491C7.3426 96.1419 6.94345 96.6583 6.56848 97.1975C6.19351 97.7367 5.84277 98.2988 5.51855 98.8826C5.19434 99.4663 4.89668 100.072 4.62763 100.698C4.35859 101.324 4.12432 101.957 3.92407 102.594C3.72381 103.231 3.5575 103.872 3.42446 104.515C3.29142 105.158 3.19165 105.803 3.12416 106.448C3.05668 107.093 3.02152 107.738 3.01787 108.38C3.01421 109.022 3.04204 109.661 3.10047 110.296C3.1589 110.931 3.2479 111.561 3.36666 112.184C3.48542 112.807 3.63379 113.424 3.81112 114.031C3.98846 114.638 4.19481 115.236 4.42899 115.823C4.66317 116.41 4.92518 116.986 5.21449 117.549C5.50381 118.112 5.82024 118.661 6.16299 119.195C6.50575 119.729 6.8749 120.247 7.26939 120.748C7.66388 121.248 8.08386 121.731 8.52837 122.195C8.97288 122.658 9.44187 123.101 9.93462 123.522C10.4274 123.944 10.9439 124.343 11.483 124.718C12.0222 125.093 12.5842 125.444 13.1679 125.768C13.3765 125.884 13.6227 125.912 13.8522 125.847C14.0817 125.781 14.2757 125.627 14.3917 125.418C14.5076 125.21 14.5358 124.964 14.4703 124.734C14.4047 124.505 14.2506 124.311 14.042 124.195C13.5113 123.9 13.0006 123.581 12.5108 123.24C12.021 122.9 11.5519 122.537 11.1044 122.155C10.6568 121.772 10.2308 121.369 9.82699 120.948C9.42321 120.528 9.04166 120.089 8.68317 119.634C8.32469 119.179 7.98935 118.707 7.67776 118.222C7.36616 117.737 7.0785 117.237 6.81541 116.726C6.55231 116.214 6.31374 115.69 6.10076 115.157C5.88779 114.623 5.70041 114.078 5.53915 113.526C5.37789 112.974 5.24273 112.414 5.13477 111.847C5.02681 111.281 4.94604 110.708 4.89294 110.131C4.83984 109.554 4.81455 108.973 4.81787 108.39C4.82118 107.807 4.85291 107.221 4.9142 106.636C4.9755 106.05 5.06617 105.464 5.18703 104.88C5.3079 104.296 5.45894 103.713 5.64102 103.134C5.8231 102.554 6.03643 101.979 6.28147 101.408C6.52652 100.838 6.79721 100.287 7.092 99.7564C7.3868 99.2257 7.70561 98.7151 8.04626 98.2253C8.38691 97.7354 8.74943 97.2664 9.13206 96.8188C9.5147 96.3712 9.91736 95.945 10.3381 95.5412C10.7589 95.1374 11.1977 94.7559 11.6527 94.3974C12.1077 94.0389 12.5788 93.7034 13.064 93.3918C13.5493 93.0801 14.0488 92.7923 14.5604 92.5292C15.072 92.2661 15.5958 92.0276 16.1297 91.8145C16.6636 91.6015 17.2076 91.414 17.7598 91.2527C18.312 91.0914 18.8724 90.9563 19.4389 90.8483C20.0054 90.7403 20.5779 90.6596 21.1547 90.6065C21.7315 90.5534 22.3125 90.5279 22.8956 90.5312C23.4788 90.5345 24.0641 90.5665 24.6498 90.6278C25.2354 90.689 25.8212 90.7797 26.4055 90.9006C26.9897 91.0215 27.5723 91.1725 28.1514 91.3546C28.2642 91.39 28.3828 91.4029 28.5005 91.3925C28.6183 91.3821 28.7328 91.3487 28.8376 91.294C28.9424 91.2393 29.0354 91.1646 29.1113 91.074C29.1872 90.9834 29.2445 90.8787 29.28 90.7659C29.3154 90.6532 29.3283 90.5346 29.3179 90.4168C29.3075 90.2991 29.2741 90.1846 29.2194 90.0798C29.1647 89.975 29.09 89.882 28.9994 89.8061C28.9088 89.7302 28.8041 89.6729 28.6913 89.6374C28.0544 89.4371 27.4133 89.2711 26.7702 89.138C26.1271 89.005 25.4819 88.905 24.8371 88.8375C24.1923 88.77 23.5478 88.7351 22.9058 88.7314Z" fill="#FCFAF2"/>
<path d="M29.8398 91.0965L24.2214 92.5591L25.7597 86.973L29.8398 91.0965Z" fill="#F9AEA5"/>
<path d="M25.7998 86.5464C25.6993 86.5369 25.5986 86.5631 25.5156 86.6204C25.4325 86.6776 25.3723 86.7622 25.3455 86.8593L23.8072 92.4455C23.7872 92.518 23.7868 92.5945 23.8058 92.6673C23.8249 92.7401 23.8628 92.8066 23.9158 92.8601C23.9687 92.9136 24.0349 92.9523 24.1076 92.9723C24.1803 92.9922 24.257 92.9927 24.3299 92.9737L29.9484 91.5111C30.0213 91.4921 30.088 91.4543 30.1416 91.4014C30.1952 91.3486 30.234 91.2826 30.254 91.2101C30.2739 91.1375 30.2744 91.061 30.2554 90.9883C30.2363 90.9155 30.1984 90.849 30.1455 90.7954L26.0652 86.6719C25.9943 86.6002 25.9003 86.5558 25.7998 86.5464ZM25.9768 87.8023L29.0114 90.8691L24.8326 91.957L25.9768 87.8023Z" fill="#FCFAF2"/>
<path d="M15.7303 125.904L21.3488 124.441L19.8105 130.027L15.7303 125.904Z" fill="#F9AEA5"/>
<path d="M21.4187 124.018C21.3593 124.009 21.2985 124.011 21.2402 124.026L15.6217 125.489C15.5488 125.508 15.4822 125.546 15.4285 125.599C15.3749 125.652 15.3361 125.718 15.3161 125.79C15.2962 125.863 15.2957 125.939 15.3147 126.012C15.3338 126.085 15.3717 126.151 15.4247 126.205L19.5049 130.328C19.5579 130.382 19.624 130.42 19.6967 130.44C19.7694 130.46 19.8461 130.461 19.919 130.442C19.9919 130.423 20.0586 130.385 20.1122 130.332C20.1659 130.279 20.2046 130.213 20.2246 130.141L21.7629 124.555C21.7789 124.497 21.7824 124.436 21.7734 124.377C21.7643 124.317 21.7429 124.261 21.7104 124.21C21.6779 124.16 21.6352 124.116 21.5849 124.083C21.5347 124.05 21.478 124.028 21.4187 124.018ZM20.7375 125.043L19.5933 129.198L16.5587 126.131L20.7375 125.043Z" fill="#FCFAF2"/>
<path d="M22.7851 122.196H25.4685V115.753H31.0619V113.28H25.4362V110.807H31.0619V108.333H26.9073L33.4706 96.7585H27.5862L22.785 106.442L22.7851 122.196ZM22.7849 122.196H20.1014V115.753H14.5081V113.28H20.1338V110.807H14.5081V108.333H18.6627L12.0994 96.7585H17.9837L22.785 106.442" fill="#FCFAF2"/>
<path d="M34.3486 0H11.3486V23H34.3486V0Z" fill="#5BAD92"/>
<path d="M34.3486 292H11.3486V315H34.3486V292Z" fill="#5BAD92"/>
</svg>
