<svg width="46" height="315" viewBox="0 0 46 315" fill="none" xmlns="http://www.w3.org/2000/svg">
<path d="M22.9021 24.8253V30.9549L12.8504 36.7095L32.9537 48.2186L12.8504 59.7277L32.9537 71.2368L12.8504 82.7459L32.9537 94.255L12.8504 105.764L32.9537 117.273L12.8504 128.782L32.9537 140.291L12.8504 151.801L32.9537 163.31L22.9021 169.064V175.194" stroke="#CBCBCB" stroke-width="5.00001" stroke-linecap="square"/>
<path d="M20.4026 221.631V223.989V224.862L3.12521 229.196L23.2268 234.238L3.12521 239.282L23.2287 244.326L3.12521 249.369L23.2268 254.411L3.12521 259.455L23.2287 264.498L3.12521 269.542L23.2268 274.584L3.12521 279.627L23.2287 284.671L20.4026 285.38V289.878V292.236H25.4026V289.878V289.005L42.6799 284.671L22.5744 279.627L42.6799 274.584L22.5764 269.542L42.6799 264.498L22.5744 259.455L42.6799 254.411L22.5764 249.369L42.6799 244.326L22.5744 239.282L42.6799 234.238L22.5764 229.196L25.4026 228.487V223.989V221.631H20.4026Z" fill="#CBCBCB"/>
<path d="M45.3715 199.5C45.3715 205.467 43.001 211.19 38.7814 215.41C34.5618 219.629 28.8389 222 22.8715 222C16.9041 222 11.1812 219.629 6.96159 215.41C2.74202 211.19 0.37149 205.467 0.37149 199.5C0.37149 193.533 2.74202 187.81 6.96159 183.59C11.1812 179.371 16.9041 177 22.8715 177C28.8389 177 34.5618 179.371 38.7814 183.59C43.001 187.81 45.3715 193.533 45.3715 199.5Z" fill="#5BAD92"/>
<path d="M31.8044 182.154C31.5749 182.219 31.3808 182.373 31.2649 182.582C31.149 182.79 31.1207 183.037 31.1863 183.266C31.2519 183.496 31.4059 183.69 31.6146 183.806C32.1453 184.1 32.6559 184.419 33.1457 184.76C33.6355 185.101 34.1047 185.463 34.5522 185.846C34.9997 186.229 35.4258 186.631 35.8296 187.052C36.2334 187.473 36.6149 187.911 36.9734 188.366C37.3319 188.821 37.6672 189.293 37.9788 189.778C38.2904 190.263 38.5781 190.763 38.8412 191.274C39.1043 191.786 39.3428 192.31 39.5558 192.844C39.7688 193.378 39.9562 193.922 40.1174 194.474C40.2787 195.026 40.4138 195.587 40.5218 196.153C40.6298 196.72 40.7105 197.292 40.7636 197.869C40.8167 198.446 40.842 199.027 40.8387 199.61C40.8354 200.194 40.8036 200.779 40.7424 201.365C40.6811 201.95 40.5904 202.536 40.4695 203.12C40.3487 203.705 40.1976 204.287 40.0155 204.867C39.8335 205.446 39.6204 206.022 39.3753 206.592C39.1303 207.162 38.8594 207.713 38.5646 208.244C38.2698 208.775 37.9509 209.285 37.6103 209.775C37.2696 210.265 36.9071 210.734 36.5245 211.181C36.5245 211.181 36.5245 211.182 36.5245 211.182C36.1419 211.629 35.7392 212.055 35.3184 212.459C34.8977 212.863 34.4589 213.244 34.0039 213.603C33.5489 213.961 33.0778 214.297 32.5925 214.608C32.1073 214.92 31.6077 215.208 31.0962 215.471C30.5846 215.734 30.0608 215.973 29.5269 216.186C28.993 216.399 28.449 216.586 27.8968 216.748C27.3446 216.909 26.7842 217.044 26.2177 217.152C25.6512 217.26 25.0786 217.341 24.5018 217.394C23.925 217.447 23.3441 217.472 22.761 217.469C22.1778 217.466 21.5924 217.434 21.0068 217.372C20.4212 217.311 19.8353 217.22 19.2511 217.1C18.6669 216.979 18.0843 216.828 17.5051 216.646C17.3924 216.61 17.2738 216.597 17.156 216.608C17.0383 216.618 16.9237 216.652 16.8189 216.706C16.7142 216.761 16.6211 216.836 16.5452 216.926C16.4693 217.017 16.412 217.122 16.3766 217.234C16.3411 217.347 16.3282 217.466 16.3386 217.583C16.349 217.701 16.3825 217.816 16.4372 217.92C16.4918 218.025 16.5666 218.118 16.6572 218.194C16.7478 218.27 16.8525 218.327 16.9652 218.363C17.6022 218.563 18.2432 218.729 18.8864 218.862C19.5295 218.995 20.1747 219.095 20.8195 219.163C21.4642 219.23 22.1088 219.265 22.7508 219.269C23.3927 219.273 24.0321 219.245 24.6668 219.186C25.3016 219.128 25.9316 219.039 26.5547 218.92C27.1779 218.801 27.7942 218.653 28.4015 218.475C29.0087 218.298 29.6069 218.092 30.1939 217.857C30.781 217.623 31.357 217.361 31.9195 217.072C32.4821 216.782 33.0314 216.466 33.5652 216.123C34.099 215.78 34.6171 215.411 35.1178 215.017C35.6185 214.622 36.1016 214.202 36.5648 213.758C37.028 213.313 37.4714 212.844 37.8927 212.351C38.314 211.858 38.7131 211.342 39.0881 210.803C39.4631 210.264 39.8138 209.702 40.138 209.118C40.4622 208.534 40.7599 207.929 41.0289 207.302C41.298 206.676 41.5322 206.043 41.7325 205.406C41.9328 204.77 42.0991 204.128 42.2321 203.485C42.3652 202.842 42.4649 202.197 42.5324 201.552C42.5324 201.552 42.5324 201.552 42.5324 201.552C42.5999 200.907 42.635 200.262 42.6387 199.62C42.6423 198.978 42.6145 198.339 42.5561 197.704C42.4977 197.069 42.4087 196.439 42.2899 195.816C42.1712 195.193 42.0228 194.577 41.8454 193.97C41.6681 193.362 41.4618 192.764 41.2276 192.177C40.9934 191.59 40.7314 191.014 40.4421 190.451C40.1528 189.889 39.8363 189.339 39.4936 188.805C39.1508 188.272 38.7817 187.753 38.3872 187.253C37.9927 186.752 37.5727 186.269 37.1282 185.806C36.6837 185.342 36.2147 184.899 35.7219 184.478C35.2292 184.056 34.7127 183.657 34.1735 183.282C33.6343 182.907 33.0723 182.556 32.4887 182.232C32.28 182.116 32.0339 182.088 31.8044 182.154V182.154Z" fill="#FCFAF2"/>
<path d="M22.9922 179.731C22.3502 179.728 21.7109 179.756 21.0761 179.814C20.4414 179.872 19.8114 179.961 19.1882 180.08C18.5651 180.199 17.9487 180.348 17.3415 180.525C16.7342 180.702 16.1361 180.909 15.549 181.143C14.962 181.377 14.386 181.639 13.8234 181.928C13.2609 182.218 12.7116 182.534 12.1778 182.877C11.644 183.22 11.1258 183.589 10.6252 183.983C10.1245 184.378 9.64134 184.798 9.17815 185.243C8.71496 185.687 8.2716 186.156 7.8503 186.649C7.429 187.142 7.02985 187.658 6.65488 188.197C6.2799 188.737 5.92917 189.299 5.60495 189.883C5.28073 190.466 4.98307 191.072 4.71403 191.698C4.44498 192.324 4.21072 192.957 4.01046 193.594C3.8102 194.231 3.6439 194.872 3.51086 195.515C3.37781 196.158 3.27805 196.803 3.21056 197.448C3.14308 198.093 3.10791 198.738 3.10426 199.38C3.10061 200.022 3.12843 200.661 3.18686 201.296C3.2453 201.931 3.3343 202.561 3.45305 203.184C3.57181 203.807 3.72018 204.424 3.89752 205.031C4.07485 205.638 4.28121 206.236 4.51538 206.823C4.74956 207.41 5.01157 207.986 5.30089 208.549C5.59021 209.112 5.90664 209.661 6.24939 210.195C6.59214 210.729 6.9613 211.247 7.35579 211.748C7.75028 212.248 8.17025 212.731 8.61477 213.195C9.05928 213.658 9.52826 214.101 10.021 214.522C10.5138 214.944 11.0303 215.343 11.5694 215.718C12.1086 216.093 12.6706 216.444 13.2543 216.768C13.4629 216.884 13.7091 216.912 13.9386 216.847C14.1681 216.781 14.3621 216.627 14.4781 216.418C14.594 216.21 14.6222 215.964 14.5567 215.734C14.4911 215.505 14.337 215.311 14.1284 215.195C13.5977 214.9 13.087 214.581 12.5972 214.24C12.1074 213.9 11.6383 213.537 11.1908 213.155C10.7432 212.772 10.3172 212.369 9.91339 211.948C9.50961 211.528 9.12806 211.089 8.76957 210.634C8.41108 210.179 8.07575 209.707 7.76415 209.222C7.45255 208.737 7.16489 208.237 6.9018 207.726C6.63871 207.214 6.40014 206.69 6.18716 206.157C5.97418 205.623 5.78681 205.078 5.62555 204.526C5.46428 203.974 5.32913 203.414 5.22117 202.847C5.1132 202.281 5.03243 201.708 4.97933 201.131C4.92624 200.554 4.90094 199.973 4.90426 199.39C4.90758 198.807 4.9393 198.221 5.00059 197.636C5.06189 197.05 5.15257 196.464 5.27343 195.88C5.39429 195.296 5.54533 194.713 5.72742 194.134C5.9095 193.554 6.12282 192.979 6.36787 192.408C6.61291 191.838 6.88361 191.287 7.1784 190.756C7.47319 190.226 7.79201 189.715 8.13266 189.225C8.47331 188.735 8.83582 188.266 9.21846 187.819C9.60109 187.371 10.0038 186.945 10.4245 186.541C10.8453 186.137 11.2841 185.756 11.7391 185.397C12.1941 185.039 12.6652 184.703 13.1504 184.392C13.6357 184.08 14.1352 183.792 14.6468 183.529C15.1584 183.266 15.6821 183.028 16.216 182.815C16.75 182.602 17.294 182.414 17.8462 182.253C18.3984 182.091 18.9588 181.956 19.5253 181.848C20.0918 181.74 20.6643 181.66 21.2411 181.606C21.8179 181.553 22.3989 181.528 22.982 181.531C23.5651 181.535 24.1505 181.566 24.7362 181.628C25.3218 181.689 25.9076 181.78 26.4919 181.901C27.0761 182.021 27.6587 182.172 28.2378 182.355C28.3506 182.39 28.4692 182.403 28.5869 182.393C28.7047 182.382 28.8192 182.349 28.924 182.294C29.0288 182.239 29.1218 182.165 29.1977 182.074C29.2736 181.983 29.3309 181.879 29.3664 181.766C29.4018 181.653 29.4147 181.535 29.4043 181.417C29.3939 181.299 29.3605 181.185 29.3058 181.08C29.2511 180.975 29.1764 180.882 29.0858 180.806C28.9952 180.73 28.8905 180.673 28.7777 180.637C28.1408 180.437 27.4997 180.271 26.8566 180.138C26.2135 180.005 25.5683 179.905 24.9235 179.838C24.2787 179.77 23.6342 179.735 22.9922 179.731Z" fill="#FCFAF2"/>
<path d="M29.9262 182.096L24.3078 183.559L25.8461 177.973L29.9262 182.096Z" fill="#F9AEA5"/>
<path d="M25.8862 177.546C25.7857 177.537 25.685 177.563 25.602 177.62C25.5189 177.678 25.4587 177.762 25.4319 177.859L23.8936 183.445C23.8736 183.518 23.8731 183.595 23.8922 183.667C23.9113 183.74 23.9492 183.807 24.0022 183.86C24.0551 183.914 24.1213 183.952 24.194 183.972C24.2667 183.992 24.3434 183.993 24.4163 183.974L30.0348 182.511C30.1077 182.492 30.1744 182.454 30.228 182.401C30.2816 182.349 30.3204 182.283 30.3404 182.21C30.3603 182.138 30.3608 182.061 30.3418 181.988C30.3227 181.915 30.2848 181.849 30.2318 181.795L26.1516 177.672C26.0807 177.6 25.9867 177.556 25.8862 177.546ZM26.0632 178.802L29.0978 181.869L24.919 182.957L26.0632 178.802Z" fill="#FCFAF2"/>
<path d="M15.8167 216.904L21.4352 215.441L19.8969 221.027L15.8167 216.904Z" fill="#F9AEA5"/>
<path d="M21.505 215.018C21.4457 215.009 21.3849 215.011 21.3266 215.026L15.7081 216.489C15.6352 216.508 15.5686 216.546 15.5149 216.599C15.4613 216.652 15.4225 216.718 15.4025 216.79C15.3826 216.863 15.3821 216.939 15.4011 217.012C15.4202 217.085 15.4581 217.151 15.5111 217.205L19.5913 221.328C19.6443 221.382 19.7104 221.42 19.7831 221.44C19.8558 221.46 19.9325 221.461 20.0054 221.442C20.0783 221.423 20.145 221.385 20.1986 221.332C20.2522 221.279 20.291 221.213 20.311 221.141L21.8493 215.555C21.8653 215.497 21.8688 215.436 21.8598 215.377C21.8507 215.317 21.8293 215.261 21.7968 215.21C21.7643 215.16 21.7216 215.116 21.6713 215.083C21.6211 215.05 21.5644 215.028 21.505 215.018ZM20.8239 216.043L19.6797 220.198L16.6451 217.131L20.8239 216.043Z" fill="#FCFAF2"/>
<path d="M22.8715 213.196H25.5549V206.753H31.1483V204.28H25.5226V201.807H31.1483V199.333H26.9936L33.557 187.759H27.6726L22.8714 197.442L22.8715 213.196ZM22.8712 213.196H20.1878V206.753H14.5945V204.28H20.2202V201.807H14.5945V199.333H18.7491L12.1858 187.759H18.0701L22.8714 197.442" fill="#FCFAF2"/>
<path d="M34.435 0H11.435V23H34.435V0Z" fill="#5BAD92"/>
<path d="M34.435 292H11.435V315H34.435V292Z" fill="#5BAD92"/>
</svg>
