<svg width="46" height="315" viewBox="0 0 46 315" fill="none" xmlns="http://www.w3.org/2000/svg">
<path d="M22.5982 25.2379V28.2013L12.5465 30.9834L32.6498 36.5475L12.5465 42.1115L32.6498 47.6756L12.5465 53.2397L32.6498 58.8038L12.5465 64.3679L32.6498 69.932L12.5465 75.4961L32.6498 81.0602L12.5465 86.6243L32.6498 92.1884L22.5982 94.9705V97.9339" stroke="#CBCBCB" stroke-width="5.00001" stroke-linecap="square"/>
<path d="M22.5982 147.267V153.074L12.5465 158.527L32.6498 169.431L12.5465 180.336L32.6498 191.24L12.5465 202.145L32.6498 213.049L12.5465 223.954L32.6498 234.858L12.5465 245.763L32.6498 256.667L12.5465 267.572L32.6498 278.476L22.5982 283.928V289.736" stroke="#CBCBCB" stroke-width="5" stroke-linecap="square"/>
<path d="M45.0676 122.5C45.0676 128.467 42.6971 134.19 38.4775 138.41C34.258 142.629 28.535 145 22.5676 145C16.6003 145 10.8773 142.629 6.65772 138.41C2.43816 134.19 0.067627 128.467 0.067627 122.5C0.067627 116.533 2.43816 110.81 6.65772 106.59C10.8773 102.371 16.6003 100 22.5676 100C28.535 100 34.258 102.371 38.4775 106.59C42.6971 110.81 45.0676 116.533 45.0676 122.5Z" fill="#5BAD92"/>
<path d="M31.5005 105.154C31.271 105.219 31.0769 105.373 30.961 105.582C30.8451 105.79 30.8168 106.037 30.8824 106.266C30.948 106.496 31.1021 106.69 31.3107 106.806C31.8414 107.1 32.3521 107.419 32.8419 107.76C33.3317 108.101 33.8008 108.463 34.2483 108.846C34.6959 109.229 35.1219 109.631 35.5257 110.052C35.9295 110.473 36.311 110.911 36.6695 111.366C37.028 111.821 37.3633 112.293 37.6749 112.778C37.9865 113.263 38.2742 113.763 38.5373 114.274C38.8004 114.786 39.0389 115.31 39.2519 115.844C39.4649 116.378 39.6523 116.922 39.8135 117.474C39.9748 118.026 40.11 118.587 40.2179 119.153C40.3259 119.72 40.4066 120.292 40.4597 120.869C40.5128 121.446 40.5381 122.027 40.5348 122.61C40.5315 123.194 40.4998 123.779 40.4385 124.365C40.3772 124.95 40.2865 125.536 40.1656 126.12C40.0448 126.705 39.8937 127.287 39.7117 127.867C39.5296 128.446 39.3165 129.022 39.0714 129.592C38.8264 130.162 38.5555 130.713 38.2607 131.244C37.9659 131.775 37.6471 132.285 37.3064 132.775C36.9658 133.265 36.6033 133.734 36.2206 134.181C36.2206 134.181 36.2206 134.182 36.2206 134.182C35.838 134.629 35.4353 135.055 35.0146 135.459C34.5938 135.863 34.155 136.244 33.7 136.603C33.245 136.961 32.7739 137.297 32.2887 137.608C31.8034 137.92 31.3039 138.208 30.7923 138.471C30.2807 138.734 29.7569 138.973 29.223 139.186C28.6891 139.399 28.1451 139.586 27.5929 139.748C27.0407 139.909 26.4803 140.044 25.9138 140.152C25.3473 140.26 24.7747 140.341 24.198 140.394C23.6212 140.447 23.0402 140.472 22.4571 140.469C21.8739 140.466 21.2886 140.434 20.7029 140.372C20.1173 140.311 19.5314 140.22 18.9472 140.1C18.363 139.979 17.7804 139.828 17.2013 139.646C17.0885 139.61 16.9699 139.597 16.8521 139.608C16.7344 139.618 16.6199 139.652 16.5151 139.706C16.4103 139.761 16.3173 139.836 16.2414 139.926C16.1655 140.017 16.1082 140.122 16.0727 140.234C16.0373 140.347 16.0244 140.466 16.0348 140.583C16.0451 140.701 16.0786 140.816 16.1333 140.92C16.1879 141.025 16.2627 141.118 16.3533 141.194C16.4439 141.27 16.5486 141.327 16.6613 141.363C17.2983 141.563 17.9393 141.729 18.5825 141.862C19.2256 141.995 19.8708 142.095 20.5156 142.163C21.1603 142.23 21.8049 142.265 22.4469 142.269C23.0889 142.273 23.7282 142.245 24.3629 142.186C24.9977 142.128 25.6277 142.039 26.2509 141.92C26.874 141.801 27.4903 141.653 28.0976 141.475C28.7048 141.298 29.303 141.092 29.8901 140.857C30.4771 140.623 31.0531 140.361 31.6156 140.072C32.1782 139.782 32.7275 139.466 33.2613 139.123C33.7951 138.78 34.3133 138.411 34.8139 138.017C35.3146 137.622 35.7977 137.202 36.2609 136.758C36.7241 136.313 37.1675 135.844 37.5888 135.351C38.0101 134.858 38.4092 134.342 38.7842 133.803C39.1592 133.264 39.5099 132.702 39.8341 132.118C40.1583 131.534 40.456 130.929 40.725 130.302C40.9941 129.676 41.2284 129.043 41.4286 128.406C41.6289 127.77 41.7952 127.128 41.9282 126.485C42.0613 125.842 42.161 125.197 42.2285 124.552C42.2285 124.552 42.2285 124.552 42.2285 124.552C42.296 123.907 42.3312 123.262 42.3348 122.62C42.3385 121.978 42.3107 121.339 42.2522 120.704C42.1938 120.069 42.1048 119.439 41.986 118.816C41.8673 118.193 41.7189 117.577 41.5416 116.97C41.3642 116.362 41.1579 115.764 40.9237 115.177C40.6895 114.59 40.4275 114.014 40.1382 113.451C39.8489 112.889 39.5324 112.339 39.1897 111.805C38.8469 111.272 38.4778 110.753 38.0833 110.253C37.6888 109.752 37.2688 109.269 36.8243 108.806C36.3798 108.342 35.9108 107.899 35.4181 107.478C34.9253 107.056 34.4088 106.657 33.8696 106.282C33.3305 105.907 32.7685 105.556 32.1848 105.232C31.9761 105.116 31.73 105.088 31.5005 105.154V105.154Z" fill="#FCFAF2"/>
<path d="M22.6883 102.731C22.0464 102.728 21.407 102.756 20.7723 102.814C20.1375 102.872 19.5075 102.961 18.8844 103.08C18.2612 103.199 17.6449 103.348 17.0376 103.525C16.4304 103.702 15.8322 103.909 15.2452 104.143C14.6581 104.377 14.0821 104.639 13.5196 104.928C12.957 105.218 12.4077 105.534 11.8739 105.877C11.3401 106.22 10.822 106.589 10.3213 106.983C9.82061 107.378 9.33748 107.798 8.87429 108.243C8.4111 108.687 7.96773 109.156 7.54644 109.649C7.12513 110.142 6.72599 110.658 6.35101 111.197C5.97604 111.737 5.6253 112.299 5.30109 112.883C4.97687 113.466 4.67921 114.072 4.41017 114.698C4.14112 115.324 3.90686 115.957 3.7066 116.594C3.50634 117.231 3.34003 117.872 3.20699 118.515C3.07395 119.158 2.97418 119.803 2.9067 120.448C2.83921 121.093 2.80405 121.738 2.8004 122.38C2.79675 123.022 2.82457 123.661 2.883 124.296C2.94143 124.931 3.03043 125.561 3.14919 126.184C3.26795 126.807 3.41632 127.424 3.59366 128.031C3.77099 128.638 3.97734 129.236 4.21152 129.823C4.4457 130.41 4.70771 130.986 4.99703 131.549C5.28634 132.112 5.60278 132.661 5.94553 133.195C6.28828 133.729 6.65743 134.247 7.05192 134.748C7.44641 135.248 7.86639 135.731 8.3109 136.195C8.75541 136.658 9.2244 137.101 9.71715 137.522C10.2099 137.944 10.7264 138.343 11.2656 138.718C11.8048 139.093 12.3667 139.444 12.9504 139.768C13.1591 139.884 13.4052 139.912 13.6347 139.847C13.8642 139.781 14.0583 139.627 14.1742 139.418C14.2901 139.21 14.3184 138.964 14.2528 138.734C14.1872 138.505 14.0332 138.311 13.8245 138.195C13.2938 137.9 12.7832 137.581 12.2934 137.24C11.8035 136.9 11.3344 136.537 10.8869 136.155C10.4394 135.772 10.0133 135.369 9.60953 134.948C9.20575 134.528 8.82419 134.089 8.4657 133.634C8.10722 133.179 7.77188 132.707 7.46029 132.222C7.14869 131.737 6.86103 131.237 6.59794 130.726C6.33484 130.214 6.09627 129.69 5.8833 129.157C5.67032 128.623 5.48294 128.078 5.32168 127.526C5.16042 126.974 5.02526 126.414 4.9173 125.847C4.80934 125.281 4.72857 124.708 4.67547 124.131C4.62237 123.554 4.59708 122.973 4.6004 122.39C4.60371 121.807 4.63544 121.221 4.69673 120.636C4.75803 120.05 4.8487 119.464 4.96957 118.88C5.09043 118.296 5.24147 117.713 5.42355 117.134C5.60564 116.554 5.81896 115.979 6.064 115.408C6.30905 114.838 6.57974 114.287 6.87454 113.756C7.16933 113.226 7.48814 112.715 7.82879 112.225C8.16944 111.735 8.53196 111.266 8.9146 110.819C9.29723 110.371 9.69989 109.945 10.1206 109.541C10.5414 109.137 10.9802 108.756 11.4352 108.397C11.8902 108.039 12.3613 107.703 12.8466 107.392C13.3318 107.08 13.8314 106.792 14.3429 106.529C14.8545 106.266 15.3783 106.028 15.9122 105.815C16.4461 105.602 16.9901 105.414 17.5423 105.253C18.0945 105.091 18.6549 104.956 19.2214 104.848C19.7879 104.74 20.3605 104.66 20.9373 104.606C21.5141 104.553 22.095 104.528 22.6781 104.531C23.2613 104.535 23.8467 104.566 24.4323 104.628C25.0179 104.689 25.6038 104.78 26.188 104.901C26.7722 105.021 27.3548 105.172 27.934 105.355C28.0467 105.39 28.1653 105.403 28.2831 105.393C28.4008 105.382 28.5154 105.349 28.6201 105.294C28.7249 105.239 28.8179 105.165 28.8938 105.074C28.9697 104.983 29.0271 104.879 29.0625 104.766C29.098 104.653 29.1109 104.535 29.1005 104.417C29.0901 104.299 29.0566 104.185 29.0019 104.08C28.9473 103.975 28.8725 103.882 28.7819 103.806C28.6913 103.73 28.5866 103.673 28.4739 103.637C27.8369 103.437 27.1959 103.271 26.5527 103.138C25.9096 103.005 25.2644 102.905 24.6196 102.838C23.9749 102.77 23.3303 102.735 22.6883 102.731Z" fill="#FCFAF2"/>
<path d="M29.6223 105.096L24.0039 106.559L25.5422 100.973L29.6223 105.096Z" fill="#F9AEA5"/>
<path d="M25.5823 100.546C25.4818 100.537 25.3812 100.563 25.2981 100.62C25.215 100.678 25.1548 100.762 25.1281 100.859L23.5897 106.446C23.5698 106.518 23.5693 106.595 23.5883 106.667C23.6074 106.74 23.6453 106.807 23.6983 106.86C23.7513 106.914 23.8174 106.952 23.8901 106.972C23.9628 106.992 24.0395 106.993 24.1124 106.974L29.7309 105.511C29.8038 105.492 29.8705 105.454 29.9241 105.401C29.9778 105.349 30.0165 105.283 30.0365 105.21C30.0565 105.138 30.057 105.061 30.0379 104.988C30.0189 104.915 29.981 104.849 29.928 104.795L25.8478 100.672C25.7768 100.6 25.6828 100.556 25.5823 100.546ZM25.7593 101.802L28.794 104.869L24.6151 105.957L25.7593 101.802Z" fill="#FCFAF2"/>
<path d="M15.5129 139.904L21.1313 138.441L19.593 144.027L15.5129 139.904Z" fill="#F9AEA5"/>
<path d="M21.2012 138.018C21.1418 138.009 21.081 138.011 21.0227 138.026L15.4043 139.489C15.3313 139.508 15.2647 139.546 15.211 139.599C15.1574 139.652 15.1186 139.718 15.0987 139.79C15.0787 139.863 15.0782 139.939 15.0973 140.012C15.1163 140.085 15.1542 140.151 15.2072 140.205L19.2874 144.328C19.3404 144.382 19.4065 144.42 19.4792 144.44C19.5519 144.46 19.6286 144.461 19.7015 144.442C19.7745 144.423 19.8411 144.385 19.8947 144.332C19.9484 144.279 19.9871 144.213 20.0071 144.141L21.5455 138.555C21.5614 138.497 21.5649 138.436 21.5559 138.377C21.5468 138.317 21.5254 138.261 21.4929 138.21C21.4605 138.16 21.4177 138.116 21.3675 138.083C21.3172 138.05 21.2605 138.028 21.2012 138.018ZM20.52 139.043L19.3759 143.198L16.3412 140.131L20.52 139.043Z" fill="#FCFAF2"/>
<path d="M22.5676 136.196H25.251V129.753H30.8444V127.28H25.2187V124.807H30.8444V122.333H26.6898L33.2531 110.759H27.3688L22.5675 120.442L22.5676 136.196ZM22.5674 136.196H19.884V129.753H14.2906V127.28H19.9163V124.807H14.2906V122.333H18.4452L11.8819 110.759H17.7663L22.5675 120.442" fill="#FCFAF2"/>
<path d="M34.1311 0H11.1311V23H34.1311V0Z" fill="#5BAD92"/>
<path d="M34.1311 292H11.1311V315H34.1311V292Z" fill="#5BAD92"/>
</svg>
