<svg width="46" height="315" viewBox="0 0 46 315" fill="none" xmlns="http://www.w3.org/2000/svg">
<path d="M22.772 24.9562V28.7955L12.7203 32.4L32.8237 39.6088L12.7203 46.8177L32.8237 54.0265L12.7203 61.2354L32.8237 68.4442L12.7203 75.653L32.8237 82.8619L12.7203 90.0707L32.8237 97.2796L12.7203 104.488L32.8237 111.697L22.772 115.302V119.141" stroke="#CBCBCB" stroke-width="5.00001" stroke-linecap="square"/>
<path d="M22.772 168.26V173.212L12.7203 177.86L32.8237 187.158L12.7203 196.456L32.8237 205.754L12.7203 215.051L32.8237 224.349L12.7203 233.647L32.8237 242.944L12.7203 252.242L32.8237 261.54L12.7203 270.837L32.8237 280.135L22.772 284.784V289.736" stroke="#CBCBCB" stroke-width="5.00001" stroke-linecap="square"/>
<path d="M45.2415 143.5C45.2415 149.467 42.8709 155.19 38.6514 159.41C34.4318 163.629 28.7088 166 22.7415 166C16.7741 166 11.0511 163.629 6.83155 159.41C2.61198 155.19 0.241455 149.467 0.241455 143.5C0.241455 137.533 2.61198 131.81 6.83155 127.59C11.0511 123.371 16.7741 121 22.7415 121C28.7088 121 34.4318 123.371 38.6514 127.59C42.8709 131.81 45.2415 137.533 45.2415 143.5Z" fill="#5BAD92"/>
<path d="M31.6743 126.154C31.4448 126.219 31.2508 126.373 31.1349 126.582C31.019 126.79 30.9907 127.037 31.0563 127.266C31.1218 127.496 31.2759 127.69 31.4845 127.806C32.0152 128.1 32.5259 128.419 33.0157 128.76C33.5055 129.101 33.9746 129.463 34.4222 129.846C34.8697 130.229 35.2957 130.631 35.6995 131.052C36.1033 131.473 36.4849 131.911 36.8433 132.366C37.2018 132.821 37.5372 133.293 37.8488 133.778C38.1604 134.263 38.448 134.763 38.7111 135.274C38.9742 135.786 39.2128 136.31 39.4258 136.844C39.6387 137.378 39.8261 137.922 39.9874 138.474C40.1486 139.026 40.2838 139.587 40.3917 140.153C40.4997 140.72 40.5805 141.292 40.6336 141.869C40.6867 142.446 40.712 143.027 40.7087 143.61C40.7053 144.194 40.6736 144.779 40.6123 145.365C40.551 145.95 40.4603 146.536 40.3395 147.12C40.2186 147.705 40.0676 148.287 39.8855 148.867C39.7034 149.446 39.4903 150.022 39.2453 150.592C39.0002 151.162 38.7293 151.713 38.4345 152.244C38.1397 152.775 37.8209 153.285 37.4803 153.775C37.1396 154.265 36.7771 154.734 36.3945 155.181C36.3945 155.181 36.3945 155.182 36.3945 155.182C36.0118 155.629 35.6092 156.055 35.1884 156.459C34.7676 156.863 34.3288 157.244 33.8738 157.603C33.4189 157.961 32.9478 158.297 32.4625 158.608C31.9772 158.92 31.4777 159.208 30.9661 159.471C30.4545 159.734 29.9308 159.973 29.3969 160.186C28.863 160.399 28.3189 160.586 27.7667 160.748C27.2145 160.909 26.6541 161.044 26.0876 161.152C25.5211 161.26 24.9486 161.341 24.3718 161.394C23.795 161.447 23.2141 161.472 22.6309 161.469C22.0478 161.466 21.4624 161.434 20.8768 161.372C20.2911 161.311 19.7053 161.22 19.1211 161.1C18.5368 160.979 17.9542 160.828 17.3751 160.646C17.2623 160.61 17.1437 160.597 17.026 160.608C16.9082 160.618 16.7937 160.652 16.6889 160.706C16.5841 160.761 16.4911 160.836 16.4152 160.926C16.3393 161.017 16.282 161.122 16.2465 161.234C16.2111 161.347 16.1982 161.466 16.2086 161.583C16.219 161.701 16.2525 161.816 16.3071 161.92C16.3618 162.025 16.4365 162.118 16.5272 162.194C16.6178 162.27 16.7224 162.327 16.8352 162.363C17.4721 162.563 18.1132 162.729 18.7563 162.862C19.3995 162.995 20.0446 163.095 20.6894 163.163C21.3342 163.23 21.9788 163.265 22.6207 163.269C23.2627 163.273 23.902 163.245 24.5368 163.186C25.1715 163.128 25.8016 163.039 26.4247 162.92C27.0478 162.801 27.6642 162.653 28.2714 162.475C28.8787 162.298 29.4768 162.092 30.0639 161.857C30.6509 161.623 31.2269 161.361 31.7895 161.072C32.3521 160.782 32.9013 160.466 33.4351 160.123C33.9689 159.78 34.4871 159.411 34.9878 159.017C35.4884 158.622 35.9716 158.202 36.4348 157.758C36.8979 157.313 37.3413 156.844 37.7626 156.351C38.1839 155.858 38.5831 155.342 38.958 154.803C39.333 154.264 39.6837 153.702 40.008 153.118C40.3322 152.534 40.6298 151.929 40.8989 151.302C41.1679 150.676 41.4022 150.043 41.6024 149.406C41.8027 148.77 41.969 148.128 42.1021 147.485C42.2351 146.842 42.3349 146.197 42.4024 145.552C42.4024 145.552 42.4024 145.552 42.4024 145.552C42.4698 144.907 42.505 144.262 42.5086 143.62C42.5123 142.978 42.4845 142.339 42.426 141.704C42.3676 141.069 42.2786 140.439 42.1599 139.816C42.0411 139.193 41.8927 138.577 41.7154 137.97C41.5381 137.362 41.3317 136.764 41.0975 136.177C40.8634 135.59 40.6013 135.014 40.312 134.451C40.0227 133.889 39.7063 133.339 39.3635 132.805C39.0208 132.272 38.6516 131.753 38.2571 131.253C37.8626 130.752 37.4427 130.269 36.9981 129.806C36.5536 129.342 36.0847 128.899 35.5919 128.478C35.0991 128.056 34.5826 127.657 34.0435 127.282C33.5043 126.907 32.9423 126.556 32.3586 126.232C32.15 126.116 31.9038 126.088 31.6743 126.154V126.154Z" fill="#FCFAF2"/>
<path d="M22.8621 123.731C22.2202 123.728 21.5808 123.756 20.9461 123.814C20.3114 123.872 19.6813 123.961 19.0582 124.08C18.435 124.199 17.8187 124.348 17.2115 124.525C16.6042 124.702 16.006 124.909 15.419 125.143C14.8319 125.377 14.256 125.639 13.6934 125.928C13.1308 126.218 12.5815 126.534 12.0477 126.877C11.514 127.22 10.9958 127.589 10.4951 127.983C9.99444 128.378 9.51131 128.798 9.04812 129.243C8.58493 129.687 8.14156 130.156 7.72026 130.649C7.29896 131.142 6.89981 131.658 6.52484 132.197C6.14986 132.737 5.79913 133.299 5.47491 133.883C5.1507 134.466 4.85304 135.072 4.58399 135.698C4.31495 136.324 4.08068 136.957 3.88042 137.594C3.68017 138.231 3.51386 138.872 3.38082 139.515C3.24777 140.158 3.14801 140.803 3.08052 141.448C3.01304 142.093 2.97788 142.738 2.97422 143.38C2.97057 144.022 2.99839 144.661 3.05683 145.296C3.11526 145.931 3.20426 146.561 3.32302 147.184C3.44177 147.807 3.59015 148.424 3.76748 149.031C3.94481 149.638 4.15117 150.236 4.38535 150.823C4.61952 151.41 4.88154 151.986 5.17085 152.549C5.46017 153.112 5.7766 153.661 6.11935 154.195C6.4621 154.729 6.83126 155.247 7.22575 155.748C7.62024 156.248 8.04022 156.731 8.48473 157.195C8.92924 157.658 9.39822 158.101 9.89098 158.522C10.3837 158.944 10.9002 159.343 11.4394 159.718C11.9786 160.093 12.5406 160.444 13.1242 160.768C13.3329 160.884 13.5791 160.912 13.8086 160.847C14.038 160.781 14.2321 160.627 14.348 160.418C14.4639 160.21 14.4922 159.964 14.4266 159.734C14.361 159.505 14.207 159.311 13.9983 159.195C13.4676 158.9 12.957 158.581 12.4672 158.24C11.9774 157.9 11.5083 157.537 11.0607 157.155C10.6132 156.772 10.1871 156.369 9.78335 155.948C9.37957 155.528 8.99802 155.089 8.63953 154.634C8.28104 154.179 7.94571 153.707 7.63412 153.222C7.32252 152.737 7.03485 152.237 6.77176 151.726C6.50867 151.214 6.2701 150.69 6.05712 150.157C5.84414 149.623 5.65677 149.078 5.49551 148.526C5.33425 147.974 5.19909 147.414 5.09113 146.847C4.98317 146.281 4.9024 145.708 4.8493 145.131C4.7962 144.554 4.77091 143.973 4.77422 143.39C4.77754 142.807 4.80927 142.221 4.87056 141.636C4.93185 141.05 5.02253 140.464 5.14339 139.88C5.26426 139.296 5.41529 138.713 5.59738 138.134C5.77946 137.554 5.99279 136.979 6.23783 136.408C6.48287 135.838 6.75357 135.287 7.04836 134.756C7.34315 134.226 7.66197 133.715 8.00262 133.225C8.34327 132.735 8.70579 132.266 9.08842 131.819C9.47106 131.371 9.87372 130.945 10.2945 130.541C10.7152 130.137 11.1541 129.756 11.609 129.397C12.064 129.039 12.5351 128.703 13.0204 128.392C13.5057 128.08 14.0052 127.792 14.5168 127.529C15.0284 127.266 15.5521 127.028 16.086 126.815C16.6199 126.602 17.1639 126.414 17.7162 126.253C18.2684 126.091 18.8287 125.956 19.3952 125.848C19.9617 125.74 20.5343 125.66 21.1111 125.606C21.6879 125.553 22.2688 125.528 22.852 125.531C23.4351 125.535 24.0205 125.566 24.6061 125.628C25.1917 125.689 25.7776 125.78 26.3618 125.901C26.9461 126.021 27.5287 126.172 28.1078 126.355C28.2205 126.39 28.3392 126.403 28.4569 126.393C28.5746 126.382 28.6892 126.349 28.794 126.294C28.8988 126.239 28.9918 126.165 29.0677 126.074C29.1436 125.983 29.2009 125.879 29.2363 125.766C29.2718 125.653 29.2847 125.535 29.2743 125.417C29.2639 125.299 29.2304 125.185 29.1758 125.08C29.1211 124.975 29.0463 124.882 28.9557 124.806C28.8651 124.73 28.7605 124.673 28.6477 124.637C28.0108 124.437 27.3697 124.271 26.7266 124.138C26.0834 124.005 25.4383 123.905 24.7935 123.838C24.1487 123.77 23.5041 123.735 22.8621 123.731Z" fill="#FCFAF2"/>
<path d="M29.7962 126.096L24.1777 127.559L25.716 121.973L29.7962 126.096Z" fill="#F9AEA5"/>
<path d="M25.7562 121.546C25.6556 121.537 25.555 121.563 25.4719 121.62C25.3889 121.678 25.3287 121.762 25.3019 121.859L23.7635 127.446C23.7436 127.518 23.7431 127.595 23.7622 127.667C23.7812 127.74 23.8192 127.807 23.8721 127.86C23.9251 127.914 23.9913 127.952 24.064 127.972C24.1367 127.992 24.2133 127.993 24.2863 127.974L29.9047 126.511C29.9777 126.492 30.0443 126.454 30.098 126.401C30.1516 126.349 30.1904 126.283 30.2103 126.21C30.2303 126.138 30.2308 126.061 30.2118 125.988C30.1927 125.915 30.1548 125.849 30.1018 125.795L26.0216 121.672C25.9507 121.6 25.8567 121.556 25.7562 121.546ZM25.9331 122.802L28.9678 125.869L24.789 126.957L25.9331 122.802Z" fill="#FCFAF2"/>
<path d="M15.6867 160.904L21.3052 159.441L19.7668 165.027L15.6867 160.904Z" fill="#F9AEA5"/>
<path d="M21.375 159.018C21.3156 159.009 21.2548 159.011 21.1966 159.026L15.5781 160.489C15.5052 160.508 15.4385 160.546 15.3849 160.599C15.3312 160.652 15.2925 160.718 15.2725 160.79C15.2525 160.863 15.252 160.939 15.2711 161.012C15.2901 161.085 15.328 161.151 15.381 161.205L19.4612 165.328C19.5142 165.382 19.5804 165.42 19.6531 165.44C19.7258 165.46 19.8024 165.461 19.8754 165.442C19.9483 165.423 20.0149 165.385 20.0686 165.332C20.1222 165.279 20.161 165.213 20.1809 165.141L21.7193 159.555C21.7352 159.497 21.7388 159.436 21.7297 159.377C21.7207 159.317 21.6992 159.261 21.6667 159.21C21.6343 159.16 21.5915 159.116 21.5413 159.083C21.491 159.05 21.4344 159.028 21.375 159.018ZM20.6939 160.043L19.5497 164.198L16.515 161.131L20.6939 160.043Z" fill="#FCFAF2"/>
<path d="M22.7414 157.196H25.4249V150.753H31.0182V148.28H25.3925V145.807H31.0182V143.333H26.8636L33.4269 131.759H27.5426L22.7413 141.442L22.7414 157.196ZM22.7412 157.196H20.0578V150.753H14.4644V148.28H20.0901V145.807H14.4644V143.333H18.619L12.0557 131.759H17.9401L22.7413 141.442" fill="#FCFAF2"/>
<path d="M34.3049 0H11.3049V23H34.3049V0Z" fill="#5BAD92"/>
<path d="M34.3049 292H11.3049V315H34.3049V292Z" fill="#5BAD92"/>
</svg>
