<svg width="46" height="315" viewBox="0 0 46 315" fill="none" xmlns="http://www.w3.org/2000/svg">
<path d="M20.5338 22.6113V24.2614V24.8904L3.32672 27.934L23.4302 31.4919L3.32672 35.0485L23.4302 38.6051L3.32672 42.163L23.4322 45.7197L3.32672 49.2763L23.4302 52.8342L3.32672 56.3908L23.4302 59.9474L3.32672 63.5053L23.4283 67.0619L20.5338 67.5737V70.7346V72.3846H25.5338V70.7346V70.1068L42.7388 67.0619L22.6373 63.5053L42.7388 59.9474L22.6353 56.3908L42.7388 52.8342L22.6373 49.2763L42.7388 45.7197L22.6373 42.163L42.7388 38.6051L22.6353 35.0485L42.7388 31.4919L22.6373 27.9353L25.5338 27.4222V24.2614V22.6113H20.5338Z" fill="#CBCBCB"/>
<path d="M23.0333 118.704V125.676L12.9816 132.221L33.0849 145.312L12.9816 158.402L33.0849 171.493L12.9816 184.584L33.0849 197.674L12.9816 210.765L33.0849 223.856L12.9816 236.947L33.0849 250.037L12.9816 263.128L33.0849 276.219L23.0333 282.764V289.736" stroke="#CBCBCB" stroke-width="5.00001" stroke-linecap="square"/>
<path d="M45.5027 94.5C45.5027 100.467 43.1322 106.19 38.9126 110.41C34.693 114.629 28.9701 117 23.0027 117C17.0353 117 11.3124 114.629 7.09278 110.41C2.87321 106.19 0.502686 100.467 0.502686 94.5C0.502686 88.5326 2.87321 82.8097 7.09278 78.5901C11.3124 74.3705 17.0353 72 23.0027 72C28.9701 72 34.693 74.3705 38.9126 78.5901C43.1322 82.8097 45.5027 88.5326 45.5027 94.5Z" fill="#5BAD92"/>
<path d="M31.9356 77.1535C31.7061 77.2191 31.512 77.3732 31.3961 77.5818C31.2802 77.7905 31.2519 78.0366 31.3175 78.2661C31.3831 78.4956 31.5371 78.6897 31.7458 78.8056C32.2765 79.1004 32.7871 79.4192 33.2769 79.7598C33.7667 80.1005 34.2359 80.4632 34.6834 80.8459C35.1309 81.2285 35.557 81.6311 35.9608 82.0519C36.3645 82.4727 36.7461 82.9115 37.1046 83.3665C37.4631 83.8215 37.7984 84.2928 38.11 84.7781C38.4216 85.2634 38.7093 85.7628 38.9724 86.2744C39.2354 86.7861 39.474 87.3097 39.687 87.8437C39.9 88.3776 40.0873 88.9218 40.2486 89.474C40.4099 90.0263 40.545 90.5866 40.653 91.1531C40.7609 91.7197 40.8417 92.2923 40.8948 92.8692C40.9479 93.446 40.9732 94.0271 40.9699 94.6103C40.9666 95.1935 40.9348 95.779 40.8736 96.3647C40.8123 96.9504 40.7216 97.5361 40.6007 98.1204C40.4799 98.7047 40.3288 99.2874 40.1467 99.8666C39.9647 100.446 39.7516 101.022 39.5065 101.592C39.2615 102.162 38.9905 102.713 38.6958 103.244C38.401 103.775 38.0821 104.285 37.7415 104.775C37.4008 105.265 37.0383 105.734 36.6557 106.181C36.6557 106.181 36.6557 106.182 36.6557 106.182C36.2731 106.629 35.8704 107.055 35.4496 107.459C35.0289 107.863 34.5901 108.244 34.1351 108.603C33.6801 108.961 33.209 109.297 32.7237 109.608C32.2385 109.92 31.7389 110.208 31.2273 110.471C30.7158 110.734 30.192 110.973 29.6581 111.186C29.1242 111.399 28.5802 111.586 28.028 111.748C27.4758 111.909 26.9154 112.044 26.3489 112.152C25.7824 112.26 25.2098 112.341 24.633 112.394C24.0562 112.447 23.4753 112.472 22.8922 112.469C22.309 112.466 21.7236 112.434 21.138 112.372C20.5524 112.311 19.9665 112.22 19.3823 112.1C18.798 111.979 18.2155 111.828 17.6363 111.646C17.5236 111.61 17.4049 111.597 17.2872 111.608C17.1695 111.618 17.0549 111.652 16.9501 111.706C16.8453 111.761 16.7523 111.836 16.6764 111.926C16.6005 112.017 16.5432 112.122 16.5078 112.234C16.4723 112.347 16.4594 112.466 16.4698 112.583C16.4802 112.701 16.5137 112.816 16.5684 112.92C16.623 113.025 16.6978 113.118 16.7884 113.194C16.879 113.27 16.9837 113.327 17.0964 113.363C17.7333 113.563 18.3744 113.729 19.0176 113.862C19.6607 113.995 20.3059 114.095 20.9506 114.163C21.5954 114.23 22.24 114.265 22.882 114.269C23.5239 114.273 24.1633 114.245 24.798 114.186C25.4328 114.128 26.0628 114.039 26.6859 113.92C27.3091 113.801 27.9254 113.653 28.5327 113.475C29.1399 113.298 29.7381 113.092 30.3251 112.857C30.9122 112.623 31.4881 112.361 32.0507 112.072C32.6133 111.782 33.1626 111.466 33.6964 111.123C34.2302 110.78 34.7483 110.411 35.249 110.017C35.7497 109.622 36.2328 109.202 36.696 108.758C37.1592 108.313 37.6026 107.844 38.0239 107.351C38.4452 106.858 38.8443 106.342 39.2193 105.803C39.5943 105.264 39.945 104.702 40.2692 104.118C40.5934 103.534 40.8911 102.929 41.1601 102.302C41.4292 101.676 41.6634 101.043 41.8637 100.406C42.0639 99.7695 42.2303 99.1283 42.3633 98.4851C42.4964 97.8419 42.5961 97.1968 42.6636 96.552C42.6636 96.552 42.6636 96.5519 42.6636 96.5518C42.7311 95.907 42.7662 95.2625 42.7699 94.6205C42.7735 93.9785 42.7457 93.339 42.6873 92.7042C42.6289 92.0694 42.5399 91.4395 42.4211 90.8163C42.3023 90.1931 42.154 89.5769 41.9766 88.9696C41.7993 88.3623 41.593 87.764 41.3588 87.1769C41.1246 86.5898 40.8626 86.0139 40.5733 85.4513C40.2839 84.8887 39.9675 84.3392 39.6248 83.8054C39.282 83.2716 38.9129 82.7533 38.5184 82.2526C38.1239 81.7519 37.7039 81.2688 37.2594 80.8056C36.8149 80.3423 36.3459 79.899 35.8531 79.4777C35.3604 79.0564 34.8439 78.6571 34.3047 78.2821C33.7655 77.9071 33.2035 77.5564 32.6199 77.2321C32.4112 77.1162 32.1651 77.088 31.9356 77.1535V77.1535Z" fill="#FCFAF2"/>
<path d="M23.1234 74.7314C22.4814 74.7278 21.8421 74.7556 21.2073 74.814C20.5726 74.8725 19.9426 74.9614 19.3194 75.0802C18.6963 75.199 18.0799 75.3475 17.4727 75.5249C16.8654 75.7023 16.2673 75.9086 15.6802 76.1428C15.0932 76.377 14.5172 76.6391 13.9546 76.9285C13.3921 77.2178 12.8428 77.5342 12.309 77.877C11.7752 78.2198 11.257 78.5889 10.7563 78.9834C10.2557 79.3779 9.77254 79.798 9.30935 80.2426C8.84616 80.6871 8.40279 81.1563 7.98149 81.6491C7.56019 82.1419 7.16105 82.6583 6.78607 83.1975C6.4111 83.7367 6.06036 84.2988 5.73615 84.8826C5.41193 85.4663 5.11427 86.0716 4.84522 86.6978C4.57618 87.324 4.34191 87.9567 4.14166 88.5937C3.9414 89.2307 3.77509 89.8719 3.64205 90.5151C3.50901 91.1583 3.40924 91.8033 3.34175 92.4482C3.27427 93.093 3.23911 93.7377 3.23546 94.3797C3.2318 95.0217 3.25963 95.6612 3.31806 96.296C3.37649 96.9308 3.46549 97.5607 3.58425 98.1839C3.70301 98.8071 3.85138 99.4236 4.02871 100.031C4.20605 100.638 4.4124 101.236 4.64658 101.823C4.88076 102.41 5.14277 102.986 5.43209 103.549C5.7214 104.112 6.03783 104.661 6.38058 105.195C6.72334 105.729 7.09249 106.247 7.48698 106.748C7.88147 107.248 8.30145 107.731 8.74596 108.195C9.19047 108.658 9.65946 109.101 10.1522 109.522C10.645 109.944 11.1615 110.343 11.7006 110.718C12.2398 111.093 12.8018 111.444 13.3855 111.768C13.5941 111.884 13.8403 111.912 14.0698 111.847C14.2993 111.781 14.4933 111.627 14.6093 111.418C14.7252 111.21 14.7534 110.964 14.6878 110.734C14.6223 110.505 14.4682 110.311 14.2596 110.195C13.7289 109.9 13.2182 109.581 12.7284 109.24C12.2386 108.9 11.7695 108.537 11.3219 108.155C10.8744 107.772 10.4484 107.369 10.0446 106.948C9.6408 106.528 9.25925 106.089 8.90076 105.634C8.54228 105.179 8.20694 104.707 7.89535 104.222C7.58375 103.737 7.29609 103.237 7.033 102.726C6.7699 102.214 6.53133 101.69 6.31835 101.157C6.10538 100.623 5.918 100.078 5.75674 99.5262C5.59548 98.9739 5.46032 98.4136 5.35236 97.8471C5.2444 97.2805 5.16363 96.7079 5.11053 96.131C5.05743 95.5542 5.03214 94.9731 5.03546 94.3899C5.03877 93.8067 5.0705 93.2212 5.13179 92.6355C5.19309 92.0499 5.28376 91.4641 5.40462 90.8798C5.52549 90.2955 5.67653 89.7128 5.85861 89.1336C6.0407 88.5545 6.25402 87.9788 6.49906 87.4085C6.74411 86.8382 7.0148 86.2872 7.3096 85.7564C7.60439 85.2257 7.9232 84.7151 8.26385 84.2253C8.6045 83.7354 8.96702 83.2664 9.34965 82.8188C9.73229 82.3712 10.135 81.945 10.5557 81.5412C10.9765 81.1374 11.4153 80.7559 11.8703 80.3974C12.3253 80.0389 12.7964 79.7034 13.2816 79.3918C13.7669 79.0801 14.2664 78.7923 14.778 78.5292C15.2896 78.2661 15.8133 78.0276 16.3472 77.8145C16.8811 77.6015 17.4252 77.414 17.9774 77.2527C18.5296 77.0914 19.09 76.9563 19.6565 76.8483C20.223 76.7403 20.7955 76.6596 21.3723 76.6065C21.9491 76.5534 22.53 76.5279 23.1132 76.5312C23.6963 76.5345 24.2817 76.5665 24.8673 76.6278C25.453 76.689 26.0388 76.7797 26.6231 76.9006C27.2073 77.0215 27.7899 77.1725 28.369 77.3546C28.4818 77.39 28.6004 77.4029 28.7181 77.3925C28.8359 77.3821 28.9504 77.3487 29.0552 77.294C29.16 77.2393 29.253 77.1646 29.3289 77.074C29.4048 76.9834 29.4621 76.8787 29.4976 76.7659C29.533 76.6532 29.5459 76.5346 29.5355 76.4168C29.5251 76.2991 29.4916 76.1846 29.437 76.0798C29.3823 75.975 29.3076 75.882 29.217 75.8061C29.1264 75.7302 29.0217 75.6729 28.9089 75.6374C28.272 75.4371 27.6309 75.2711 26.9878 75.138C26.3447 75.005 25.6995 74.905 25.0547 74.8375C24.4099 74.77 23.7653 74.7351 23.1234 74.7314Z" fill="#FCFAF2"/>
<path d="M30.0574 77.0965L24.439 78.5591L25.9773 72.973L30.0574 77.0965Z" fill="#F9AEA5"/>
<path d="M26.0174 72.5464C25.9169 72.5369 25.8162 72.5631 25.7332 72.6204C25.6501 72.6776 25.5899 72.7622 25.5631 72.8593L24.0248 78.4455C24.0048 78.518 24.0043 78.5945 24.0234 78.6673C24.0425 78.7401 24.0804 78.8066 24.1334 78.8601C24.1863 78.9136 24.2525 78.9523 24.3252 78.9723C24.3979 78.9922 24.4746 78.9927 24.5475 78.9737L30.166 77.5111C30.2389 77.4921 30.3055 77.4543 30.3592 77.4014C30.4128 77.3486 30.4516 77.2826 30.4716 77.2101C30.4915 77.1375 30.492 77.061 30.473 76.9883C30.4539 76.9155 30.416 76.849 30.363 76.7954L26.2828 72.6719C26.2119 72.6002 26.1179 72.5558 26.0174 72.5464ZM26.1944 73.8023L29.229 76.8691L25.0502 77.957L26.1944 73.8023Z" fill="#FCFAF2"/>
<path d="M15.9479 111.904L21.5664 110.441L20.0281 116.027L15.9479 111.904Z" fill="#F9AEA5"/>
<path d="M21.6362 110.018C21.5768 110.009 21.5161 110.011 21.4578 110.026L15.8393 111.489C15.7664 111.508 15.6997 111.546 15.6461 111.599C15.5925 111.652 15.5537 111.718 15.5337 111.79C15.5138 111.863 15.5133 111.939 15.5323 112.012C15.5514 112.085 15.5893 112.151 15.6423 112.205L19.7225 116.328C19.7754 116.382 19.8416 116.42 19.9143 116.44C19.987 116.46 20.0637 116.461 20.1366 116.442C20.2095 116.423 20.2762 116.385 20.3298 116.332C20.3834 116.279 20.4222 116.213 20.4422 116.141L21.9805 110.555C21.9964 110.497 22 110.436 21.9909 110.377C21.9819 110.317 21.9604 110.261 21.928 110.21C21.8955 110.16 21.8528 110.116 21.8025 110.083C21.7523 110.05 21.6956 110.028 21.6362 110.018ZM20.9551 111.043L19.8109 115.198L16.7763 112.131L20.9551 111.043Z" fill="#FCFAF2"/>
<path d="M23.0027 108.196H25.6861V101.753H31.2795V99.28H25.6538V96.8066H31.2795V94.3332H27.1248L33.6882 82.7585H27.8038L23.0026 92.4418L23.0027 108.196ZM23.0024 108.196H20.319V101.753H14.7257V99.28H20.3514V96.8066H14.7257V94.3332H18.8803L12.317 82.7585H18.2013L23.0026 92.4418" fill="#FCFAF2"/>
<path d="M34.5662 0H11.5662V23H34.5662V0Z" fill="#5BAD92"/>
<path d="M34.5662 292H11.5662V315H34.5662V292Z" fill="#5BAD92"/>
</svg>
