<svg width="46" height="315" viewBox="0 0 46 315" fill="none" xmlns="http://www.w3.org/2000/svg">
<path d="M20.1424 22.5449V23.0732L2.62482 25.9284L22.7303 29.2062L2.62482 32.4839L22.7283 35.7605L2.62482 39.0383L22.7283 42.3161L2.62482 45.5926L22.7303 48.8704L2.62482 52.1482L22.7283 55.4248L2.62482 58.7026L22.7283 61.9803L20.1424 62.4017V65.3638H25.1424V64.8355L42.658 61.9803L22.5526 58.7026L42.658 55.4248L22.5545 52.1482L42.658 48.8704L22.5545 45.5926L42.658 42.3161L22.5526 39.0383L42.658 35.7605L22.5545 32.4839L42.658 29.2062L22.5565 25.9284L25.1424 25.507V22.5449H20.1424Z" fill="#CBCBCB"/>
<path d="M22.6419 112.261V119.496L12.5902 126.288L32.6935 139.871L12.5902 153.455L32.6935 167.039L12.5902 180.623L32.6935 194.207L12.5902 207.79L32.6935 221.374L12.5902 234.958L32.6935 248.542L12.5902 262.126L32.6935 275.709L22.6419 282.501V289.736" stroke="#CBCBCB" stroke-width="5.00002" stroke-linecap="square"/>
<path d="M45.1113 87.5C45.1113 93.4674 42.7408 99.1903 38.5212 103.41C34.3017 107.629 28.5787 110 22.6113 110C16.644 110 10.921 107.629 6.70143 103.41C2.48186 99.1903 0.111328 93.4674 0.111328 87.5C0.111328 81.5326 2.48186 75.8097 6.70143 71.5901C10.921 67.3705 16.644 65 22.6113 65C28.5787 65 34.3017 67.3705 38.5212 71.5901C42.7408 75.8097 45.1113 81.5326 45.1113 87.5Z" fill="#5BAD92"/>
<path d="M31.5442 70.1535C31.3147 70.2191 31.1207 70.3732 31.0047 70.5818C30.8888 70.7905 30.8606 71.0366 30.9261 71.2661C30.9917 71.4956 31.1458 71.6897 31.3544 71.8056C31.8851 72.1004 32.3958 72.4192 32.8856 72.7598C33.3754 73.1005 33.8445 73.4632 34.292 73.8459C34.7396 74.2285 35.1656 74.6311 35.5694 75.0519C35.9732 75.4727 36.3547 75.9115 36.7132 76.3665C37.0717 76.8215 37.407 77.2928 37.7186 77.7781C38.0302 78.2634 38.3179 78.7628 38.581 79.2744C38.8441 79.7861 39.0827 80.3097 39.2956 80.8437C39.5086 81.3776 39.696 81.9218 39.8573 82.474C40.0185 83.0263 40.1537 83.5866 40.2616 84.1531C40.3696 84.7197 40.4504 85.2923 40.5035 85.8692C40.5566 86.446 40.5819 87.0271 40.5785 87.6103C40.5752 88.1935 40.5435 88.779 40.4822 89.3647C40.4209 89.9504 40.3302 90.5361 40.2094 91.1204C40.0885 91.7047 39.9375 92.2874 39.7554 92.8666C39.5733 93.4457 39.3602 94.0216 39.1151 94.5919C38.8701 95.1623 38.5992 95.713 38.3044 96.2438C38.0096 96.7745 37.6908 97.2851 37.3501 97.7749C37.0095 98.2648 36.647 98.7338 36.2643 99.1814C36.2643 99.1815 36.2643 99.1816 36.2643 99.1816C35.8817 99.6292 35.479 100.055 35.0583 100.459C34.6375 100.863 34.1987 101.244 33.7437 101.603C33.2887 101.961 32.8176 102.297 32.3324 102.608C31.8471 102.92 31.3476 103.208 30.836 103.471C30.3244 103.734 29.8006 103.973 29.2667 104.186C28.7328 104.399 28.1888 104.586 27.6366 104.748C27.0844 104.909 26.524 105.044 25.9575 105.152C25.391 105.26 24.8185 105.341 24.2417 105.394C23.6649 105.447 23.0839 105.472 22.5008 105.469C21.9177 105.466 21.3323 105.434 20.7466 105.372C20.161 105.311 19.5752 105.22 18.9909 105.1C18.4067 104.979 17.8241 104.828 17.245 104.646C17.1322 104.61 17.0136 104.597 16.8959 104.608C16.7781 104.618 16.6636 104.652 16.5588 104.706C16.454 104.761 16.361 104.836 16.2851 104.926C16.2092 105.017 16.1519 105.122 16.1164 105.234C16.081 105.347 16.0681 105.466 16.0785 105.583C16.0889 105.701 16.1223 105.816 16.177 105.92C16.2317 106.025 16.3064 106.118 16.397 106.194C16.4876 106.27 16.5923 106.327 16.7051 106.363C17.342 106.563 17.9831 106.729 18.6262 106.862C19.2693 106.995 19.9145 107.095 20.5593 107.163C21.2041 107.23 21.8486 107.265 22.4906 107.269C23.1326 107.273 23.7719 107.245 24.4067 107.186C25.0414 107.128 25.6714 107.039 26.2946 106.92C26.9177 106.801 27.5341 106.653 28.1413 106.475C28.7486 106.298 29.3467 106.092 29.9338 105.857C30.5208 105.623 31.0968 105.361 31.6594 105.072C32.2219 104.782 32.7712 104.466 33.305 104.123C33.8388 103.78 34.357 103.411 34.8576 103.017C35.3583 102.622 35.8414 102.202 36.3046 101.758C36.7678 101.313 37.2112 100.844 37.6325 100.351C38.0538 99.8583 38.4529 99.3419 38.8279 98.8027C39.2029 98.2635 39.5536 97.7016 39.8778 97.1179C40.2021 96.5342 40.4997 95.9286 40.7688 95.3024C41.0378 94.6762 41.2721 94.0435 41.4723 93.4065C41.6726 92.7695 41.8389 92.1283 41.9719 91.4851C42.105 90.8419 42.2047 90.1968 42.2722 89.552C42.2722 89.552 42.2722 89.5519 42.2722 89.5518C42.3397 88.907 42.3749 88.2625 42.3785 87.6205C42.3822 86.9785 42.3544 86.339 42.2959 85.7042C42.2375 85.0694 42.1485 84.4395 42.0297 83.8163C41.911 83.1931 41.7626 82.5769 41.5853 81.9696C41.4079 81.3623 41.2016 80.764 40.9674 80.1769C40.7332 79.5898 40.4712 79.0139 40.1819 78.4513C39.8926 77.8887 39.5762 77.3392 39.2334 76.8054C38.8907 76.2716 38.5215 75.7533 38.127 75.2526C37.7325 74.7519 37.3125 74.2688 36.868 73.8056C36.4235 73.3423 35.9545 72.899 35.4618 72.4777C34.969 72.0564 34.4525 71.6571 33.9134 71.2821C33.3742 70.9071 32.8122 70.5564 32.2285 70.2321C32.0199 70.1162 31.7737 70.088 31.5442 70.1535V70.1535Z" fill="#FCFAF2"/>
<path d="M22.732 67.7314C22.0901 67.7278 21.4507 67.7556 20.816 67.814C20.1812 67.8725 19.5512 67.9614 18.9281 68.0802C18.3049 68.199 17.6886 68.3475 17.0813 68.5249C16.4741 68.7023 15.8759 68.9086 15.2889 69.1428C14.7018 69.377 14.1258 69.6391 13.5633 69.9285C13.0007 70.2178 12.4514 70.5342 11.9176 70.877C11.3838 71.2198 10.8657 71.5889 10.365 71.9834C9.86431 72.3779 9.38118 72.798 8.91799 73.2426C8.4548 73.6871 8.01143 74.1563 7.59014 74.6491C7.16884 75.1419 6.76969 75.6583 6.39471 76.1975C6.01974 76.7367 5.669 77.2988 5.34479 77.8826C5.02057 78.4663 4.72291 79.0716 4.45387 79.6978C4.18482 80.324 3.95056 80.9567 3.7503 81.5937C3.55004 82.2307 3.38374 82.8719 3.25069 83.5151C3.11765 84.1583 3.01789 84.8033 2.9504 85.4482C2.88291 86.093 2.84775 86.7377 2.8441 87.3797C2.84045 88.0217 2.86827 88.6612 2.9267 89.296C2.98513 89.9308 3.07414 90.5607 3.19289 91.1839C3.31165 91.8071 3.46002 92.4236 3.63736 93.0309C3.81469 93.6381 4.02104 94.2362 4.25522 94.8233C4.4894 95.4104 4.75141 95.9863 5.04073 96.5489C5.33004 97.1115 5.64648 97.661 5.98923 98.1948C6.33198 98.7286 6.70114 99.2469 7.09562 99.7476C7.49011 100.248 7.91009 100.731 8.35461 101.195C8.79911 101.658 9.2681 102.101 9.76086 102.522C10.2536 102.944 10.7701 103.343 11.3093 103.718C11.8485 104.093 12.4104 104.444 12.9941 104.768C13.2028 104.884 13.4489 104.912 13.6784 104.847C13.9079 104.781 14.102 104.627 14.2179 104.418C14.3338 104.21 14.3621 103.964 14.2965 103.734C14.2309 103.505 14.0769 103.311 13.8682 103.195C13.3375 102.9 12.8269 102.581 12.3371 102.24C11.8473 101.9 11.3781 101.537 10.9306 101.155C10.4831 100.772 10.057 100.369 9.65323 99.9483C9.24945 99.5275 8.86789 99.0887 8.5094 98.6337C8.15092 98.1787 7.81558 97.7074 7.50399 97.2221C7.19239 96.7368 6.90473 96.2374 6.64164 95.7258C6.37854 95.2141 6.13997 94.6905 5.927 94.1565C5.71402 93.6226 5.52664 93.0784 5.36538 92.5262C5.20412 91.9739 5.06897 91.4136 4.961 90.8471C4.85304 90.2805 4.77227 89.7079 4.71917 89.131C4.66607 88.5542 4.64078 87.9731 4.6441 87.3899C4.64741 86.8067 4.67914 86.2212 4.74043 85.6355C4.80173 85.0499 4.8924 84.4641 5.01327 83.8798C5.13413 83.2955 5.28517 82.7128 5.46725 82.1336C5.64934 81.5545 5.86266 80.9788 6.10771 80.4085C6.35275 79.8382 6.62345 79.2872 6.91824 78.7564C7.21303 78.2257 7.53185 77.7151 7.87249 77.2253C8.21314 76.7354 8.57566 76.2664 8.9583 75.8188C9.34093 75.3712 9.7436 74.945 10.1643 74.5412C10.5851 74.1374 11.0239 73.7559 11.4789 73.3974C11.9339 73.0389 12.405 72.7034 12.8903 72.3918C13.3755 72.0801 13.8751 71.7923 14.3866 71.5292C14.8982 71.2661 15.422 71.0276 15.9559 70.8145C16.4898 70.6015 17.0338 70.414 17.586 70.2527C18.1382 70.0914 18.6986 69.9563 19.2651 69.8483C19.8316 69.7403 20.4042 69.6596 20.981 69.6065C21.5578 69.5534 22.1387 69.5279 22.7218 69.5312C23.305 69.5345 23.8904 69.5665 24.476 69.6278C25.0616 69.689 25.6475 69.7797 26.2317 69.9006C26.8159 70.0215 27.3985 70.1725 27.9777 70.3546C28.0904 70.39 28.209 70.4029 28.3268 70.3925C28.4445 70.3821 28.5591 70.3487 28.6639 70.294C28.7686 70.2393 28.8616 70.1646 28.9375 70.074C29.0134 69.9834 29.0708 69.8787 29.1062 69.7659C29.1417 69.6532 29.1546 69.5346 29.1442 69.4168C29.1338 69.2991 29.1003 69.1846 29.0456 69.0798C28.991 68.975 28.9162 68.882 28.8256 68.8061C28.735 68.7302 28.6303 68.6729 28.5176 68.6374C27.8806 68.4371 27.2396 68.2711 26.5964 68.138C25.9533 68.005 25.3081 67.905 24.6633 67.8375C24.0186 67.77 23.374 67.7351 22.732 67.7314Z" fill="#FCFAF2"/>
<path d="M29.6661 70.0965L24.0476 71.5591L25.5859 65.973L29.6661 70.0965Z" fill="#F9AEA5"/>
<path d="M25.626 65.5464C25.5255 65.5369 25.4249 65.5631 25.3418 65.6204C25.2587 65.6776 25.1985 65.7622 25.1718 65.8593L23.6334 71.4455C23.6135 71.518 23.613 71.5945 23.632 71.6673C23.6511 71.7401 23.689 71.8066 23.742 71.8601C23.795 71.9136 23.8611 71.9523 23.9338 71.9723C24.0065 71.9922 24.0832 71.9927 24.1561 71.9737L29.7746 70.5111C29.8475 70.4921 29.9142 70.4543 29.9678 70.4014C30.0215 70.3486 30.0602 70.2826 30.0802 70.2101C30.1002 70.1375 30.1007 70.061 30.0816 69.9883C30.0626 69.9155 30.0247 69.849 29.9717 69.7954L25.8915 65.6719C25.8205 65.6002 25.7265 65.5558 25.626 65.5464ZM25.803 66.8023L28.8377 69.8691L24.6588 70.957L25.803 66.8023Z" fill="#FCFAF2"/>
<path d="M15.5566 104.904L21.175 103.441L19.6367 109.027L15.5566 104.904Z" fill="#F9AEA5"/>
<path d="M21.2449 103.018C21.1855 103.009 21.1247 103.011 21.0664 103.026L15.448 104.489C15.375 104.508 15.3084 104.546 15.2547 104.599C15.2011 104.652 15.1623 104.718 15.1424 104.79C15.1224 104.863 15.1219 104.939 15.141 105.012C15.16 105.085 15.1979 105.151 15.2509 105.205L19.3311 109.328C19.3841 109.382 19.4503 109.42 19.5229 109.44C19.5956 109.46 19.6723 109.461 19.7452 109.442C19.8182 109.423 19.8848 109.385 19.9384 109.332C19.9921 109.279 20.0308 109.213 20.0508 109.141L21.5892 103.555C21.6051 103.497 21.6086 103.436 21.5996 103.377C21.5905 103.317 21.5691 103.261 21.5366 103.21C21.5042 103.16 21.4614 103.116 21.4112 103.083C21.3609 103.05 21.3043 103.028 21.2449 103.018ZM20.5638 104.043L19.4196 108.198L16.3849 105.131L20.5638 104.043Z" fill="#FCFAF2"/>
<path d="M22.6113 101.196H25.2947V94.7534H30.8881V92.28H25.2624V89.8066H30.8881V87.3332H26.7335L33.2968 75.7585H27.4125L22.6112 85.4418L22.6113 101.196ZM22.6111 101.196H19.9277V94.7534H14.3343V92.28H19.96V89.8066H14.3343V87.3332H18.4889L11.9256 75.7585H17.81L22.6112 85.4418" fill="#FCFAF2"/>
<path d="M34.1748 0H11.1748V23H34.1748V0Z" fill="#5BAD92"/>
<path d="M34.1748 292H11.1748V315H34.1748V292Z" fill="#5BAD92"/>
</svg>
