<svg width="46" height="315" viewBox="0 0 46 315" fill="none" xmlns="http://www.w3.org/2000/svg">
<path d="M22.9458 25.3407V30.0078L12.8941 34.3892L32.9974 43.1522L12.8941 51.9151L32.9974 60.678L12.8941 69.441L32.9974 78.2039L12.8941 86.9668L32.9974 95.7298L12.8941 104.493L32.9974 113.256L12.8941 122.019L32.9974 130.781L22.9458 135.163V139.83" stroke="#CBCBCB" stroke-width="5.00001" stroke-linecap="square"/>
<path d="M22.9458 189.352V193.444L12.8941 197.286L32.9974 204.969L12.8941 212.653L32.9974 220.336L12.8941 228.019L32.9974 235.702L12.8941 243.386L32.9974 251.069L12.8941 258.752L32.9974 266.436L12.8941 274.119L32.9974 281.802L22.9458 285.644V289.736" stroke="#CBCBCB" stroke-width="5.00001" stroke-linecap="square"/>
<path d="M45.4152 164.5C45.4152 170.467 43.0447 176.19 38.8251 180.41C34.6055 184.629 28.8826 187 22.9152 187C16.9478 187 11.2249 184.629 7.00529 180.41C2.78572 176.19 0.415192 170.467 0.415192 164.5C0.415192 158.533 2.78572 152.81 7.00529 148.59C11.2249 144.371 16.9478 142 22.9152 142C28.8826 142 34.6055 144.371 38.8251 148.59C43.0447 152.81 45.4152 158.533 45.4152 164.5Z" fill="#5BAD92"/>
<path d="M31.8481 147.154C31.6186 147.219 31.4245 147.373 31.3086 147.582C31.1927 147.79 31.1644 148.037 31.23 148.266C31.2956 148.496 31.4496 148.69 31.6583 148.806C32.189 149.1 32.6996 149.419 33.1894 149.76C33.6792 150.101 34.1484 150.463 34.5959 150.846C35.0434 151.229 35.4695 151.631 35.8733 152.052C36.277 152.473 36.6586 152.911 37.0171 153.366C37.3756 153.821 37.7109 154.293 38.0225 154.778C38.3341 155.263 38.6217 155.763 38.8848 156.274C39.1479 156.786 39.3865 157.31 39.5995 157.844C39.8125 158.378 39.9998 158.922 40.1611 159.474C40.3224 160.026 40.4575 160.587 40.5655 161.153C40.6734 161.72 40.7542 162.292 40.8073 162.869C40.8604 163.446 40.8857 164.027 40.8824 164.61C40.8791 165.194 40.8473 165.779 40.786 166.365C40.7247 166.95 40.6341 167.536 40.5132 168.12C40.3923 168.705 40.2413 169.287 40.0592 169.867C39.8772 170.446 39.664 171.022 39.419 171.592C39.174 172.162 38.903 172.713 38.6082 173.244C38.3134 173.775 37.9946 174.285 37.654 174.775C37.3133 175.265 36.9508 175.734 36.5682 176.181C36.5682 176.181 36.5682 176.182 36.5682 176.182C36.1856 176.629 35.7829 177.055 35.3621 177.459C34.9414 177.863 34.5025 178.244 34.0476 178.603C33.5926 178.961 33.1215 179.297 32.6362 179.608C32.1509 179.92 31.6514 180.208 31.1398 180.471C30.6283 180.734 30.1045 180.973 29.5706 181.186C29.0367 181.399 28.4927 181.586 27.9405 181.748C27.3883 181.909 26.8279 182.044 26.2614 182.152C25.6949 182.26 25.1223 182.341 24.5455 182.394C23.9687 182.447 23.3878 182.472 22.8047 182.469C22.2215 182.466 21.6361 182.434 21.0505 182.372C20.4649 182.311 19.879 182.22 19.2948 182.1C18.7105 181.979 18.1279 181.828 17.5488 181.646C17.4361 181.61 17.3174 181.597 17.1997 181.608C17.082 181.618 16.9674 181.652 16.8626 181.706C16.7578 181.761 16.6648 181.836 16.5889 181.926C16.513 182.017 16.4557 182.122 16.4203 182.234C16.3848 182.347 16.3719 182.466 16.3823 182.583C16.3927 182.701 16.4262 182.816 16.4809 182.92C16.5355 183.025 16.6103 183.118 16.7009 183.194C16.7915 183.27 16.8962 183.327 17.0089 183.363C17.6458 183.563 18.2869 183.729 18.93 183.862C19.5732 183.995 20.2184 184.095 20.8631 184.163C21.5079 184.23 22.1525 184.265 22.7945 184.269C23.4364 184.273 24.0758 184.245 24.7105 184.186C25.3452 184.128 25.9753 184.039 26.5984 183.92C27.2216 183.801 27.8379 183.653 28.4452 183.475C29.0524 183.298 29.6506 183.092 30.2376 182.857C30.8247 182.623 31.4006 182.361 31.9632 182.072C32.5258 181.782 33.0751 181.466 33.6089 181.123C34.1426 180.78 34.6608 180.411 35.1615 180.017C35.6622 179.622 36.1453 179.202 36.6085 178.758C37.0717 178.313 37.515 177.844 37.9363 177.351C38.3577 176.858 38.7568 176.342 39.1318 175.803C39.5067 175.264 39.8575 174.702 40.1817 174.118C40.5059 173.534 40.8036 172.929 41.0726 172.302C41.3417 171.676 41.5759 171.043 41.7762 170.406C41.9764 169.77 42.1427 169.128 42.2758 168.485C42.4088 167.842 42.5086 167.197 42.5761 166.552C42.5761 166.552 42.5761 166.552 42.5761 166.552C42.6435 165.907 42.6787 165.262 42.6824 164.62C42.686 163.978 42.6582 163.339 42.5998 162.704C42.5413 162.069 42.4523 161.439 42.3336 160.816C42.2148 160.193 42.0665 159.577 41.8891 158.97C41.7118 158.362 41.5054 157.764 41.2713 157.177C41.0371 156.59 40.7751 156.014 40.4858 155.451C40.1964 154.889 39.88 154.339 39.5373 153.805C39.1945 153.272 38.8253 152.753 38.4309 152.253C38.0364 151.752 37.6164 151.269 37.1719 150.806C36.7274 150.342 36.2584 149.899 35.7656 149.478C35.2729 149.056 34.7564 148.657 34.2172 148.282C33.678 147.907 33.116 147.556 32.5324 147.232C32.3237 147.116 32.0776 147.088 31.8481 147.154V147.154Z" fill="#FCFAF2"/>
<path d="M23.0359 144.731C22.3939 144.728 21.7546 144.756 21.1198 144.814C20.4851 144.872 19.8551 144.961 19.2319 145.08C18.6088 145.199 17.9924 145.348 17.3852 145.525C16.7779 145.702 16.1798 145.909 15.5927 146.143C15.0057 146.377 14.4297 146.639 13.8671 146.928C13.3046 147.218 12.7553 147.534 12.2215 147.877C11.6877 148.22 11.1695 148.589 10.6689 148.983C10.1682 149.378 9.68504 149.798 9.22186 150.243C8.75867 150.687 8.3153 151.156 7.894 151.649C7.4727 152.142 7.07355 152.658 6.69858 153.197C6.3236 153.737 5.97287 154.299 5.64865 154.883C5.32444 155.466 5.02677 156.072 4.75773 156.698C4.48869 157.324 4.25442 157.957 4.05416 158.594C3.85391 159.231 3.6876 159.872 3.55456 160.515C3.42151 161.158 3.32175 161.803 3.25426 162.448C3.18678 163.093 3.15161 163.738 3.14796 164.38C3.14431 165.022 3.17213 165.661 3.23057 166.296C3.289 166.931 3.378 167.561 3.49676 168.184C3.61551 168.807 3.76389 169.424 3.94122 170.031C4.11855 170.638 4.32491 171.236 4.55908 171.823C4.79326 172.41 5.05528 172.986 5.34459 173.549C5.63391 174.112 5.95034 174.661 6.29309 175.195C6.63584 175.729 7.005 176.247 7.39949 176.748C7.79398 177.248 8.21395 177.731 8.65847 178.195C9.10298 178.658 9.57196 179.101 10.0647 179.522C10.5575 179.944 11.074 180.343 11.6131 180.718C12.1523 181.093 12.7143 181.444 13.298 181.768C13.5066 181.884 13.7528 181.912 13.9823 181.847C14.2118 181.781 14.4058 181.627 14.5218 181.418C14.6377 181.21 14.6659 180.964 14.6004 180.734C14.5348 180.505 14.3807 180.311 14.1721 180.195C13.6414 179.9 13.1307 179.581 12.6409 179.24C12.1511 178.9 11.682 178.537 11.2345 178.155C10.7869 177.772 10.3609 177.369 9.95709 176.948C9.55331 176.528 9.17176 176.089 8.81327 175.634C8.45478 175.179 8.11945 174.707 7.80785 174.222C7.49626 173.737 7.20859 173.237 6.9455 172.726C6.68241 172.214 6.44384 171.69 6.23086 171.157C6.01788 170.623 5.83051 170.078 5.66925 169.526C5.50798 168.974 5.37283 168.414 5.26487 167.847C5.1569 167.281 5.07613 166.708 5.02304 166.131C4.96994 165.554 4.94465 164.973 4.94796 164.39C4.95128 163.807 4.983 163.221 5.0443 162.636C5.10559 162.05 5.19627 161.464 5.31713 160.88C5.43799 160.296 5.58903 159.713 5.77112 159.134C5.9532 158.554 6.16652 157.979 6.41157 157.408C6.65661 156.838 6.92731 156.287 7.2221 155.756C7.51689 155.226 7.83571 154.715 8.17636 154.225C8.51701 153.735 8.87952 153.266 9.26216 152.819C9.64479 152.371 10.0475 151.945 10.4682 151.541C10.889 151.137 11.3278 150.756 11.7828 150.397C12.2378 150.039 12.7089 149.703 13.1941 149.392C13.6794 149.08 14.1789 148.792 14.6905 148.529C15.2021 148.266 15.7259 148.028 16.2597 147.815C16.7937 147.602 17.3377 147.414 17.8899 147.253C18.4421 147.091 19.0025 146.956 19.569 146.848C20.1355 146.74 20.708 146.66 21.2848 146.606C21.8616 146.553 22.4426 146.528 23.0257 146.531C23.6088 146.535 24.1942 146.566 24.7799 146.628C25.3655 146.689 25.9513 146.78 26.5356 146.901C27.1198 147.021 27.7024 147.172 28.2815 147.355C28.3943 147.39 28.5129 147.403 28.6306 147.393C28.7484 147.382 28.8629 147.349 28.9677 147.294C29.0725 147.239 29.1655 147.165 29.2414 147.074C29.3173 146.983 29.3746 146.879 29.4101 146.766C29.4455 146.653 29.4584 146.535 29.448 146.417C29.4376 146.299 29.4042 146.185 29.3495 146.08C29.2948 145.975 29.2201 145.882 29.1295 145.806C29.0389 145.73 28.9342 145.673 28.8214 145.637C28.1845 145.437 27.5434 145.271 26.9003 145.138C26.2572 145.005 25.612 144.905 24.9672 144.838C24.3224 144.77 23.6779 144.735 23.0359 144.731Z" fill="#FCFAF2"/>
<path d="M29.9699 147.096L24.3514 148.559L25.8898 142.973L29.9699 147.096Z" fill="#F9AEA5"/>
<path d="M25.9299 142.546C25.8294 142.537 25.7287 142.563 25.6457 142.62C25.5626 142.678 25.5024 142.762 25.4756 142.859L23.9373 148.445C23.9173 148.518 23.9169 148.595 23.9359 148.667C23.955 148.74 23.9929 148.807 24.0459 148.86C24.0988 148.914 24.165 148.952 24.2377 148.972C24.3104 148.992 24.3871 148.993 24.46 148.974L30.0785 147.511C30.1514 147.492 30.2181 147.454 30.2717 147.401C30.3254 147.349 30.3641 147.283 30.3841 147.21C30.4041 147.138 30.4045 147.061 30.3855 146.988C30.3664 146.915 30.3285 146.849 30.2756 146.795L26.1953 142.672C26.1244 142.6 26.0304 142.556 25.9299 142.546ZM26.1069 143.802L29.1415 146.869L24.9627 147.957L26.1069 143.802Z" fill="#FCFAF2"/>
<path d="M15.8604 181.904L21.4789 180.441L19.9406 186.027L15.8604 181.904Z" fill="#F9AEA5"/>
<path d="M21.5487 180.018C21.4893 180.009 21.4285 180.011 21.3703 180.026L15.7518 181.489C15.6789 181.508 15.6122 181.546 15.5586 181.599C15.505 181.652 15.4662 181.718 15.4462 181.79C15.4262 181.863 15.4258 181.939 15.4448 182.012C15.4639 182.085 15.5018 182.151 15.5547 182.205L19.635 186.328C19.6879 186.382 19.7541 186.42 19.8268 186.44C19.8995 186.46 19.9762 186.461 20.0491 186.442C20.122 186.423 20.1887 186.385 20.2423 186.332C20.2959 186.279 20.3347 186.213 20.3547 186.141L21.893 180.555C21.9089 180.497 21.9125 180.436 21.9034 180.377C21.8944 180.317 21.8729 180.261 21.8405 180.21C21.808 180.16 21.7653 180.116 21.715 180.083C21.6648 180.05 21.6081 180.028 21.5487 180.018ZM20.8676 181.043L19.7234 185.198L16.6888 182.131L20.8676 181.043Z" fill="#FCFAF2"/>
<path d="M22.9152 178.196H25.5986V171.753H31.192V169.28H25.5663V166.807H31.192V164.333H27.0373L33.6007 152.759H27.7163L22.9151 162.442L22.9152 178.196ZM22.9149 178.196H20.2315V171.753H14.6382V169.28H20.2639V166.807H14.6382V164.333H18.7928L12.2295 152.759H18.1138L22.9151 162.442" fill="#FCFAF2"/>
<path d="M34.4787 0H11.4787V23H34.4787V0Z" fill="#5BAD92"/>
<path d="M34.4787 292H11.4787V315H34.4787V292Z" fill="#5BAD92"/>
</svg>
