<svg width="98" height="49" viewBox="0 0 98 49" fill="none" xmlns="http://www.w3.org/2000/svg">
<rect x="17" y="8" width="60" height="32" rx="5" fill="#CFCFCF"/>
<rect x="69" y="17" width="10" height="13" rx="1" fill="#CFCFCF"/>
<rect x="22" y="13" width="50" height="22" rx="1" fill="#FCFAF2"/>
<rect x="22" y="13" width="20" height="22" rx="1" fill="#5BAD92"/>
<path d="M87.9966 38.9946L88.3021 34.0179L96.771 35.7164L85.4569 29.2245L85.0116 33.6188L76.1782 31.851L87.9966 38.9946Z" fill="#FFE694"/>
<path d="M88.6185 13.3499L85.3381 9.5949L92.5562 4.85096L79.9451 8.18477L82.7168 11.6236L75.1907 16.5745L88.6185 13.3499Z" fill="#FFE694"/>
<path d="M7.55432 35.438L11.359 38.6607L4.93066 44.4299L16.9021 39.2492L13.6477 36.2631L20.3497 30.2433L7.55432 35.438Z" fill="#FFE694"/>
<path d="M11.499 6.50468L9.29721 10.9783L2.13912 6.1442L10.073 16.4983L12.179 12.616L19.6467 17.6546L11.499 6.50468Z" fill="#FFE694"/>
</svg>
