<svg width="46" height="315" viewBox="0 0 46 315" fill="none" xmlns="http://www.w3.org/2000/svg">
<path d="M23.1195 25.0301V30.5649L13.0678 35.7611L33.1712 46.1534L13.0678 56.5458L33.1712 66.9381L13.0678 77.3304L33.1712 87.7227L13.0678 98.1151L33.1712 108.507L13.0678 118.9L33.1712 129.292L13.0678 139.684L33.1712 150.077L23.1195 155.273V160.808" stroke="#CBCBCB" stroke-width="5.00002" stroke-linecap="square"/>
<path d="M23.1195 210.398V213.632L13.0678 216.668L33.1712 222.741L13.0678 228.813L33.1712 234.886L13.0678 240.958L33.1712 247.031L13.0678 253.103L33.1712 259.176L13.0678 265.248L33.1712 271.321L13.0678 277.393L33.1712 283.466L23.1195 286.502V289.736" stroke="#CBCBCB" stroke-width="5.00001" stroke-linecap="square"/>
<path d="M45.589 185.5C45.589 191.467 43.2184 197.19 38.9989 201.41C34.7793 205.629 29.0563 208 23.089 208C17.1216 208 11.3986 205.629 7.17906 201.41C2.95949 197.19 0.588959 191.467 0.588959 185.5C0.588959 179.533 2.95949 173.81 7.17906 169.59C11.3986 165.371 17.1216 163 23.089 163C29.0563 163 34.7793 165.371 38.9989 169.59C43.2184 173.81 45.589 179.533 45.589 185.5Z" fill="#5BAD92"/>
<path d="M32.0218 168.154C31.7923 168.219 31.5983 168.373 31.4824 168.582C31.3665 168.79 31.3382 169.037 31.4038 169.266C31.4693 169.496 31.6234 169.69 31.8321 169.806C32.3627 170.1 32.8734 170.419 33.3632 170.76C33.853 171.101 34.3221 171.463 34.7697 171.846C35.2172 172.229 35.6433 172.631 36.047 173.052C36.4508 173.473 36.8324 173.911 37.1909 174.366C37.5493 174.821 37.8847 175.293 38.1963 175.778C38.5079 176.263 38.7955 176.763 39.0586 177.274C39.3217 177.786 39.5603 178.31 39.7733 178.844C39.9862 179.378 40.1736 179.922 40.3349 180.474C40.4961 181.026 40.6313 181.587 40.7393 182.153C40.8472 182.72 40.928 183.292 40.9811 183.869C41.0342 184.446 41.0595 185.027 41.0562 185.61C41.0528 186.194 41.0211 186.779 40.9598 187.365C40.8985 187.95 40.8079 188.536 40.687 189.12C40.5661 189.705 40.4151 190.287 40.233 190.867C40.0509 191.446 39.8378 192.022 39.5928 192.592C39.3477 193.162 39.0768 193.713 38.782 194.244C38.4872 194.775 38.1684 195.285 37.8278 195.775C37.4871 196.265 37.1246 196.734 36.742 197.181C36.742 197.181 36.742 197.182 36.742 197.182C36.3593 197.629 35.9567 198.055 35.5359 198.459C35.1152 198.863 34.6763 199.244 34.2213 199.603C33.7664 199.961 33.2953 200.297 32.81 200.608C32.3247 200.92 31.8252 201.208 31.3136 201.471C30.802 201.734 30.2783 201.973 29.7444 202.186C29.2105 202.399 28.6664 202.586 28.1142 202.748C27.562 202.909 27.0016 203.044 26.4352 203.152C25.8687 203.26 25.2961 203.341 24.7193 203.394C24.1425 203.447 23.5616 203.472 22.9784 203.469C22.3953 203.466 21.8099 203.434 21.2243 203.372C20.6386 203.311 20.0528 203.22 19.4686 203.1C18.8843 202.979 18.3017 202.828 17.7226 202.646C17.6099 202.61 17.4912 202.597 17.3735 202.608C17.2557 202.618 17.1412 202.652 17.0364 202.706C16.9316 202.761 16.8386 202.836 16.7627 202.926C16.6868 203.017 16.6295 203.122 16.5941 203.234C16.5586 203.347 16.5457 203.466 16.5561 203.583C16.5665 203.701 16.6 203.816 16.6546 203.92C16.7093 204.025 16.7841 204.118 16.8747 204.194C16.9653 204.27 17.0699 204.327 17.1827 204.363C17.8196 204.563 18.4607 204.729 19.1038 204.862C19.747 204.995 20.3921 205.095 21.0369 205.163C21.6817 205.23 22.3263 205.265 22.9682 205.269C23.6102 205.273 24.2496 205.245 24.8843 205.186C25.519 205.128 26.1491 205.039 26.7722 204.92C27.3954 204.801 28.0117 204.653 28.6189 204.475C29.2262 204.298 29.8244 204.092 30.4114 203.857C30.9985 203.623 31.5744 203.361 32.137 203.072C32.6996 202.782 33.2488 202.466 33.7826 202.123C34.3164 201.78 34.8346 201.411 35.3353 201.017C35.8359 200.622 36.3191 200.202 36.7823 199.758C37.2455 199.313 37.6888 198.844 38.1101 198.351C38.5314 197.858 38.9306 197.342 39.3055 196.803C39.6805 196.264 40.0313 195.702 40.3555 195.118C40.6797 194.534 40.9774 193.929 41.2464 193.302C41.5154 192.676 41.7497 192.043 41.95 191.406C42.1502 190.77 42.3165 190.128 42.4496 189.485C42.5826 188.842 42.6824 188.197 42.7499 187.552C42.7499 187.552 42.7499 187.552 42.7499 187.552C42.8173 186.907 42.8525 186.262 42.8562 185.62C42.8598 184.978 42.832 184.339 42.7736 183.704C42.7151 183.069 42.6261 182.439 42.5074 181.816C42.3886 181.193 42.2402 180.577 42.0629 179.97C41.8856 179.362 41.6792 178.764 41.445 178.177C41.2109 177.59 40.9489 177.014 40.6595 176.451C40.3702 175.889 40.0538 175.339 39.711 174.805C39.3683 174.272 38.9991 173.753 38.6046 173.253C38.2101 172.752 37.7902 172.269 37.3457 171.806C36.9011 171.342 36.4322 170.899 35.9394 170.478C35.4466 170.056 34.9302 169.657 34.391 169.282C33.8518 168.907 33.2898 168.556 32.7061 168.232C32.4975 168.116 32.2513 168.088 32.0218 168.154V168.154Z" fill="#FCFAF2"/>
<path d="M23.2096 165.731C22.5677 165.728 21.9283 165.756 21.2936 165.814C20.6589 165.872 20.0288 165.961 19.4057 166.08C18.7825 166.199 18.1662 166.348 17.559 166.525C16.9517 166.702 16.3535 166.909 15.7665 167.143C15.1794 167.377 14.6035 167.639 14.0409 167.928C13.4783 168.218 12.929 168.534 12.3953 168.877C11.8615 169.22 11.3433 169.589 10.8426 169.983C10.3419 170.378 9.85881 170.798 9.39562 171.243C8.93243 171.687 8.48907 172.156 8.06777 172.649C7.64647 173.142 7.24732 173.658 6.87234 174.197C6.49737 174.737 6.14663 175.299 5.82242 175.883C5.4982 176.466 5.20054 177.072 4.9315 177.698C4.66245 178.324 4.42819 178.957 4.22793 179.594C4.02767 180.231 3.86137 180.872 3.72832 181.515C3.59528 182.158 3.49552 182.803 3.42803 183.448C3.36054 184.093 3.32538 184.738 3.32173 185.38C3.31808 186.022 3.3459 186.661 3.40433 187.296C3.46276 187.931 3.55177 188.561 3.67052 189.184C3.78928 189.807 3.93765 190.424 4.11499 191.031C4.29232 191.638 4.49867 192.236 4.73285 192.823C4.96703 193.41 5.22904 193.986 5.51836 194.549C5.80767 195.112 6.12411 195.661 6.46686 196.195C6.80961 196.729 7.17877 197.247 7.57326 197.748C7.96774 198.248 8.38772 198.731 8.83224 199.195C9.27674 199.658 9.74573 200.101 10.2385 200.522C10.7312 200.944 11.2477 201.343 11.7869 201.718C12.3261 202.093 12.8881 202.444 13.4718 202.768C13.6804 202.884 13.9266 202.912 14.1561 202.847C14.3856 202.781 14.5796 202.627 14.6955 202.418C14.8114 202.21 14.8397 201.964 14.7741 201.734C14.7085 201.505 14.5545 201.311 14.3458 201.195C13.8151 200.9 13.3045 200.581 12.8147 200.24C12.3249 199.9 11.8558 199.537 11.4082 199.155C10.9607 198.772 10.5346 198.369 10.1309 197.948C9.72708 197.528 9.34552 197.089 8.98703 196.634C8.62855 196.179 8.29321 195.707 7.98162 195.222C7.67002 194.737 7.38236 194.237 7.11927 193.726C6.85617 193.214 6.6176 192.69 6.40463 192.157C6.19165 191.623 6.00427 191.078 5.84301 190.526C5.68175 189.974 5.5466 189.414 5.43863 188.847C5.33067 188.281 5.2499 187.708 5.1968 187.131C5.1437 186.554 5.11841 185.973 5.12173 185.39C5.12505 184.807 5.15677 184.221 5.21806 183.636C5.27936 183.05 5.37003 182.464 5.4909 181.88C5.61176 181.296 5.7628 180.713 5.94488 180.134C6.12697 179.554 6.34029 178.979 6.58534 178.408C6.83038 177.838 7.10108 177.287 7.39587 176.756C7.69066 176.226 8.00948 175.715 8.35012 175.225C8.69077 174.735 9.05329 174.266 9.43593 173.819C9.81856 173.371 10.2212 172.945 10.642 172.541C11.0627 172.137 11.5016 171.756 11.9565 171.397C12.4115 171.039 12.8826 170.703 13.3679 170.392C13.8532 170.08 14.3527 169.792 14.8643 169.529C15.3759 169.266 15.8996 169.028 16.4335 168.815C16.9674 168.602 17.5115 168.414 18.0637 168.253C18.6159 168.091 19.1763 167.956 19.7427 167.848C20.3092 167.74 20.8818 167.66 21.4586 167.606C22.0354 167.553 22.6163 167.528 23.1995 167.531C23.7826 167.535 24.368 167.566 24.9536 167.628C25.5392 167.689 26.1251 167.78 26.7093 167.901C27.2936 168.021 27.8762 168.172 28.4553 168.355C28.568 168.39 28.6867 168.403 28.8044 168.393C28.9221 168.382 29.0367 168.349 29.1415 168.294C29.2463 168.239 29.3393 168.165 29.4152 168.074C29.4911 167.983 29.5484 167.879 29.5838 167.766C29.6193 167.653 29.6322 167.535 29.6218 167.417C29.6114 167.299 29.5779 167.185 29.5233 167.08C29.4686 166.975 29.3938 166.882 29.3032 166.806C29.2126 166.73 29.108 166.673 28.9952 166.637C28.3583 166.437 27.7172 166.271 27.0741 166.138C26.4309 166.005 25.7858 165.905 25.141 165.838C24.4962 165.77 23.8516 165.735 23.2096 165.731Z" fill="#FCFAF2"/>
<path d="M30.1437 168.096L24.5252 169.559L26.0636 163.973L30.1437 168.096Z" fill="#F9AEA5"/>
<path d="M26.1037 163.546C26.0031 163.537 25.9025 163.563 25.8194 163.62C25.7364 163.678 25.6762 163.762 25.6494 163.859L24.111 169.445C24.0911 169.518 24.0906 169.595 24.1097 169.667C24.1287 169.74 24.1667 169.807 24.2196 169.86C24.2726 169.914 24.3388 169.952 24.4115 169.972C24.4842 169.992 24.5608 169.993 24.6338 169.974L30.2522 168.511C30.3252 168.492 30.3918 168.454 30.4455 168.401C30.4991 168.349 30.5379 168.283 30.5578 168.21C30.5778 168.138 30.5783 168.061 30.5592 167.988C30.5402 167.915 30.5023 167.849 30.4493 167.795L26.3691 163.672C26.2982 163.6 26.2042 163.556 26.1037 163.546ZM26.2806 164.802L29.3153 167.869L25.1365 168.957L26.2806 164.802Z" fill="#FCFAF2"/>
<path d="M16.0342 202.904L21.6527 201.441L20.1143 207.027L16.0342 202.904Z" fill="#F9AEA5"/>
<path d="M21.7225 201.018C21.6631 201.009 21.6023 201.011 21.5441 201.026L15.9256 202.489C15.8527 202.508 15.786 202.546 15.7324 202.599C15.6787 202.652 15.64 202.718 15.62 202.79C15.6 202.863 15.5995 202.939 15.6186 203.012C15.6376 203.085 15.6756 203.151 15.7285 203.205L19.8087 207.328C19.8617 207.382 19.9279 207.42 20.0006 207.44C20.0733 207.46 20.1499 207.461 20.2229 207.442C20.2958 207.423 20.3624 207.385 20.4161 207.332C20.4697 207.279 20.5085 207.213 20.5285 207.141L22.0668 201.555C22.0827 201.497 22.0863 201.436 22.0772 201.377C22.0682 201.317 22.0467 201.261 22.0143 201.21C21.9818 201.16 21.9391 201.116 21.8888 201.083C21.8385 201.05 21.7819 201.028 21.7225 201.018ZM21.0414 202.043L19.8972 206.198L16.8625 203.131L21.0414 202.043Z" fill="#FCFAF2"/>
<path d="M23.089 199.196H25.7724V192.753H31.3657V190.28H25.74V187.807H31.3657V185.333H27.2111L33.7744 173.759H27.8901L23.0888 183.442L23.089 199.196ZM23.0887 199.196H20.4053V192.753H14.8119V190.28H20.4376V187.807H14.8119V185.333H18.9666L12.4032 173.759H18.2876L23.0888 183.442" fill="#FCFAF2"/>
<path d="M34.6524 0H11.6524V23H34.6524V0Z" fill="#5BAD92"/>
<path d="M34.6524 292H11.6524V315H34.6524V292Z" fill="#5BAD92"/>
</svg>
