<svg width="46" height="315" viewBox="0 0 46 315" fill="none" xmlns="http://www.w3.org/2000/svg">
<path d="M23.4671 24.4858V31.7591L13.4154 38.5872L33.5187 52.2435L13.4154 65.8998L33.5187 79.556L13.4154 93.2123L33.5187 106.869L13.4154 120.525L33.5187 134.181L13.4154 147.837L33.5187 161.494L13.4154 175.15L33.5187 188.806L23.4671 195.634V202.908" stroke="#CBCBCB" stroke-width="5.00001" stroke-linecap="square"/>
<path d="M20.9676 249.529V250.92V251.485L3.92853 254.075L24.032 257.131L3.92853 260.187L24.032 263.243L3.92853 266.299L24.032 269.355L3.92853 272.411L24.032 275.466L3.92853 278.522L24.032 281.578L3.92853 284.634L24.032 287.689L20.9676 288.155V290.845V292.236H25.9676V290.845V290.28L43.0067 287.689L22.9031 284.634L43.0067 281.578L22.9031 278.522L43.0067 275.466L22.9051 272.411L43.0067 269.355L22.9031 266.3L43.0067 263.243L22.9031 260.187L43.0067 257.131L22.9031 254.076L25.9676 253.61V250.92V249.529H20.9676Z" fill="#CBCBCB"/>
<path d="M45.9365 227.5C45.9365 233.467 43.566 239.19 39.3464 243.41C35.1269 247.629 29.4039 250 23.4365 250C17.4692 250 11.7462 247.629 7.52662 243.41C3.30705 239.19 0.936523 233.467 0.936523 227.5C0.936523 221.533 3.30705 215.81 7.52662 211.59C11.7462 207.371 17.4692 205 23.4365 205C29.4039 205 35.1269 207.371 39.3464 211.59C43.566 215.81 45.9365 221.533 45.9365 227.5Z" fill="#5BAD92"/>
<path d="M32.3694 210.154C32.1399 210.219 31.9458 210.373 31.8299 210.582C31.714 210.79 31.6857 211.037 31.7513 211.266C31.8169 211.496 31.9709 211.69 32.1796 211.806C32.7103 212.1 33.2209 212.419 33.7107 212.76C34.2005 213.101 34.6697 213.463 35.1172 213.846C35.5647 214.229 35.9908 214.631 36.3946 215.052C36.7984 215.473 37.1799 215.911 37.5384 216.366C37.8969 216.821 38.2322 217.293 38.5438 217.778C38.8554 218.263 39.1431 218.763 39.4062 219.274C39.6693 219.786 39.9078 220.31 40.1208 220.844C40.3338 221.378 40.5212 221.922 40.6824 222.474C40.8437 223.026 40.9788 223.587 41.0868 224.153C41.1948 224.72 41.2755 225.292 41.3286 225.869C41.3817 226.446 41.407 227.027 41.4037 227.61C41.4004 228.194 41.3686 228.779 41.3074 229.365C41.2461 229.95 41.1554 230.536 41.0345 231.12C40.9137 231.705 40.7626 232.287 40.5805 232.867C40.3985 233.446 40.1854 234.022 39.9403 234.592C39.6953 235.162 39.4244 235.713 39.1296 236.244C38.8348 236.775 38.516 237.285 38.1753 237.775C37.8346 238.265 37.4721 238.734 37.0895 239.181C37.0895 239.181 37.0895 239.182 37.0895 239.182C36.7069 239.629 36.3042 240.055 35.8834 240.459C35.4627 240.863 35.0239 241.244 34.5689 241.603C34.1139 241.961 33.6428 242.297 33.1575 242.608C32.6723 242.92 32.1727 243.208 31.6612 243.471C31.1496 243.734 30.6258 243.973 30.0919 244.186C29.558 244.399 29.014 244.586 28.4618 244.748C27.9096 244.909 27.3492 245.044 26.7827 245.152C26.2162 245.26 25.6436 245.341 25.0668 245.394C24.49 245.447 23.9091 245.472 23.326 245.469C22.7428 245.466 22.1574 245.434 21.5718 245.372C20.9862 245.311 20.4003 245.22 19.8161 245.1C19.2319 244.979 18.6493 244.828 18.0701 244.646C17.9574 244.61 17.8388 244.597 17.721 244.608C17.6033 244.618 17.4887 244.652 17.3839 244.706C17.2792 244.761 17.1862 244.836 17.1103 244.926C17.0344 245.017 16.977 245.122 16.9416 245.234C16.9061 245.347 16.8932 245.466 16.9036 245.583C16.914 245.701 16.9475 245.816 17.0022 245.92C17.0568 246.025 17.1316 246.118 17.2222 246.194C17.3128 246.27 17.4175 246.327 17.5302 246.363C18.1672 246.563 18.8082 246.729 19.4514 246.862C20.0945 246.995 20.7397 247.095 21.3845 247.163C22.0292 247.23 22.6738 247.265 23.3158 247.269C23.9578 247.273 24.5971 247.245 25.2318 247.186C25.8666 247.128 26.4966 247.039 27.1197 246.92C27.7429 246.801 28.3592 246.653 28.9665 246.475C29.5737 246.298 30.1719 246.092 30.7589 245.857C31.346 245.623 31.922 245.361 32.4845 245.072C33.0471 244.782 33.5964 244.466 34.1302 244.123C34.664 243.78 35.1821 243.411 35.6828 243.017C36.1835 242.622 36.6666 242.202 37.1298 241.758C37.593 241.313 38.0364 240.844 38.4577 240.351C38.879 239.858 39.2781 239.342 39.6531 238.803C40.0281 238.264 40.3788 237.702 40.703 237.118C41.0272 236.534 41.3249 235.929 41.5939 235.302C41.863 234.676 42.0972 234.043 42.2975 233.406C42.4978 232.77 42.6641 232.128 42.7971 231.485C42.9302 230.842 43.0299 230.197 43.0974 229.552C43.0974 229.552 43.0974 229.552 43.0974 229.552C43.1649 228.907 43.2 228.262 43.2037 227.62C43.2073 226.978 43.1795 226.339 43.1211 225.704C43.0627 225.069 42.9737 224.439 42.8549 223.816C42.7362 223.193 42.5878 222.577 42.4104 221.97C42.2331 221.362 42.0268 220.764 41.7926 220.177C41.5584 219.59 41.2964 219.014 41.0071 218.451C40.7178 217.889 40.4013 217.339 40.0586 216.805C39.7158 216.272 39.3467 215.753 38.9522 215.253C38.5577 214.752 38.1377 214.269 37.6932 213.806C37.2487 213.342 36.7797 212.899 36.2869 212.478C35.7942 212.056 35.2777 211.657 34.7385 211.282C34.1993 210.907 33.6373 210.556 33.0537 210.232C32.845 210.116 32.5989 210.088 32.3694 210.154V210.154Z" fill="#FCFAF2"/>
<path d="M23.5572 207.731C22.9152 207.728 22.2759 207.756 21.6411 207.814C21.0064 207.872 20.3764 207.961 19.7532 208.08C19.1301 208.199 18.5137 208.348 17.9065 208.525C17.2992 208.702 16.7011 208.909 16.114 209.143C15.527 209.377 14.951 209.639 14.3884 209.928C13.8259 210.218 13.2766 210.534 12.7428 210.877C12.209 211.22 11.6908 211.589 11.1902 211.983C10.6895 212.378 10.2063 212.798 9.74316 213.243C9.27997 213.687 8.8366 214.156 8.4153 214.649C7.994 215.142 7.59485 215.658 7.21988 216.197C6.8449 216.737 6.49417 217.299 6.16995 217.883C5.84574 218.466 5.54808 219.072 5.27903 219.698C5.00999 220.324 4.77572 220.957 4.57546 221.594C4.37521 222.231 4.2089 222.872 4.07586 223.515C3.94281 224.158 3.84305 224.803 3.77556 225.448C3.70808 226.093 3.67291 226.738 3.66926 227.38C3.66561 228.022 3.69343 228.661 3.75187 229.296C3.8103 229.931 3.8993 230.561 4.01806 231.184C4.13681 231.807 4.28519 232.424 4.46252 233.031C4.63985 233.638 4.84621 234.236 5.08039 234.823C5.31456 235.41 5.57658 235.986 5.86589 236.549C6.15521 237.112 6.47164 237.661 6.81439 238.195C7.15714 238.729 7.5263 239.247 7.92079 239.748C8.31528 240.248 8.73525 240.731 9.17977 241.195C9.62428 241.658 10.0933 242.101 10.586 242.522C11.0788 242.944 11.5953 243.343 12.1344 243.718C12.6736 244.093 13.2356 244.444 13.8193 244.768C14.0279 244.884 14.2741 244.912 14.5036 244.847C14.7331 244.781 14.9271 244.627 15.0431 244.418C15.159 244.21 15.1872 243.964 15.1217 243.734C15.0561 243.505 14.902 243.311 14.6934 243.195C14.1627 242.9 13.652 242.581 13.1622 242.24C12.6724 241.9 12.2033 241.537 11.7558 241.155C11.3082 240.772 10.8822 240.369 10.4784 239.948C10.0746 239.528 9.69306 239.089 9.33457 238.634C8.97608 238.179 8.64075 237.707 8.32916 237.222C8.01756 236.737 7.72989 236.237 7.4668 235.726C7.20371 235.214 6.96514 234.69 6.75216 234.157C6.53918 233.623 6.35181 233.078 6.19055 232.526C6.02929 231.974 5.89413 231.414 5.78617 230.847C5.67821 230.281 5.59744 229.708 5.54434 229.131C5.49124 228.554 5.46595 227.973 5.46926 227.39C5.47258 226.807 5.50431 226.221 5.5656 225.636C5.62689 225.05 5.71757 224.464 5.83843 223.88C5.9593 223.296 6.11033 222.713 6.29242 222.134C6.4745 221.554 6.68783 220.979 6.93287 220.408C7.17791 219.838 7.44861 219.287 7.7434 218.756C8.03819 218.226 8.35701 217.715 8.69766 217.225C9.03831 216.735 9.40083 216.266 9.78346 215.819C10.1661 215.371 10.5688 214.945 10.9895 214.541C11.4103 214.137 11.8491 213.756 12.3041 213.397C12.7591 213.039 13.2302 212.703 13.7154 212.392C14.2007 212.08 14.7002 211.792 15.2118 211.529C15.7234 211.266 16.2472 211.028 16.781 210.815C17.315 210.602 17.859 210.414 18.4112 210.253C18.9634 210.091 19.5238 209.956 20.0903 209.848C20.6568 209.74 21.2293 209.66 21.8061 209.606C22.3829 209.553 22.9639 209.528 23.547 209.531C24.1301 209.535 24.7155 209.566 25.3012 209.628C25.8868 209.689 26.4726 209.78 27.0569 209.901C27.6411 210.021 28.2237 210.172 28.8028 210.355C28.9156 210.39 29.0342 210.403 29.1519 210.393C29.2697 210.382 29.3842 210.349 29.489 210.294C29.5938 210.239 29.6868 210.165 29.7627 210.074C29.8386 209.983 29.8959 209.879 29.9314 209.766C29.9668 209.653 29.9797 209.535 29.9693 209.417C29.9589 209.299 29.9255 209.185 29.8708 209.08C29.8161 208.975 29.7414 208.882 29.6508 208.806C29.5602 208.73 29.4555 208.673 29.3427 208.637C28.7058 208.437 28.0647 208.271 27.4216 208.138C26.7785 208.005 26.1333 207.905 25.4885 207.838C24.8437 207.77 24.1992 207.735 23.5572 207.731Z" fill="#FCFAF2"/>
<path d="M30.4912 210.096L24.8728 211.559L26.4111 205.973L30.4912 210.096Z" fill="#F9AEA5"/>
<path d="M26.4512 205.546C26.3507 205.537 26.2501 205.563 26.167 205.62C26.0839 205.678 26.0237 205.762 25.997 205.859L24.4586 211.445C24.4387 211.518 24.4382 211.595 24.4572 211.667C24.4763 211.74 24.5142 211.807 24.5672 211.86C24.6202 211.914 24.6863 211.952 24.759 211.972C24.8317 211.992 24.9084 211.993 24.9813 211.974L30.5998 210.511C30.6727 210.492 30.7394 210.454 30.793 210.401C30.8467 210.349 30.8854 210.283 30.9054 210.21C30.9254 210.138 30.9259 210.061 30.9068 209.988C30.8878 209.915 30.8498 209.849 30.7969 209.795L26.7167 205.672C26.6457 205.6 26.5517 205.556 26.4512 205.546ZM26.6282 206.802L29.6629 209.869L25.484 210.957L26.6282 206.802Z" fill="#FCFAF2"/>
<path d="M16.3818 244.904L22.0002 243.441L20.4619 249.027L16.3818 244.904Z" fill="#F9AEA5"/>
<path d="M22.0701 243.018C22.0107 243.009 21.9499 243.011 21.8916 243.026L16.2732 244.489C16.2002 244.508 16.1336 244.546 16.0799 244.599C16.0263 244.652 15.9875 244.718 15.9676 244.79C15.9476 244.863 15.9471 244.939 15.9662 245.012C15.9852 245.085 16.0231 245.151 16.0761 245.205L20.1563 249.328C20.2093 249.382 20.2754 249.42 20.3481 249.44C20.4208 249.46 20.4975 249.461 20.5704 249.442C20.6434 249.423 20.71 249.385 20.7636 249.332C20.8173 249.279 20.856 249.213 20.876 249.141L22.4144 243.555C22.4303 243.497 22.4338 243.436 22.4248 243.377C22.4157 243.317 22.3943 243.261 22.3618 243.21C22.3294 243.16 22.2866 243.116 22.2364 243.083C22.1861 243.05 22.1295 243.028 22.0701 243.018ZM21.389 244.043L20.2448 248.198L17.2101 245.131L21.389 244.043Z" fill="#FCFAF2"/>
<path d="M23.4365 241.196H26.1199V234.753H31.7133V232.28H26.0876V229.807H31.7133V227.333H27.5587L34.122 215.759H28.2376L23.4364 225.442L23.4365 241.196ZM23.4363 241.196H20.7529V234.753H15.1595V232.28H20.7852V229.807H15.1595V227.333H19.3141L12.7508 215.759H18.6352L23.4364 225.442" fill="#FCFAF2"/>
<path d="M35 0H12V23H35V0Z" fill="#5BAD92"/>
<path d="M35 292H12V315H35V292Z" fill="#5BAD92"/>
</svg>
