<svg width="46" height="315" viewBox="0 0 46 315" fill="none" xmlns="http://www.w3.org/2000/svg">
<path d="M22.7283 25.1337V30.3788L12.6766 35.3029L32.7799 45.1512L12.6766 54.9995L32.7799 64.8478L12.6766 74.6961L32.7799 84.5444L12.6766 94.3927L32.7799 104.241L12.6766 114.089L32.7799 123.938L12.6766 133.786L32.7799 143.634L22.7283 148.558V153.803" stroke="#CBCBCB" stroke-width="5.00001" stroke-linecap="square"/>
<path d="M22.7283 203.18V206.708L12.6766 210.021L32.7799 216.646L12.6766 223.271L32.7799 229.896L12.6766 236.52L32.7799 243.145L12.6766 249.77L32.7799 256.395L12.6766 263.02L32.7799 269.645L12.6766 276.27L32.7799 282.895L22.7283 286.208V289.736" stroke="#CBCBCB" stroke-width="5.00001" stroke-linecap="square"/>
<path d="M45.1977 178.5C45.1977 184.467 42.8272 190.19 38.6076 194.41C34.3881 198.629 28.6651 201 22.6977 201C16.7304 201 11.0074 198.629 6.78782 194.41C2.56825 190.19 0.197723 184.467 0.197723 178.5C0.197723 172.533 2.56825 166.81 6.78782 162.59C11.0074 158.371 16.7304 156 22.6977 156C28.6651 156 34.3881 158.371 38.6076 162.59C42.8272 166.81 45.1977 172.533 45.1977 178.5Z" fill="#5BAD92"/>
<path d="M31.6306 161.154C31.4011 161.219 31.207 161.373 31.0911 161.582C30.9752 161.79 30.9469 162.037 31.0125 162.266C31.0781 162.496 31.2322 162.69 31.4408 162.806C31.9715 163.1 32.4821 163.419 32.972 163.76C33.4618 164.101 33.9309 164.463 34.3784 164.846C34.826 165.229 35.252 165.631 35.6558 166.052C36.0596 166.473 36.4411 166.911 36.7996 167.366C37.1581 167.821 37.4934 168.293 37.805 168.778C38.1166 169.263 38.4043 169.763 38.6674 170.274C38.9305 170.786 39.169 171.31 39.382 171.844C39.595 172.378 39.7824 172.922 39.9436 173.474C40.1049 174.026 40.2401 174.587 40.348 175.153C40.456 175.72 40.5367 176.292 40.5898 176.869C40.6429 177.446 40.6682 178.027 40.6649 178.61C40.6616 179.194 40.6299 179.779 40.5686 180.365C40.5073 180.95 40.4166 181.536 40.2957 182.12C40.1749 182.705 40.0238 183.287 39.8418 183.867C39.6597 184.446 39.4466 185.022 39.2015 185.592C38.9565 186.162 38.6856 186.713 38.3908 187.244C38.096 187.775 37.7772 188.285 37.4365 188.775C37.0959 189.265 36.7333 189.734 36.3507 190.181C36.3507 190.181 36.3507 190.182 36.3507 190.182C35.9681 190.629 35.5654 191.055 35.1447 191.459C34.7239 191.863 34.2851 192.244 33.8301 192.603C33.3751 192.961 32.904 193.297 32.4188 193.608C31.9335 193.92 31.434 194.208 30.9224 194.471C30.4108 194.734 29.887 194.973 29.3531 195.186C28.8192 195.399 28.2752 195.586 27.723 195.748C27.1708 195.909 26.6104 196.044 26.0439 196.152C25.4774 196.26 24.9048 196.341 24.3281 196.394C23.7513 196.447 23.1703 196.472 22.5872 196.469C22.004 196.466 21.4187 196.434 20.833 196.372C20.2474 196.311 19.6615 196.22 19.0773 196.1C18.4931 195.979 17.9105 195.828 17.3314 195.646C17.2186 195.61 17.1 195.597 16.9822 195.608C16.8645 195.618 16.75 195.652 16.6452 195.706C16.5404 195.761 16.4474 195.836 16.3715 195.926C16.2956 196.017 16.2383 196.122 16.2028 196.234C16.1674 196.347 16.1545 196.466 16.1648 196.583C16.1752 196.701 16.2087 196.816 16.2634 196.92C16.318 197.025 16.3928 197.118 16.4834 197.194C16.574 197.27 16.6787 197.327 16.7914 197.363C17.4284 197.563 18.0694 197.729 18.7126 197.862C19.3557 197.995 20.0009 198.095 20.6457 198.163C21.2904 198.23 21.935 198.265 22.577 198.269C23.219 198.273 23.8583 198.245 24.493 198.186C25.1278 198.128 25.7578 198.039 26.381 197.92C27.0041 197.801 27.6204 197.653 28.2277 197.475C28.8349 197.298 29.4331 197.092 30.0202 196.857C30.6072 196.623 31.1832 196.361 31.7457 196.072C32.3083 195.782 32.8576 195.466 33.3914 195.123C33.9252 194.78 34.4433 194.411 34.944 194.017C35.4447 193.622 35.9278 193.202 36.391 192.758C36.8542 192.313 37.2976 191.844 37.7189 191.351C38.1402 190.858 38.5393 190.342 38.9143 189.803C39.2893 189.264 39.64 188.702 39.9642 188.118C40.2884 187.534 40.5861 186.929 40.8551 186.302C41.1242 185.676 41.3585 185.043 41.5587 184.406C41.759 183.77 41.9253 183.128 42.0583 182.485C42.1914 181.842 42.2911 181.197 42.3586 180.552C42.3586 180.552 42.3586 180.552 42.3586 180.552C42.4261 179.907 42.4613 179.262 42.4649 178.62C42.4686 177.978 42.4407 177.339 42.3823 176.704C42.3239 176.069 42.2349 175.439 42.1161 174.816C41.9974 174.193 41.849 173.577 41.6717 172.97C41.4943 172.362 41.288 171.764 41.0538 171.177C40.8196 170.59 40.5576 170.014 40.2683 169.451C39.979 168.889 39.6625 168.339 39.3198 167.805C38.977 167.272 38.6079 166.753 38.2134 166.253C37.8189 165.752 37.3989 165.269 36.9544 164.806C36.5099 164.342 36.0409 163.899 35.5482 163.478C35.0554 163.056 34.5389 162.657 33.9997 162.282C33.4606 161.907 32.8986 161.556 32.3149 161.232C32.1062 161.116 31.8601 161.088 31.6306 161.154V161.154Z" fill="#FCFAF2"/>
<path d="M22.8184 158.731C22.1765 158.728 21.5371 158.756 20.9024 158.814C20.2676 158.872 19.6376 158.961 19.0145 159.08C18.3913 159.199 17.775 159.348 17.1677 159.525C16.5605 159.702 15.9623 159.909 15.3753 160.143C14.7882 160.377 14.2122 160.639 13.6497 160.928C13.0871 161.218 12.5378 161.534 12.004 161.877C11.4702 162.22 10.9521 162.589 10.4514 162.983C9.95071 163.378 9.46758 163.798 9.00439 164.243C8.5412 164.687 8.09783 165.156 7.67653 165.649C7.25523 166.142 6.85608 166.658 6.48111 167.197C6.10613 167.737 5.7554 168.299 5.43118 168.883C5.10697 169.466 4.80931 170.072 4.54026 170.698C4.27122 171.324 4.03695 171.957 3.83669 172.594C3.63644 173.231 3.47013 173.872 3.33709 174.515C3.20405 175.158 3.10428 175.803 3.03679 176.448C2.96931 177.093 2.93415 177.738 2.93049 178.38C2.92684 179.022 2.95467 179.661 3.0131 180.296C3.07153 180.931 3.16053 181.561 3.27929 182.184C3.39804 182.807 3.54642 183.424 3.72375 184.031C3.90108 184.638 4.10744 185.236 4.34162 185.823C4.57579 186.41 4.83781 186.986 5.12712 187.549C5.41644 188.112 5.73287 188.661 6.07562 189.195C6.41837 189.729 6.78753 190.247 7.18202 190.748C7.57651 191.248 7.99649 191.731 8.441 192.195C8.88551 192.658 9.35449 193.101 9.84725 193.522C10.34 193.944 10.8565 194.343 11.3957 194.718C11.9348 195.093 12.4968 195.444 13.0805 195.768C13.2892 195.884 13.5353 195.912 13.7648 195.847C13.9943 195.781 14.1884 195.627 14.3043 195.418C14.4202 195.21 14.4485 194.964 14.3829 194.734C14.3173 194.505 14.1633 194.311 13.9546 194.195C13.4239 193.9 12.9133 193.581 12.4235 193.24C11.9336 192.9 11.4645 192.537 11.017 192.155C10.5694 191.772 10.1434 191.369 9.73962 190.948C9.33584 190.528 8.95429 190.089 8.5958 189.634C8.23732 189.179 7.90198 188.707 7.59039 188.222C7.27879 187.737 6.99112 187.237 6.72803 186.726C6.46494 186.214 6.22637 185.69 6.01339 185.157C5.80041 184.623 5.61304 184.078 5.45178 183.526C5.29052 182.974 5.15536 182.414 5.0474 181.847C4.93944 181.281 4.85867 180.708 4.80557 180.131C4.75247 179.554 4.72718 178.973 4.73049 178.39C4.73381 177.807 4.76554 177.221 4.82683 176.636C4.88812 176.05 4.9788 175.464 5.09966 174.88C5.22053 174.296 5.37156 173.713 5.55365 173.134C5.73573 172.554 5.94906 171.979 6.1941 171.408C6.43914 170.838 6.70984 170.287 7.00463 169.756C7.29942 169.226 7.61824 168.715 7.95889 168.225C8.29954 167.735 8.66206 167.266 9.04469 166.819C9.42733 166.371 9.82999 165.945 10.2507 165.541C10.6715 165.137 11.1103 164.756 11.5653 164.397C12.0203 164.039 12.4914 163.703 12.9767 163.392C13.4619 163.08 13.9615 162.792 14.473 162.529C14.9846 162.266 15.5084 162.028 16.0423 161.815C16.5762 161.602 17.1202 161.414 17.6724 161.253C18.2246 161.091 18.785 160.956 19.3515 160.848C19.918 160.74 20.4906 160.66 21.0674 160.606C21.6441 160.553 22.2251 160.528 22.8082 160.531C23.3914 160.535 23.9768 160.566 24.5624 160.628C25.148 160.689 25.7339 160.78 26.3181 160.901C26.9023 161.021 27.4849 161.172 28.0641 161.355C28.1768 161.39 28.2954 161.403 28.4132 161.393C28.5309 161.382 28.6455 161.349 28.7502 161.294C28.855 161.239 28.948 161.165 29.0239 161.074C29.0998 160.983 29.1572 160.879 29.1926 160.766C29.2281 160.653 29.241 160.535 29.2306 160.417C29.2202 160.299 29.1867 160.185 29.132 160.08C29.0774 159.975 29.0026 159.882 28.912 159.806C28.8214 159.73 28.7167 159.673 28.604 159.637C27.967 159.437 27.326 159.271 26.6828 159.138C26.0397 159.005 25.3945 158.905 24.7497 158.838C24.1049 158.77 23.4604 158.735 22.8184 158.731Z" fill="#FCFAF2"/>
<path d="M29.7524 161.096L24.134 162.559L25.6723 156.973L29.7524 161.096Z" fill="#F9AEA5"/>
<path d="M25.7124 156.546C25.6119 156.537 25.5113 156.563 25.4282 156.62C25.3451 156.678 25.2849 156.762 25.2582 156.859L23.7198 162.445C23.6999 162.518 23.6994 162.595 23.7184 162.667C23.7375 162.74 23.7754 162.807 23.8284 162.86C23.8814 162.914 23.9475 162.952 24.0202 162.972C24.0929 162.992 24.1696 162.993 24.2425 162.974L29.861 161.511C29.9339 161.492 30.0006 161.454 30.0542 161.401C30.1079 161.349 30.1466 161.283 30.1666 161.21C30.1866 161.138 30.1871 161.061 30.168 160.988C30.149 160.915 30.111 160.849 30.0581 160.795L25.9779 156.672C25.9069 156.6 25.8129 156.556 25.7124 156.546ZM25.8894 157.802L28.9241 160.869L24.7452 161.957L25.8894 157.802Z" fill="#FCFAF2"/>
<path d="M15.643 195.904L21.2614 194.441L19.7231 200.027L15.643 195.904Z" fill="#F9AEA5"/>
<path d="M21.3313 194.018C21.2719 194.009 21.2111 194.011 21.1528 194.026L15.5344 195.489C15.4614 195.508 15.3948 195.546 15.3411 195.599C15.2875 195.652 15.2487 195.718 15.2288 195.79C15.2088 195.863 15.2083 195.939 15.2273 196.012C15.2464 196.085 15.2843 196.151 15.3373 196.205L19.4175 200.328C19.4705 200.382 19.5366 200.42 19.6093 200.44C19.682 200.46 19.7587 200.461 19.8316 200.442C19.9045 200.423 19.9712 200.385 20.0248 200.332C20.0785 200.279 20.1172 200.213 20.1372 200.141L21.6756 194.555C21.6915 194.497 21.695 194.436 21.686 194.377C21.6769 194.317 21.6555 194.261 21.623 194.21C21.5905 194.16 21.5478 194.116 21.4975 194.083C21.4473 194.05 21.3906 194.028 21.3313 194.018ZM20.6501 195.043L19.506 199.198L16.4713 196.131L20.6501 195.043Z" fill="#FCFAF2"/>
<path d="M22.6977 192.196H25.3811V185.753H30.9745V183.28H25.3488V180.807H30.9745V178.333H26.8199L33.3832 166.759H27.4988L22.6976 176.442L22.6977 192.196ZM22.6975 192.196H20.0141V185.753H14.4207V183.28H20.0464V180.807H14.4207V178.333H18.5753L12.012 166.759H17.8964L22.6976 176.442" fill="#FCFAF2"/>
<path d="M34.2612 0H11.2612V23H34.2612V0Z" fill="#5BAD92"/>
<path d="M34.2612 292H11.2612V315H34.2612V292Z" fill="#5BAD92"/>
</svg>
