<svg width="46" height="315" viewBox="0 0 46 315" fill="none" xmlns="http://www.w3.org/2000/svg">
<path d="M23.5108 24.927V30.765L13.4591 36.2458L33.5624 47.2074L13.4591 58.169L33.5624 69.1306L13.4591 80.0921L33.5624 91.0537L13.4591 102.015L33.5624 112.977L13.4591 123.938L33.5624 134.9L13.4591 145.862L33.5624 156.823L23.5108 162.304V168.142" stroke="#CBCBCB" stroke-width="5.00001" stroke-linecap="square"/>
<path d="M23.5108 217.221V220.177L13.4591 222.953L33.5624 228.503L13.4591 234.053L33.5624 239.603L13.4591 245.153L33.5624 250.704L13.4591 256.254L33.5624 261.804L13.4591 267.354L33.5624 272.904L13.4591 278.455L33.5624 284.005L23.5108 286.78V289.736" stroke="#CBCBCB" stroke-width="5.00001" stroke-linecap="square"/>
<path d="M45.9802 192.5C45.9802 198.467 43.6097 204.19 39.3901 208.41C35.1705 212.629 29.4476 215 23.4802 215C17.5128 215 11.7899 212.629 7.57029 208.41C3.35072 204.19 0.980194 198.467 0.980194 192.5C0.980194 186.533 3.35072 180.81 7.57029 176.59C11.7899 172.371 17.5128 170 23.4802 170C29.4476 170 35.1705 172.371 39.3901 176.59C43.6097 180.81 45.9802 186.533 45.9802 192.5Z" fill="#5BAD92"/>
<path d="M32.4131 175.154C32.1836 175.219 31.9895 175.373 31.8736 175.582C31.7577 175.79 31.7294 176.037 31.795 176.266C31.8606 176.496 32.0146 176.69 32.2233 176.806C32.754 177.1 33.2646 177.419 33.7544 177.76C34.2442 178.101 34.7134 178.463 35.1609 178.846C35.6084 179.229 36.0345 179.631 36.4383 180.052C36.8421 180.473 37.2236 180.911 37.5821 181.366C37.9406 181.821 38.2759 182.293 38.5875 182.778C38.8991 183.263 39.1868 183.763 39.4499 184.274C39.713 184.786 39.9515 185.31 40.1645 185.844C40.3775 186.378 40.5649 186.922 40.7261 187.474C40.8874 188.026 41.0225 188.587 41.1305 189.153C41.2385 189.72 41.3192 190.292 41.3723 190.869C41.4254 191.446 41.4507 192.027 41.4474 192.61C41.4441 193.194 41.4123 193.779 41.3511 194.365C41.2898 194.95 41.1991 195.536 41.0782 196.12C40.9574 196.705 40.8063 197.287 40.6242 197.867C40.4422 198.446 40.2291 199.022 39.984 199.592C39.739 200.162 39.4681 200.713 39.1733 201.244C38.8785 201.775 38.5597 202.285 38.219 202.775C37.8783 203.265 37.5158 203.734 37.1332 204.181C37.1332 204.181 37.1332 204.182 37.1332 204.182C36.7506 204.629 36.3479 205.055 35.9271 205.459C35.5064 205.863 35.0676 206.244 34.6126 206.603C34.1576 206.961 33.6865 207.297 33.2012 207.608C32.716 207.92 32.2164 208.208 31.7049 208.471C31.1933 208.734 30.6695 208.973 30.1356 209.186C29.6017 209.399 29.0577 209.586 28.5055 209.748C27.9533 209.909 27.3929 210.044 26.8264 210.152C26.2599 210.26 25.6873 210.341 25.1105 210.394C24.5337 210.447 23.9528 210.472 23.3697 210.469C22.7865 210.466 22.2011 210.434 21.6155 210.372C21.0299 210.311 20.444 210.22 19.8598 210.1C19.2756 209.979 18.693 209.828 18.1138 209.646C18.0011 209.61 17.8825 209.597 17.7647 209.608C17.647 209.618 17.5324 209.652 17.4276 209.706C17.3229 209.761 17.2299 209.836 17.154 209.926C17.0781 210.017 17.0207 210.122 16.9853 210.234C16.9498 210.347 16.9369 210.466 16.9473 210.583C16.9577 210.701 16.9912 210.816 17.0459 210.92C17.1005 211.025 17.1753 211.118 17.2659 211.194C17.3565 211.27 17.4612 211.327 17.5739 211.363C18.2109 211.563 18.8519 211.729 19.4951 211.862C20.1382 211.995 20.7834 212.095 21.4282 212.163C22.0729 212.23 22.7175 212.265 23.3595 212.269C24.0015 212.273 24.6408 212.245 25.2755 212.186C25.9103 212.128 26.5403 212.039 27.1634 211.92C27.7866 211.801 28.4029 211.653 29.0102 211.475C29.6174 211.298 30.2156 211.092 30.8026 210.857C31.3897 210.623 31.9657 210.361 32.5282 210.072C33.0908 209.782 33.6401 209.466 34.1739 209.123C34.7077 208.78 35.2258 208.411 35.7265 208.017C36.2272 207.622 36.7103 207.202 37.1735 206.758C37.6367 206.313 38.0801 205.844 38.5014 205.351C38.9227 204.858 39.3218 204.342 39.6968 203.803C40.0718 203.264 40.4225 202.702 40.7467 202.118C41.0709 201.534 41.3686 200.929 41.6376 200.302C41.9067 199.676 42.1409 199.043 42.3412 198.406C42.5415 197.77 42.7078 197.128 42.8408 196.485C42.9739 195.842 43.0736 195.197 43.1411 194.552C43.1411 194.552 43.1411 194.552 43.1411 194.552C43.2086 193.907 43.2437 193.262 43.2474 192.62C43.2511 191.978 43.2232 191.339 43.1648 190.704C43.1064 190.069 43.0174 189.439 42.8986 188.816C42.7799 188.193 42.6315 187.577 42.4541 186.97C42.2768 186.362 42.0705 185.764 41.8363 185.177C41.6021 184.59 41.3401 184.014 41.0508 183.451C40.7615 182.889 40.445 182.339 40.1023 181.805C39.7595 181.272 39.3904 180.753 38.9959 180.253C38.6014 179.752 38.1814 179.269 37.7369 178.806C37.2924 178.342 36.8234 177.899 36.3306 177.478C35.8379 177.056 35.3214 176.657 34.7822 176.282C34.243 175.907 33.681 175.556 33.0974 175.232C32.8887 175.116 32.6426 175.088 32.4131 175.154V175.154Z" fill="#FCFAF2"/>
<path d="M23.6009 172.731C22.9589 172.728 22.3196 172.756 21.6848 172.814C21.0501 172.872 20.4201 172.961 19.7969 173.08C19.1738 173.199 18.5574 173.348 17.9502 173.525C17.3429 173.702 16.7448 173.909 16.1577 174.143C15.5707 174.377 14.9947 174.639 14.4321 174.928C13.8696 175.218 13.3203 175.534 12.7865 175.877C12.2527 176.22 11.7345 176.589 11.2339 176.983C10.7332 177.378 10.25 177.798 9.78686 178.243C9.32367 178.687 8.8803 179.156 8.459 179.649C8.0377 180.142 7.63855 180.658 7.26358 181.197C6.88861 181.737 6.53787 182.299 6.21365 182.883C5.88944 183.466 5.59178 184.072 5.32273 184.698C5.05369 185.324 4.81942 185.957 4.61917 186.594C4.41891 187.231 4.2526 187.872 4.11956 188.515C3.98652 189.158 3.88675 189.803 3.81926 190.448C3.75178 191.093 3.71662 191.738 3.71296 192.38C3.70931 193.022 3.73714 193.661 3.79557 194.296C3.854 194.931 3.943 195.561 4.06176 196.184C4.18052 196.807 4.32889 197.424 4.50622 198.031C4.68355 198.638 4.88991 199.236 5.12409 199.823C5.35826 200.41 5.62028 200.986 5.90959 201.549C6.19891 202.112 6.51534 202.661 6.85809 203.195C7.20084 203.729 7.57 204.247 7.96449 204.748C8.35898 205.248 8.77896 205.731 9.22347 206.195C9.66798 206.658 10.137 207.101 10.6297 207.522C11.1225 207.944 11.639 208.343 12.1781 208.718C12.7173 209.093 13.2793 209.444 13.863 209.768C14.0716 209.884 14.3178 209.912 14.5473 209.847C14.7768 209.781 14.9708 209.627 15.0868 209.418C15.2027 209.21 15.2309 208.964 15.1654 208.734C15.0998 208.505 14.9457 208.311 14.7371 208.195C14.2064 207.9 13.6957 207.581 13.2059 207.24C12.7161 206.9 12.247 206.537 11.7995 206.155C11.3519 205.772 10.9259 205.369 10.5221 204.948C10.1183 204.528 9.73676 204.089 9.37827 203.634C9.01979 203.179 8.68445 202.707 8.37286 202.222C8.06126 201.737 7.77359 201.237 7.5105 200.726C7.24741 200.214 7.00884 199.69 6.79586 199.157C6.58288 198.623 6.39551 198.078 6.23425 197.526C6.07299 196.974 5.93783 196.414 5.82987 195.847C5.72191 195.281 5.64114 194.708 5.58804 194.131C5.53494 193.554 5.50965 192.973 5.51296 192.39C5.51628 191.807 5.54801 191.221 5.6093 190.636C5.67059 190.05 5.76127 189.464 5.88213 188.88C6.003 188.296 6.15404 187.713 6.33612 187.134C6.5182 186.554 6.73153 185.979 6.97657 185.408C7.22161 184.838 7.49231 184.287 7.7871 183.756C8.08189 183.226 8.40071 182.715 8.74136 182.225C9.08201 181.735 9.44453 181.266 9.82716 180.819C10.2098 180.371 10.6125 179.945 11.0332 179.541C11.454 179.137 11.8928 178.756 12.3478 178.397C12.8028 178.039 13.2739 177.703 13.7591 177.392C14.2444 177.08 14.7439 176.792 15.2555 176.529C15.7671 176.266 16.2909 176.028 16.8248 175.815C17.3587 175.602 17.9027 175.414 18.4549 175.253C19.0071 175.091 19.5675 174.956 20.134 174.848C20.7005 174.74 21.273 174.66 21.8498 174.606C22.4266 174.553 23.0076 174.528 23.5907 174.531C24.1738 174.535 24.7592 174.566 25.3449 174.628C25.9305 174.689 26.5163 174.78 27.1006 174.901C27.6848 175.021 28.2674 175.172 28.8465 175.355C28.9593 175.39 29.0779 175.403 29.1956 175.393C29.3134 175.382 29.4279 175.349 29.5327 175.294C29.6375 175.239 29.7305 175.165 29.8064 175.074C29.8823 174.983 29.9396 174.879 29.9751 174.766C30.0105 174.653 30.0234 174.535 30.013 174.417C30.0026 174.299 29.9692 174.185 29.9145 174.08C29.8598 173.975 29.7851 173.882 29.6945 173.806C29.6039 173.73 29.4992 173.673 29.3864 173.637C28.7495 173.437 28.1084 173.271 27.4653 173.138C26.8222 173.005 26.177 172.905 25.5322 172.838C24.8874 172.77 24.2429 172.735 23.6009 172.731Z" fill="#FCFAF2"/>
<path d="M30.5349 175.096L24.9165 176.559L26.4548 170.973L30.5349 175.096Z" fill="#F9AEA5"/>
<path d="M26.4949 170.546C26.3944 170.537 26.2937 170.563 26.2107 170.62C26.1276 170.678 26.0674 170.762 26.0406 170.859L24.5023 176.445C24.4823 176.518 24.4819 176.595 24.5009 176.667C24.52 176.74 24.5579 176.807 24.6109 176.86C24.6638 176.914 24.73 176.952 24.8027 176.972C24.8754 176.992 24.9521 176.993 25.025 176.974L30.6435 175.511C30.7164 175.492 30.7831 175.454 30.8367 175.401C30.8903 175.349 30.9291 175.283 30.9491 175.21C30.969 175.138 30.9695 175.061 30.9505 174.988C30.9314 174.915 30.8935 174.849 30.8406 174.795L26.7603 170.672C26.6894 170.6 26.5954 170.556 26.4949 170.546ZM26.6719 171.802L29.7065 174.869L25.5277 175.957L26.6719 171.802Z" fill="#FCFAF2"/>
<path d="M16.4254 209.904L22.0439 208.441L20.5056 214.027L16.4254 209.904Z" fill="#F9AEA5"/>
<path d="M22.1138 208.018C22.0544 208.009 21.9936 208.011 21.9353 208.026L16.3168 209.489C16.2439 209.508 16.1773 209.546 16.1236 209.599C16.07 209.652 16.0312 209.718 16.0112 209.79C15.9913 209.863 15.9908 209.939 16.0098 210.012C16.0289 210.085 16.0668 210.151 16.1198 210.205L20.2 214.328C20.253 214.382 20.3191 214.42 20.3918 214.44C20.4645 214.46 20.5412 214.461 20.6141 214.442C20.687 214.423 20.7537 214.385 20.8073 214.332C20.861 214.279 20.8997 214.213 20.9197 214.141L22.458 208.555C22.474 208.497 22.4775 208.436 22.4685 208.377C22.4594 208.317 22.438 208.261 22.4055 208.21C22.373 208.16 22.3303 208.116 22.28 208.083C22.2298 208.05 22.1731 208.028 22.1138 208.018ZM21.4326 209.043L20.2884 213.198L17.2538 210.131L21.4326 209.043Z" fill="#FCFAF2"/>
<path d="M23.4802 206.196H26.1636V199.753H31.757V197.28H26.1313V194.807H31.757V192.333H27.6024L34.1657 180.759H28.2813L23.4801 190.442L23.4802 206.196ZM23.48 206.196H20.7965V199.753H15.2032V197.28H20.8289V194.807H15.2032V192.333H19.3578L12.7945 180.759H18.6788L23.4801 190.442" fill="#FCFAF2"/>
<path d="M35.0437 0H12.0437V23H35.0437V0Z" fill="#5BAD92"/>
<path d="M35.0437 292H12.0437V315H35.0437V292Z" fill="#5BAD92"/>
</svg>
