<svg width="46" height="315" viewBox="0 0 46 315" fill="none" xmlns="http://www.w3.org/2000/svg">
<path d="M22.6846 24.6372V31.3273L12.6329 37.608L32.7362 50.1694L12.6329 62.7308L32.7362 75.2922L12.6329 87.8536L32.7362 100.415L12.6329 112.976L32.7362 125.538L12.6329 138.099L32.7362 150.661L12.6329 163.222L32.7362 175.783L22.6846 182.064V188.754" stroke="#CBCBCB" stroke-width="5" stroke-linecap="square"/>
<path d="M20.1851 235.68V237.593V238.267L2.78271 241.761L22.8823 245.796L2.78271 249.832L22.8862 253.868L2.78271 257.904L22.8823 261.941L2.78271 265.976L22.8862 270.012L2.78271 274.048L22.8823 278.083L2.78271 282.119L22.8862 286.156L20.1851 286.698V290.324V292.236H25.1851V290.324V289.65L42.5874 286.156L22.4839 282.119L42.5874 278.085L22.4819 274.048L42.5874 270.012L22.4819 265.976L42.5874 261.939L22.4839 257.904L42.5874 253.868L22.4819 249.832L42.5874 245.796L22.4839 241.761L25.1851 241.218V237.593V235.68H20.1851Z" fill="#CBCBCB"/>
<path d="M45.154 213.5C45.154 219.467 42.7835 225.19 38.5639 229.41C34.3443 233.629 28.6214 236 22.654 236C16.6866 236 10.9637 233.629 6.74409 229.41C2.52452 225.19 0.153992 219.467 0.153992 213.5C0.153992 207.533 2.52452 201.81 6.74409 197.59C10.9637 193.371 16.6866 191 22.654 191C28.6214 191 34.3443 193.371 38.5639 197.59C42.7835 201.81 45.154 207.533 45.154 213.5Z" fill="#5BAD92"/>
<path d="M31.5869 196.154C31.3574 196.219 31.1633 196.373 31.0474 196.582C30.9315 196.79 30.9032 197.037 30.9688 197.266C31.0344 197.496 31.1884 197.69 31.3971 197.806C31.9278 198.1 32.4384 198.419 32.9282 198.76C33.418 199.101 33.8872 199.463 34.3347 199.846C34.7822 200.229 35.2083 200.631 35.6121 201.052C36.0159 201.473 36.3974 201.911 36.7559 202.366C37.1144 202.821 37.4497 203.293 37.7613 203.778C38.0729 204.263 38.3606 204.763 38.6237 205.274C38.8868 205.786 39.1253 206.31 39.3383 206.844C39.5513 207.378 39.7387 207.922 39.8999 208.474C40.0612 209.026 40.1963 209.587 40.3043 210.153C40.4123 210.72 40.493 211.292 40.5461 211.869C40.5992 212.446 40.6245 213.027 40.6212 213.61C40.6179 214.194 40.5861 214.779 40.5249 215.365C40.4636 215.95 40.3729 216.536 40.252 217.12C40.1312 217.705 39.9801 218.287 39.798 218.867C39.616 219.446 39.4029 220.022 39.1578 220.592C38.9128 221.162 38.6419 221.713 38.3471 222.244C38.0523 222.775 37.7334 223.285 37.3928 223.775C37.0521 224.265 36.6896 224.734 36.307 225.181C36.307 225.181 36.307 225.182 36.307 225.182C35.9244 225.629 35.5217 226.055 35.1009 226.459C34.6802 226.863 34.2414 227.244 33.7864 227.603C33.3314 227.961 32.8603 228.297 32.375 228.608C31.8898 228.92 31.3902 229.208 30.8787 229.471C30.3671 229.734 29.8433 229.973 29.3094 230.186C28.7755 230.399 28.2315 230.586 27.6793 230.748C27.1271 230.909 26.5667 231.044 26.0002 231.152C25.4337 231.26 24.8611 231.341 24.2843 231.394C23.7075 231.447 23.1266 231.472 22.5435 231.469C21.9603 231.466 21.3749 231.434 20.7893 231.372C20.2037 231.311 19.6178 231.22 19.0336 231.1C18.4494 230.979 17.8668 230.828 17.2876 230.646C17.1749 230.61 17.0563 230.597 16.9385 230.608C16.8208 230.618 16.7062 230.652 16.6014 230.706C16.4967 230.761 16.4036 230.836 16.3277 230.926C16.2518 231.017 16.1945 231.122 16.1591 231.234C16.1236 231.347 16.1107 231.466 16.1211 231.583C16.1315 231.701 16.165 231.816 16.2197 231.92C16.2743 232.025 16.3491 232.118 16.4397 232.194C16.5303 232.27 16.635 232.327 16.7477 232.363C17.3847 232.563 18.0257 232.729 18.6689 232.862C19.312 232.995 19.9572 233.095 20.602 233.163C21.2467 233.23 21.8913 233.265 22.5333 233.269C23.1752 233.273 23.8146 233.245 24.4493 233.186C25.0841 233.128 25.7141 233.039 26.3372 232.92C26.9604 232.801 27.5767 232.653 28.184 232.475C28.7912 232.298 29.3894 232.092 29.9764 231.857C30.5635 231.623 31.1395 231.361 31.702 231.072C32.2646 230.782 32.8139 230.466 33.3477 230.123C33.8815 229.78 34.3996 229.411 34.9003 229.017C35.401 228.622 35.8841 228.202 36.3473 227.758C36.8105 227.313 37.2539 226.844 37.6752 226.351C38.0965 225.858 38.4956 225.342 38.8706 224.803C39.2456 224.264 39.5963 223.702 39.9205 223.118C40.2447 222.534 40.5424 221.929 40.8114 221.302C41.0805 220.676 41.3147 220.043 41.515 219.406C41.7153 218.77 41.8816 218.128 42.0146 217.485C42.1477 216.842 42.2474 216.197 42.3149 215.552C42.3149 215.552 42.3149 215.552 42.3149 215.552C42.3824 214.907 42.4175 214.262 42.4212 213.62C42.4248 212.978 42.397 212.339 42.3386 211.704C42.2802 211.069 42.1912 210.439 42.0724 209.816C41.9537 209.193 41.8053 208.577 41.6279 207.97C41.4506 207.362 41.2443 206.764 41.0101 206.177C40.7759 205.59 40.5139 205.014 40.2246 204.451C39.9353 203.889 39.6188 203.339 39.2761 202.805C38.9333 202.272 38.5642 201.753 38.1697 201.253C37.7752 200.752 37.3552 200.269 36.9107 199.806C36.4662 199.342 35.9972 198.899 35.5044 198.478C35.0117 198.056 34.4952 197.657 33.956 197.282C33.4168 196.907 32.8548 196.556 32.2712 196.232C32.0625 196.116 31.8164 196.088 31.5869 196.154V196.154Z" fill="#FCFAF2"/>
<path d="M22.7747 193.731C22.1327 193.728 21.4933 193.756 20.8586 193.814C20.2239 193.872 19.5938 193.961 18.9707 194.08C18.3475 194.199 17.7312 194.348 17.124 194.525C16.5167 194.702 15.9185 194.909 15.3315 195.143C14.7444 195.377 14.1685 195.639 13.6059 195.928C13.0433 196.218 12.494 196.534 11.9603 196.877C11.4265 197.22 10.9083 197.589 10.4076 197.983C9.90695 198.378 9.42381 198.798 8.96062 199.243C8.49744 199.687 8.05407 200.156 7.63277 200.649C7.21147 201.142 6.81232 201.658 6.43735 202.197C6.06237 202.737 5.71164 203.299 5.38742 203.883C5.06321 204.466 4.76554 205.072 4.4965 205.698C4.22746 206.324 3.99319 206.957 3.79293 207.594C3.59268 208.231 3.42637 208.872 3.29333 209.515C3.16028 210.158 3.06052 210.803 2.99303 211.448C2.92555 212.093 2.89038 212.738 2.88673 213.38C2.88308 214.022 2.9109 214.661 2.96933 215.296C3.02777 215.931 3.11677 216.561 3.23553 217.184C3.35428 217.807 3.50266 218.424 3.67999 219.031C3.85732 219.638 4.06368 220.236 4.29785 220.823C4.53203 221.41 4.79405 221.986 5.08336 222.549C5.37268 223.112 5.68911 223.661 6.03186 224.195C6.37461 224.729 6.74377 225.247 7.13826 225.748C7.53275 226.248 7.95272 226.731 8.39724 227.195C8.84175 227.658 9.31073 228.101 9.80349 228.522C10.2962 228.944 10.8127 229.343 11.3519 229.718C11.8911 230.093 12.4531 230.444 13.0368 230.768C13.2454 230.884 13.4916 230.912 13.7211 230.847C13.9506 230.781 14.1446 230.627 14.2605 230.418C14.3764 230.21 14.4047 229.964 14.3391 229.734C14.2735 229.505 14.1195 229.311 13.9108 229.195C13.3802 228.9 12.8695 228.581 12.3797 228.24C11.8899 227.9 11.4208 227.537 10.9732 227.155C10.5257 226.772 10.0996 226.369 9.69586 225.948C9.29208 225.528 8.91053 225.089 8.55204 224.634C8.19355 224.179 7.85822 223.707 7.54662 223.222C7.23503 222.737 6.94736 222.237 6.68427 221.726C6.42118 221.214 6.18261 220.69 5.96963 220.157C5.75665 219.623 5.56928 219.078 5.40802 218.526C5.24675 217.974 5.1116 217.414 5.00364 216.847C4.89567 216.281 4.8149 215.708 4.76181 215.131C4.70871 214.554 4.68341 213.973 4.68673 213.39C4.69005 212.807 4.72177 212.221 4.78307 211.636C4.84436 211.05 4.93504 210.464 5.0559 209.88C5.17676 209.296 5.3278 208.713 5.50989 208.134C5.69197 207.554 5.90529 206.979 6.15034 206.408C6.39538 205.838 6.66608 205.287 6.96087 204.756C7.25566 204.226 7.57448 203.715 7.91513 203.225C8.25578 202.735 8.61829 202.266 9.00093 201.819C9.38356 201.371 9.78623 200.945 10.207 200.541C10.6277 200.137 11.0666 199.756 11.5215 199.397C11.9765 199.039 12.4476 198.703 12.9329 198.392C13.4182 198.08 13.9177 197.792 14.4293 197.529C14.9409 197.266 15.4646 197.028 15.9985 196.815C16.5324 196.602 17.0765 196.414 17.6287 196.253C18.1809 196.091 18.7413 195.956 19.3077 195.848C19.8742 195.74 20.4468 195.66 21.0236 195.606C21.6004 195.553 22.1813 195.528 22.7645 195.531C23.3476 195.535 23.933 195.566 24.5186 195.628C25.1042 195.689 25.6901 195.78 26.2743 195.901C26.8586 196.021 27.4412 196.172 28.0203 196.355C28.133 196.39 28.2517 196.403 28.3694 196.393C28.4872 196.382 28.6017 196.349 28.7065 196.294C28.8113 196.239 28.9043 196.165 28.9802 196.074C29.0561 195.983 29.1134 195.879 29.1488 195.766C29.1843 195.653 29.1972 195.535 29.1868 195.417C29.1764 195.299 29.1429 195.185 29.0883 195.08C29.0336 194.975 28.9588 194.882 28.8682 194.806C28.7776 194.73 28.673 194.673 28.5602 194.637C27.9233 194.437 27.2822 194.271 26.6391 194.138C25.9959 194.005 25.3508 193.905 24.706 193.838C24.0612 193.77 23.4166 193.735 22.7747 193.731Z" fill="#FCFAF2"/>
<path d="M29.7087 196.096L24.0903 197.559L25.6286 191.973L29.7087 196.096Z" fill="#F9AEA5"/>
<path d="M25.6687 191.546C25.5682 191.537 25.4675 191.563 25.3845 191.62C25.3014 191.678 25.2412 191.762 25.2144 191.859L23.6761 197.445C23.6561 197.518 23.6557 197.595 23.6747 197.667C23.6938 197.74 23.7317 197.807 23.7847 197.86C23.8376 197.914 23.9038 197.952 23.9765 197.972C24.0492 197.992 24.1259 197.993 24.1988 197.974L29.8173 196.511C29.8902 196.492 29.9569 196.454 30.0105 196.401C30.0641 196.349 30.1029 196.283 30.1229 196.21C30.1428 196.138 30.1433 196.061 30.1243 195.988C30.1052 195.915 30.0673 195.849 30.0143 195.795L25.9341 191.672C25.8632 191.6 25.7692 191.556 25.6687 191.546ZM25.8457 192.802L28.8803 195.869L24.7015 196.957L25.8457 192.802Z" fill="#FCFAF2"/>
<path d="M15.5992 230.904L21.2177 229.441L19.6794 235.027L15.5992 230.904Z" fill="#F9AEA5"/>
<path d="M21.2875 229.018C21.2282 229.009 21.1674 229.011 21.1091 229.026L15.4906 230.489C15.4177 230.508 15.3511 230.546 15.2974 230.599C15.2438 230.652 15.205 230.718 15.185 230.79C15.1651 230.863 15.1646 230.939 15.1836 231.012C15.2027 231.085 15.2406 231.151 15.2936 231.205L19.3738 235.328C19.4268 235.382 19.4929 235.42 19.5656 235.44C19.6383 235.46 19.715 235.461 19.7879 235.442C19.8608 235.423 19.9275 235.385 19.9811 235.332C20.0347 235.279 20.0735 235.213 20.0935 235.141L21.6318 229.555C21.6478 229.497 21.6513 229.436 21.6423 229.377C21.6332 229.317 21.6118 229.261 21.5793 229.21C21.5468 229.16 21.5041 229.116 21.4538 229.083C21.4036 229.05 21.3469 229.028 21.2875 229.018ZM20.6064 230.043L19.4622 234.198L16.4276 231.131L20.6064 230.043Z" fill="#FCFAF2"/>
<path d="M22.654 227.196H25.3374V220.753H30.9308V218.28H25.3051V215.807H30.9308V213.333H26.7761L33.3395 201.759H27.4551L22.6539 211.442L22.654 227.196ZM22.6537 227.196H19.9703V220.753H14.377V218.28H20.0027V215.807H14.377V213.333H18.5316L11.9683 201.759H17.8526L22.6539 211.442" fill="#FCFAF2"/>
<path d="M34.2175 0H11.2175V23H34.2175V0Z" fill="#5BAD92"/>
<path d="M34.2175 292H11.2175V315H34.2175V292Z" fill="#5BAD92"/>
</svg>
