<svg width="46" height="315" viewBox="0 0 46 315" fill="none" xmlns="http://www.w3.org/2000/svg">
<path d="M23.337 25.2359V30.2001L13.2853 34.8605L33.3886 44.1814L13.2853 53.5022L33.3886 62.8231L13.2853 72.144L33.3886 81.4648L13.2853 90.7857L33.3886 100.107L13.2853 109.427L33.3886 118.748L13.2853 128.069L33.3886 137.39L23.337 142.05V147.015" stroke="#CBCBCB" stroke-width="5.00001" stroke-linecap="square"/>
<path d="M23.337 196.07V199.888L13.2853 203.472L33.3886 210.642L13.2853 217.811L33.3886 224.98L13.2853 232.149L33.3886 239.318L13.2853 246.487L33.3886 253.657L13.2853 260.826L33.3886 267.995L13.2853 275.164L33.3886 282.333L23.337 285.918V289.736" stroke="#CBCBCB" stroke-width="5.00001" stroke-linecap="square"/>
<path d="M45.8064 171.5C45.8064 177.467 43.4359 183.19 39.2163 187.41C34.9968 191.629 29.2738 194 23.3064 194C17.3391 194 11.6161 191.629 7.39652 187.41C3.17696 183.19 0.806427 177.467 0.806427 171.5C0.806427 165.533 3.17696 159.81 7.39652 155.59C11.6161 151.371 17.3391 149 23.3064 149C29.2738 149 34.9968 151.371 39.2163 155.59C43.4359 159.81 45.8064 165.533 45.8064 171.5Z" fill="#5BAD92"/>
<path d="M32.2393 154.154C32.0098 154.219 31.8157 154.373 31.6998 154.582C31.5839 154.79 31.5556 155.037 31.6212 155.266C31.6868 155.496 31.8409 155.69 32.0495 155.806C32.5802 156.1 33.0909 156.419 33.5807 156.76C34.0705 157.101 34.5396 157.463 34.9871 157.846C35.4347 158.229 35.8607 158.631 36.2645 159.052C36.6683 159.473 37.0498 159.911 37.4083 160.366C37.7668 160.821 38.1021 161.293 38.4137 161.778C38.7253 162.263 39.013 162.763 39.2761 163.274C39.5392 163.786 39.7777 164.31 39.9907 164.844C40.2037 165.378 40.3911 165.922 40.5523 166.474C40.7136 167.026 40.8488 167.587 40.9567 168.153C41.0647 168.72 41.1454 169.292 41.1985 169.869C41.2516 170.446 41.2769 171.027 41.2736 171.61C41.2703 172.194 41.2386 172.779 41.1773 173.365C41.116 173.95 41.0253 174.536 40.9044 175.12C40.7836 175.705 40.6325 176.287 40.4505 176.867C40.2684 177.446 40.0553 178.022 39.8102 178.592C39.5652 179.162 39.2943 179.713 38.9995 180.244C38.7047 180.775 38.3859 181.285 38.0452 181.775C37.7046 182.265 37.3421 182.734 36.9594 183.181C36.9594 183.181 36.9594 183.182 36.9594 183.182C36.5768 183.629 36.1741 184.055 35.7534 184.459C35.3326 184.863 34.8938 185.244 34.4388 185.603C33.9838 185.961 33.5127 186.297 33.0275 186.608C32.5422 186.92 32.0427 187.208 31.5311 187.471C31.0195 187.734 30.4957 187.973 29.9618 188.186C29.4279 188.399 28.8839 188.586 28.3317 188.748C27.7795 188.909 27.2191 189.044 26.6526 189.152C26.0861 189.26 25.5135 189.341 24.9368 189.394C24.36 189.447 23.779 189.472 23.1959 189.469C22.6127 189.466 22.0274 189.434 21.4417 189.372C20.8561 189.311 20.2702 189.22 19.686 189.1C19.1018 188.979 18.5192 188.828 17.9401 188.646C17.8273 188.61 17.7087 188.597 17.5909 188.608C17.4732 188.618 17.3587 188.652 17.2539 188.706C17.1491 188.761 17.0561 188.836 16.9802 188.926C16.9043 189.017 16.847 189.122 16.8115 189.234C16.7761 189.347 16.7632 189.466 16.7736 189.583C16.7839 189.701 16.8174 189.816 16.8721 189.92C16.9267 190.025 17.0015 190.118 17.0921 190.194C17.1827 190.27 17.2874 190.327 17.4001 190.363C18.0371 190.563 18.6781 190.729 19.3213 190.862C19.9644 190.995 20.6096 191.095 21.2544 191.163C21.8991 191.23 22.5437 191.265 23.1857 191.269C23.8277 191.273 24.467 191.245 25.1017 191.186C25.7365 191.128 26.3665 191.039 26.9897 190.92C27.6128 190.801 28.2291 190.653 28.8364 190.475C29.4436 190.298 30.0418 190.092 30.6289 189.857C31.2159 189.623 31.7919 189.361 32.3544 189.072C32.917 188.782 33.4663 188.466 34.0001 188.123C34.5339 187.78 35.0521 187.411 35.5527 187.017C36.0534 186.622 36.5365 186.202 36.9997 185.758C37.4629 185.313 37.9063 184.844 38.3276 184.351C38.7489 183.858 39.148 183.342 39.523 182.803C39.898 182.264 40.2487 181.702 40.5729 181.118C40.8971 180.534 41.1948 179.929 41.4639 179.302C41.7329 178.676 41.9672 178.043 42.1674 177.406C42.3677 176.77 42.534 176.128 42.667 175.485C42.8001 174.842 42.8998 174.197 42.9673 173.552C42.9673 173.552 42.9673 173.552 42.9673 173.552C43.0348 172.907 43.07 172.262 43.0736 171.62C43.0773 170.978 43.0495 170.339 42.991 169.704C42.9326 169.069 42.8436 168.439 42.7248 167.816C42.6061 167.193 42.4577 166.577 42.2804 165.97C42.103 165.362 41.8967 164.764 41.6625 164.177C41.4283 163.59 41.1663 163.014 40.877 162.451C40.5877 161.889 40.2712 161.339 39.9285 160.805C39.5857 160.272 39.2166 159.753 38.8221 159.253C38.4276 158.752 38.0076 158.269 37.5631 157.806C37.1186 157.342 36.6496 156.899 36.1569 156.478C35.6641 156.056 35.1476 155.657 34.6084 155.282C34.0693 154.907 33.5073 154.556 32.9236 154.232C32.7149 154.116 32.4688 154.088 32.2393 154.154V154.154Z" fill="#FCFAF2"/>
<path d="M23.4271 151.731C22.7852 151.728 22.1458 151.756 21.5111 151.814C20.8763 151.872 20.2463 151.961 19.6232 152.08C19 152.199 18.3837 152.348 17.7764 152.525C17.1692 152.702 16.571 152.909 15.984 153.143C15.3969 153.377 14.8209 153.639 14.2584 153.928C13.6958 154.218 13.1465 154.534 12.6127 154.877C12.0789 155.22 11.5608 155.589 11.0601 155.983C10.5594 156.378 10.0763 156.798 9.61309 157.243C9.1499 157.687 8.70653 158.156 8.28524 158.649C7.86393 159.142 7.46479 159.658 7.08981 160.197C6.71484 160.737 6.3641 161.299 6.03989 161.883C5.71567 162.466 5.41801 163.072 5.14897 163.698C4.87992 164.324 4.64566 164.957 4.4454 165.594C4.24514 166.231 4.07883 166.872 3.94579 167.515C3.81275 168.158 3.71298 168.803 3.6455 169.448C3.57801 170.093 3.54285 170.738 3.5392 171.38C3.53555 172.022 3.56337 172.661 3.6218 173.296C3.68023 173.931 3.76923 174.561 3.88799 175.184C4.00675 175.807 4.15512 176.424 4.33246 177.031C4.50979 177.638 4.71614 178.236 4.95032 178.823C5.1845 179.41 5.44651 179.986 5.73583 180.549C6.02514 181.112 6.34158 181.661 6.68433 182.195C7.02708 182.729 7.39623 183.247 7.79072 183.748C8.18521 184.248 8.60519 184.731 9.0497 185.195C9.49421 185.658 9.9632 186.101 10.456 186.522C10.9487 186.944 11.4652 187.343 12.0044 187.718C12.5436 188.093 13.1055 188.444 13.6892 188.768C13.8979 188.884 14.144 188.912 14.3735 188.847C14.603 188.781 14.7971 188.627 14.913 188.418C15.0289 188.21 15.0572 187.964 14.9916 187.734C14.926 187.505 14.772 187.311 14.5633 187.195C14.0326 186.9 13.522 186.581 13.0322 186.24C12.5423 185.9 12.0732 185.537 11.6257 185.155C11.1782 184.772 10.7521 184.369 10.3483 183.948C9.94455 183.528 9.56299 183.089 9.2045 182.634C8.84602 182.179 8.51068 181.707 8.19909 181.222C7.88749 180.737 7.59983 180.237 7.33674 179.726C7.07364 179.214 6.83507 178.69 6.6221 178.157C6.40912 177.623 6.22174 177.078 6.06048 176.526C5.89922 175.974 5.76406 175.414 5.6561 174.847C5.54814 174.281 5.46737 173.708 5.41427 173.131C5.36117 172.554 5.33588 171.973 5.3392 171.39C5.34251 170.807 5.37424 170.221 5.43553 169.636C5.49683 169.05 5.5875 168.464 5.70837 167.88C5.82923 167.296 5.98027 166.713 6.16235 166.134C6.34444 165.554 6.55776 164.979 6.8028 164.408C7.04785 163.838 7.31854 163.287 7.61334 162.756C7.90813 162.226 8.22694 161.715 8.56759 161.225C8.90824 160.735 9.27076 160.266 9.6534 159.819C10.036 159.371 10.4387 158.945 10.8594 158.541C11.2802 158.137 11.719 157.756 12.174 157.397C12.629 157.039 13.1001 156.703 13.5854 156.392C14.0706 156.08 14.5702 155.792 15.0817 155.529C15.5933 155.266 16.1171 155.028 16.651 154.815C17.1849 154.602 17.7289 154.414 18.2811 154.253C18.8333 154.091 19.3937 153.956 19.9602 153.848C20.5267 153.74 21.0993 153.66 21.6761 153.606C22.2529 153.553 22.8338 153.528 23.4169 153.531C24.0001 153.535 24.5855 153.566 25.1711 153.628C25.7567 153.689 26.3426 153.78 26.9268 153.901C27.511 154.021 28.0936 154.172 28.6728 154.355C28.7855 154.39 28.9041 154.403 29.0219 154.393C29.1396 154.382 29.2542 154.349 29.3589 154.294C29.4637 154.239 29.5567 154.165 29.6326 154.074C29.7085 153.983 29.7659 153.879 29.8013 153.766C29.8368 153.653 29.8497 153.535 29.8393 153.417C29.8289 153.299 29.7954 153.185 29.7407 153.08C29.6861 152.975 29.6113 152.882 29.5207 152.806C29.4301 152.73 29.3254 152.673 29.2127 152.637C28.5757 152.437 27.9347 152.271 27.2915 152.138C26.6484 152.005 26.0032 151.905 25.3584 151.838C24.7137 151.77 24.0691 151.735 23.4271 151.731Z" fill="#FCFAF2"/>
<path d="M30.3611 154.096L24.7427 155.559L26.281 149.973L30.3611 154.096Z" fill="#F9AEA5"/>
<path d="M26.3211 149.546C26.2206 149.537 26.12 149.563 26.0369 149.62C25.9538 149.678 25.8936 149.762 25.8669 149.859L24.3285 155.445C24.3086 155.518 24.3081 155.595 24.3271 155.667C24.3462 155.74 24.3841 155.807 24.4371 155.86C24.4901 155.914 24.5562 155.952 24.6289 155.972C24.7016 155.992 24.7783 155.993 24.8512 155.974L30.4697 154.511C30.5426 154.492 30.6093 154.454 30.6629 154.401C30.7166 154.349 30.7553 154.283 30.7753 154.21C30.7953 154.138 30.7958 154.061 30.7767 153.988C30.7577 153.915 30.7198 153.849 30.6668 153.795L26.5866 149.672C26.5156 149.6 26.4216 149.556 26.3211 149.546ZM26.4981 150.802L29.5328 153.869L25.3539 154.957L26.4981 150.802Z" fill="#FCFAF2"/>
<path d="M16.2517 188.904L21.8701 187.441L20.3318 193.027L16.2517 188.904Z" fill="#F9AEA5"/>
<path d="M21.94 187.018C21.8806 187.009 21.8198 187.011 21.7615 187.026L16.1431 188.489C16.0701 188.508 16.0035 188.546 15.9498 188.599C15.8962 188.652 15.8574 188.718 15.8375 188.79C15.8175 188.863 15.817 188.939 15.8361 189.012C15.8551 189.085 15.893 189.151 15.946 189.205L20.0262 193.328C20.0792 193.382 20.1453 193.42 20.218 193.44C20.2907 193.46 20.3674 193.461 20.4403 193.442C20.5133 193.423 20.5799 193.385 20.6335 193.332C20.6872 193.279 20.7259 193.213 20.7459 193.141L22.2843 187.555C22.3002 187.497 22.3037 187.436 22.2947 187.377C22.2856 187.317 22.2642 187.261 22.2317 187.21C22.1993 187.16 22.1565 187.116 22.1063 187.083C22.056 187.05 21.9993 187.028 21.94 187.018ZM21.2588 188.043L20.1147 192.198L17.08 189.131L21.2588 188.043Z" fill="#FCFAF2"/>
<path d="M23.3064 185.196H25.9898V178.753H31.5832V176.28H25.9575V173.807H31.5832V171.333H27.4286L33.9919 159.759H28.1076L23.3063 169.442L23.3064 185.196ZM23.3062 185.196H20.6228V178.753H15.0294V176.28H20.6551V173.807H15.0294V171.333H19.184L12.6207 159.759H18.5051L23.3063 169.442" fill="#FCFAF2"/>
<path d="M34.8699 0H11.8699V23H34.8699V0Z" fill="#5BAD92"/>
<path d="M34.8699 292H11.8699V315H34.8699V292Z" fill="#5BAD92"/>
</svg>
