<svg width="46" height="315" viewBox="0 0 46 315" fill="none" xmlns="http://www.w3.org/2000/svg">
<path d="M23.0759 24.6626V31.6425L13.0242 38.1952L33.1275 51.3007L13.0242 64.4062L33.1275 77.5116L13.0242 90.6171L33.1275 103.723L13.0242 116.828L33.1275 129.933L13.0242 143.039L33.1275 156.144L13.0242 169.25L33.1275 182.355L23.0759 188.908V195.888" stroke="#CBCBCB" stroke-width="5.00001" stroke-linecap="square"/>
<path d="M20.5764 242.4V244.071V244.679L3.258 247.745L23.3615 251.303L3.258 254.863L23.3615 258.422L3.258 261.98L23.3615 265.538L3.258 269.096L23.3635 272.656L3.258 276.214L23.3615 279.773L3.258 283.331L23.3615 286.889L20.5764 287.383V290.565V292.236H25.5764V290.565V289.955L42.8947 286.891L22.7892 283.331L42.8947 279.773L22.7912 276.214L42.8947 272.656L22.7912 269.098L42.8947 265.538L22.7912 261.979L42.8947 258.421L22.7912 254.863L42.8947 251.303L22.7892 247.745L25.5764 247.252V244.071V242.4H20.5764Z" fill="#CBCBCB"/>
<path d="M45.5453 220.5C45.5453 226.467 43.1748 232.19 38.9552 236.41C34.7356 240.629 29.0127 243 23.0453 243C17.0779 243 11.355 240.629 7.13539 236.41C2.91582 232.19 0.545288 226.467 0.545288 220.5C0.545288 214.533 2.91582 208.81 7.13539 204.59C11.355 200.371 17.0779 198 23.0453 198C29.0127 198 34.7356 200.371 38.9552 204.59C43.1748 208.81 45.5453 214.533 45.5453 220.5Z" fill="#5BAD92"/>
<path d="M31.9781 203.154C31.7486 203.219 31.5546 203.373 31.4387 203.582C31.3228 203.79 31.2945 204.037 31.3601 204.266C31.4256 204.496 31.5797 204.69 31.7883 204.806C32.319 205.1 32.8297 205.419 33.3195 205.76C33.8093 206.101 34.2784 206.463 34.726 206.846C35.1735 207.229 35.5996 207.631 36.0033 208.052C36.4071 208.473 36.7887 208.911 37.1472 209.366C37.5056 209.821 37.841 210.293 38.1526 210.778C38.4642 211.263 38.7518 211.763 39.0149 212.274C39.278 212.786 39.5166 213.31 39.7296 213.844C39.9425 214.378 40.1299 214.922 40.2912 215.474C40.4524 216.026 40.5876 216.587 40.6956 217.153C40.8035 217.72 40.8843 218.292 40.9374 218.869C40.9905 219.446 41.0158 220.027 41.0125 220.61C41.0091 221.194 40.9774 221.779 40.9161 222.365C40.8548 222.95 40.7642 223.536 40.6433 224.12C40.5224 224.705 40.3714 225.287 40.1893 225.867C40.0072 226.446 39.7941 227.022 39.5491 227.592C39.304 228.162 39.0331 228.713 38.7383 229.244C38.4435 229.775 38.1247 230.285 37.7841 230.775C37.4434 231.265 37.0809 231.734 36.6983 232.181C36.6983 232.181 36.6983 232.182 36.6983 232.182C36.3156 232.629 35.913 233.055 35.4922 233.459C35.0715 233.863 34.6326 234.244 34.1776 234.603C33.7227 234.961 33.2516 235.297 32.7663 235.608C32.281 235.92 31.7815 236.208 31.2699 236.471C30.7583 236.734 30.2346 236.973 29.7007 237.186C29.1668 237.399 28.6227 237.586 28.0705 237.748C27.5183 237.909 26.9579 238.044 26.3914 238.152C25.825 238.26 25.2524 238.341 24.6756 238.394C24.0988 238.447 23.5179 238.472 22.9347 238.469C22.3516 238.466 21.7662 238.434 21.1806 238.372C20.5949 238.311 20.0091 238.22 19.4249 238.1C18.8406 237.979 18.258 237.828 17.6789 237.646C17.5661 237.61 17.4475 237.597 17.3298 237.608C17.212 237.618 17.0975 237.652 16.9927 237.706C16.8879 237.761 16.7949 237.836 16.719 237.926C16.6431 238.017 16.5858 238.122 16.5504 238.234C16.5149 238.347 16.502 238.466 16.5124 238.583C16.5228 238.701 16.5563 238.816 16.6109 238.92C16.6656 239.025 16.7404 239.118 16.831 239.194C16.9216 239.27 17.0262 239.327 17.139 239.363C17.7759 239.563 18.417 239.729 19.0601 239.862C19.7033 239.995 20.3484 240.095 20.9932 240.163C21.638 240.23 22.2826 240.265 22.9245 240.269C23.5665 240.273 24.2059 240.245 24.8406 240.186C25.4753 240.128 26.1054 240.039 26.7285 239.92C27.3517 239.801 27.968 239.653 28.5752 239.475C29.1825 239.298 29.7807 239.092 30.3677 238.857C30.9548 238.623 31.5307 238.361 32.0933 238.072C32.6559 237.782 33.2051 237.466 33.7389 237.123C34.2727 236.78 34.7909 236.411 35.2916 236.017C35.7922 235.622 36.2754 235.202 36.7386 234.758C37.2018 234.313 37.6451 233.844 38.0664 233.351C38.4877 232.858 38.8869 232.342 39.2618 231.803C39.6368 231.264 39.9876 230.702 40.3118 230.118C40.636 229.534 40.9337 228.929 41.2027 228.302C41.4717 227.676 41.706 227.043 41.9063 226.406C42.1065 225.77 42.2728 225.128 42.4059 224.485C42.5389 223.842 42.6387 223.197 42.7062 222.552C42.7062 222.552 42.7062 222.552 42.7062 222.552C42.7736 221.907 42.8088 221.262 42.8125 220.62C42.8161 219.978 42.7883 219.339 42.7299 218.704C42.6714 218.069 42.5824 217.439 42.4637 216.816C42.3449 216.193 42.1965 215.577 42.0192 214.97C41.8419 214.362 41.6355 213.764 41.4013 213.177C41.1672 212.59 40.9052 212.014 40.6158 211.451C40.3265 210.889 40.0101 210.339 39.6673 209.805C39.3246 209.272 38.9554 208.753 38.5609 208.253C38.1664 207.752 37.7465 207.269 37.302 206.806C36.8574 206.342 36.3885 205.899 35.8957 205.478C35.4029 205.056 34.8865 204.657 34.3473 204.282C33.8081 203.907 33.2461 203.556 32.6624 203.232C32.4538 203.116 32.2076 203.088 31.9781 203.154V203.154Z" fill="#FCFAF2"/>
<path d="M23.1659 200.731C22.524 200.728 21.8846 200.756 21.2499 200.814C20.6152 200.872 19.9851 200.961 19.362 201.08C18.7388 201.199 18.1225 201.348 17.5153 201.525C16.908 201.702 16.3098 201.909 15.7228 202.143C15.1357 202.377 14.5598 202.639 13.9972 202.928C13.4346 203.218 12.8853 203.534 12.3516 203.877C11.8178 204.22 11.2996 204.589 10.7989 204.983C10.2982 205.378 9.81511 205.798 9.35192 206.243C8.88873 206.687 8.44536 207.156 8.02407 207.649C7.60277 208.142 7.20362 208.658 6.82864 209.197C6.45367 209.737 6.10293 210.299 5.77872 210.883C5.4545 211.466 5.15684 212.072 4.8878 212.698C4.61875 213.324 4.38449 213.957 4.18423 214.594C3.98397 215.231 3.81766 215.872 3.68462 216.515C3.55158 217.158 3.45182 217.803 3.38433 218.448C3.31684 219.093 3.28168 219.738 3.27803 220.38C3.27438 221.022 3.3022 221.661 3.36063 222.296C3.41906 222.931 3.50807 223.561 3.62682 224.184C3.74558 224.807 3.89395 225.424 4.07129 226.031C4.24862 226.638 4.45497 227.236 4.68915 227.823C4.92333 228.41 5.18534 228.986 5.47466 229.549C5.76397 230.112 6.08041 230.661 6.42316 231.195C6.76591 231.729 7.13506 232.247 7.52955 232.748C7.92404 233.248 8.34402 233.731 8.78854 234.195C9.23304 234.658 9.70203 235.101 10.1948 235.522C10.6875 235.944 11.204 236.343 11.7432 236.718C12.2824 237.093 12.8444 237.444 13.4281 237.768C13.6367 237.884 13.8829 237.912 14.1124 237.847C14.3419 237.781 14.5359 237.627 14.6518 237.418C14.7677 237.21 14.796 236.964 14.7304 236.734C14.6648 236.505 14.5108 236.311 14.3021 236.195C13.7714 235.9 13.2608 235.581 12.771 235.24C12.2812 234.9 11.8121 234.537 11.3645 234.155C10.917 233.772 10.4909 233.369 10.0872 232.948C9.68338 232.528 9.30182 232.089 8.94333 231.634C8.58485 231.179 8.24951 230.707 7.93792 230.222C7.62632 229.737 7.33866 229.237 7.07557 228.726C6.81247 228.214 6.5739 227.69 6.36093 227.157C6.14795 226.623 5.96057 226.078 5.79931 225.526C5.63805 224.974 5.5029 224.414 5.39493 223.847C5.28697 223.281 5.2062 222.708 5.1531 222.131C5.1 221.554 5.07471 220.973 5.07803 220.39C5.08134 219.807 5.11307 219.221 5.17436 218.636C5.23566 218.05 5.32633 217.464 5.4472 216.88C5.56806 216.296 5.7191 215.713 5.90118 215.134C6.08327 214.554 6.29659 213.979 6.54164 213.408C6.78668 212.838 7.05737 212.287 7.35217 211.756C7.64696 211.226 7.96578 210.715 8.30642 210.225C8.64707 209.735 9.00959 209.266 9.39223 208.819C9.77486 208.371 10.1775 207.945 10.5983 207.541C11.019 207.137 11.4579 206.756 11.9128 206.397C12.3678 206.039 12.8389 205.703 13.3242 205.392C13.8095 205.08 14.309 204.792 14.8206 204.529C15.3322 204.266 15.8559 204.028 16.3898 203.815C16.9237 203.602 17.4678 203.414 18.02 203.253C18.5722 203.091 19.1326 202.956 19.699 202.848C20.2655 202.74 20.8381 202.66 21.4149 202.606C21.9917 202.553 22.5726 202.528 23.1558 202.531C23.7389 202.535 24.3243 202.566 24.9099 202.628C25.4955 202.689 26.0814 202.78 26.6656 202.901C27.2499 203.021 27.8325 203.172 28.4116 203.355C28.5243 203.39 28.643 203.403 28.7607 203.393C28.8784 203.382 28.993 203.349 29.0978 203.294C29.2026 203.239 29.2956 203.165 29.3715 203.074C29.4474 202.983 29.5047 202.879 29.5401 202.766C29.5756 202.653 29.5885 202.535 29.5781 202.417C29.5677 202.299 29.5342 202.185 29.4796 202.08C29.4249 201.975 29.3501 201.882 29.2595 201.806C29.1689 201.73 29.0643 201.673 28.9515 201.637C28.3146 201.437 27.6735 201.271 27.0304 201.138C26.3872 201.005 25.7421 200.905 25.0973 200.838C24.4525 200.77 23.8079 200.735 23.1659 200.731Z" fill="#FCFAF2"/>
<path d="M30.1 203.096L24.4815 204.559L26.0199 198.973L30.1 203.096Z" fill="#F9AEA5"/>
<path d="M26.06 198.546C25.9595 198.537 25.8588 198.563 25.7758 198.62C25.6927 198.678 25.6325 198.762 25.6057 198.859L24.0674 204.445C24.0474 204.518 24.0469 204.595 24.066 204.667C24.0851 204.74 24.123 204.807 24.176 204.86C24.2289 204.914 24.2951 204.952 24.3678 204.972C24.4405 204.992 24.5172 204.993 24.5901 204.974L30.2086 203.511C30.2815 203.492 30.3482 203.454 30.4018 203.401C30.4554 203.349 30.4942 203.283 30.5142 203.21C30.5341 203.138 30.5346 203.061 30.5156 202.988C30.4965 202.915 30.4586 202.849 30.4056 202.795L26.3254 198.672C26.2545 198.6 26.1605 198.556 26.06 198.546ZM26.237 199.802L29.2716 202.869L25.0928 203.957L26.237 199.802Z" fill="#FCFAF2"/>
<path d="M15.9905 237.904L21.609 236.441L20.0707 242.027L15.9905 237.904Z" fill="#F9AEA5"/>
<path d="M21.6788 236.018C21.6194 236.009 21.5587 236.011 21.5004 236.026L15.8819 237.489C15.809 237.508 15.7424 237.546 15.6887 237.599C15.6351 237.652 15.5963 237.718 15.5763 237.79C15.5564 237.863 15.5559 237.939 15.5749 238.012C15.594 238.085 15.6319 238.151 15.6849 238.205L19.7651 242.328C19.818 242.382 19.8842 242.42 19.9569 242.44C20.0296 242.46 20.1063 242.461 20.1792 242.442C20.2521 242.423 20.3188 242.385 20.3724 242.332C20.426 242.279 20.4648 242.213 20.4848 242.141L22.0231 236.555C22.0391 236.497 22.0426 236.436 22.0336 236.377C22.0245 236.317 22.003 236.261 21.9706 236.21C21.9381 236.16 21.8954 236.116 21.8451 236.083C21.7949 236.05 21.7382 236.028 21.6788 236.018ZM20.9977 237.043L19.8535 241.198L16.8189 238.131L20.9977 237.043Z" fill="#FCFAF2"/>
<path d="M23.0453 234.196H25.7287V227.753H31.3221V225.28H25.6964V222.807H31.3221V220.333H27.1674L33.7308 208.759H27.8464L23.0452 218.442L23.0453 234.196ZM23.045 234.196H20.3616V227.753H14.7683V225.28H20.394V222.807H14.7683V220.333H18.9229L12.3596 208.759H18.2439L23.0452 218.442" fill="#FCFAF2"/>
<path d="M34.6088 0H11.6088V23H34.6088V0Z" fill="#5BAD92"/>
<path d="M34.6088 292H11.6088V315H34.6088V292Z" fill="#5BAD92"/>
</svg>
