<svg width="46" height="315" viewBox="0 0 46 315" fill="none" xmlns="http://www.w3.org/2000/svg">
<path d="M20.7075 22.6811V25.0123V25.9375L3.6059 30.2631L23.7075 35.3481L3.6059 40.4331L23.7075 45.5182L3.6059 50.6032L23.7094 55.6882L3.6059 60.775L23.7075 65.8601L3.6059 70.9451L23.7114 76.0301L3.6059 81.1151L23.7075 86.2001L20.7075 86.9596V91.4509V93.7822H25.7075V91.4509V90.5257L42.8071 86.2001L22.7016 81.1151L42.8071 76.0301L22.7016 70.9451L42.8071 65.8601L22.7055 60.775L42.8071 55.69L22.7036 50.6032L42.8071 45.5182L22.7055 40.4331L42.8071 35.3481L22.7036 30.2631L25.7075 29.5036V25.0123V22.6811H20.7075Z" fill="#CBCBCB"/>
<path d="M23.207 140.297V146.389L13.1553 152.108L33.2586 163.546L13.1553 174.984L33.2586 186.422L13.1553 197.86L33.2586 209.298L13.1553 220.735L33.2586 232.173L13.1553 243.611L33.2586 255.049L13.1553 266.487L33.2586 277.925L23.207 283.644V289.736" stroke="#CBCBCB" stroke-width="5.00001" stroke-linecap="square"/>
<path d="M45.6764 115.5C45.6764 121.467 43.3059 127.19 39.0863 131.41C34.8667 135.629 29.1438 138 23.1764 138C17.209 138 11.4861 135.629 7.26649 131.41C3.04692 127.19 0.676392 121.467 0.676392 115.5C0.676392 109.533 3.04692 103.81 7.26649 99.5901C11.4861 95.3705 17.209 93 23.1764 93C29.1438 93 34.8667 95.3705 39.0863 99.5901C43.3059 103.81 45.6764 109.533 45.6764 115.5Z" fill="#5BAD92"/>
<path d="M32.1093 98.1535C31.8798 98.2191 31.6857 98.3732 31.5698 98.5818C31.4539 98.7905 31.4256 99.0366 31.4912 99.2661C31.5568 99.4956 31.7108 99.6897 31.9195 99.8056C32.4502 100.1 32.9608 100.419 33.4506 100.76C33.9404 101.101 34.4096 101.463 34.8571 101.846C35.3046 102.229 35.7307 102.631 36.1345 103.052C36.5382 103.473 36.9198 103.911 37.2783 104.366C37.6368 104.821 37.9721 105.293 38.2837 105.778C38.5953 106.263 38.8829 106.763 39.146 107.274C39.4091 107.786 39.6477 108.31 39.8607 108.844C40.0737 109.378 40.261 109.922 40.4223 110.474C40.5836 111.026 40.7187 111.587 40.8267 112.153C40.9346 112.72 41.0154 113.292 41.0685 113.869C41.1216 114.446 41.1469 115.027 41.1436 115.61C41.1403 116.194 41.1085 116.779 41.0472 117.365C40.9859 117.95 40.8953 118.536 40.7744 119.12C40.6535 119.705 40.5025 120.287 40.3204 120.867C40.1384 121.446 39.9252 122.022 39.6802 122.592C39.4352 123.162 39.1642 123.713 38.8694 124.244C38.5746 124.775 38.2558 125.285 37.9152 125.775C37.5745 126.265 37.212 126.734 36.8294 127.181C36.8294 127.181 36.8294 127.182 36.8294 127.182C36.4468 127.629 36.0441 128.055 35.6233 128.459C35.2026 128.863 34.7637 129.244 34.3088 129.603C33.8538 129.961 33.3827 130.297 32.8974 130.608C32.4121 130.92 31.9126 131.208 31.401 131.471C30.8895 131.734 30.3657 131.973 29.8318 132.186C29.2979 132.399 28.7539 132.586 28.2017 132.748C27.6495 132.909 27.0891 133.044 26.5226 133.152C25.9561 133.26 25.3835 133.341 24.8067 133.394C24.2299 133.447 23.649 133.472 23.0659 133.469C22.4827 133.466 21.8973 133.434 21.3117 133.372C20.7261 133.311 20.1402 133.22 19.556 133.1C18.9717 132.979 18.3891 132.828 17.81 132.646C17.6973 132.61 17.5786 132.597 17.4609 132.608C17.3432 132.618 17.2286 132.652 17.1238 132.706C17.019 132.761 16.926 132.836 16.8501 132.926C16.7742 133.017 16.7169 133.122 16.6815 133.234C16.646 133.347 16.6331 133.466 16.6435 133.583C16.6539 133.701 16.6874 133.816 16.7421 133.92C16.7967 134.025 16.8715 134.118 16.9621 134.194C17.0527 134.27 17.1574 134.327 17.2701 134.363C17.907 134.563 18.5481 134.729 19.1912 134.862C19.8344 134.995 20.4796 135.095 21.1243 135.163C21.7691 135.23 22.4137 135.265 23.0557 135.269C23.6976 135.273 24.337 135.245 24.9717 135.186C25.6064 135.128 26.2365 135.039 26.8596 134.92C27.4828 134.801 28.0991 134.653 28.7064 134.475C29.3136 134.298 29.9118 134.092 30.4988 133.857C31.0859 133.623 31.6618 133.361 32.2244 133.072C32.787 132.782 33.3363 132.466 33.8701 132.123C34.4038 131.78 34.922 131.411 35.4227 131.017C35.9234 130.622 36.4065 130.202 36.8697 129.758C37.3329 129.313 37.7762 128.844 38.1975 128.351C38.6189 127.858 39.018 127.342 39.393 126.803C39.7679 126.264 40.1187 125.702 40.4429 125.118C40.7671 124.534 41.0648 123.929 41.3338 123.302C41.6029 122.676 41.8371 122.043 42.0374 121.406C42.2376 120.77 42.4039 120.128 42.537 119.485C42.67 118.842 42.7698 118.197 42.8373 117.552C42.8373 117.552 42.8373 117.552 42.8373 117.552C42.9047 116.907 42.9399 116.262 42.9436 115.62C42.9472 114.978 42.9194 114.339 42.861 113.704C42.8025 113.069 42.7135 112.439 42.5948 111.816C42.476 111.193 42.3277 110.577 42.1503 109.97C41.973 109.362 41.7666 108.764 41.5325 108.177C41.2983 107.59 41.0363 107.014 40.747 106.451C40.4576 105.889 40.1412 105.339 39.7985 104.805C39.4557 104.272 39.0865 103.753 38.6921 103.253C38.2976 102.752 37.8776 102.269 37.4331 101.806C36.9886 101.342 36.5196 100.899 36.0268 100.478C35.5341 100.056 35.0176 99.6571 34.4784 99.2821C33.9392 98.9071 33.3772 98.5564 32.7936 98.2321C32.5849 98.1162 32.3388 98.088 32.1093 98.1535V98.1535Z" fill="#FCFAF2"/>
<path d="M23.2971 95.7314C22.6551 95.7278 22.0158 95.7556 21.381 95.814C20.7463 95.8725 20.1163 95.9614 19.4931 96.0802C18.87 96.199 18.2536 96.3475 17.6464 96.5249C17.0391 96.7023 16.441 96.9086 15.8539 97.1428C15.2669 97.377 14.6909 97.6391 14.1283 97.9285C13.5658 98.2178 13.0165 98.5342 12.4827 98.877C11.9489 99.2198 11.4307 99.5889 10.9301 99.9834C10.4294 100.378 9.94624 100.798 9.48306 101.243C9.01987 101.687 8.5765 102.156 8.1552 102.649C7.7339 103.142 7.33475 103.658 6.95978 104.197C6.5848 104.737 6.23407 105.299 5.90985 105.883C5.58564 106.466 5.28797 107.072 5.01893 107.698C4.74989 108.324 4.51562 108.957 4.31536 109.594C4.11511 110.231 3.9488 110.872 3.81576 111.515C3.68271 112.158 3.58295 112.803 3.51546 113.448C3.44798 114.093 3.41281 114.738 3.40916 115.38C3.40551 116.022 3.43333 116.661 3.49177 117.296C3.5502 117.931 3.6392 118.561 3.75796 119.184C3.87671 119.807 4.02509 120.424 4.20242 121.031C4.37975 121.638 4.58611 122.236 4.82028 122.823C5.05446 123.41 5.31648 123.986 5.60579 124.549C5.89511 125.112 6.21154 125.661 6.55429 126.195C6.89704 126.729 7.2662 127.247 7.66069 127.748C8.05518 128.248 8.47515 128.731 8.91967 129.195C9.36418 129.658 9.83316 130.101 10.3259 130.522C10.8187 130.944 11.3352 131.343 11.8743 131.718C12.4135 132.093 12.9755 132.444 13.5592 132.768C13.7678 132.884 14.014 132.912 14.2435 132.847C14.473 132.781 14.667 132.627 14.783 132.418C14.8989 132.21 14.9271 131.964 14.8616 131.734C14.796 131.505 14.6419 131.311 14.4333 131.195C13.9026 130.9 13.3919 130.581 12.9021 130.24C12.4123 129.9 11.9432 129.537 11.4957 129.155C11.0481 128.772 10.6221 128.369 10.2183 127.948C9.81451 127.528 9.43296 127.089 9.07447 126.634C8.71598 126.179 8.38065 125.707 8.06905 125.222C7.75746 124.737 7.46979 124.237 7.2067 123.726C6.94361 123.214 6.70504 122.69 6.49206 122.157C6.27908 121.623 6.09171 121.078 5.93045 120.526C5.76918 119.974 5.63403 119.414 5.52607 118.847C5.4181 118.281 5.33733 117.708 5.28424 117.131C5.23114 116.554 5.20584 115.973 5.20916 115.39C5.21248 114.807 5.2442 114.221 5.3055 113.636C5.36679 113.05 5.45747 112.464 5.57833 111.88C5.69919 111.296 5.85023 110.713 6.03232 110.134C6.2144 109.554 6.42772 108.979 6.67277 108.408C6.91781 107.838 7.18851 107.287 7.4833 106.756C7.77809 106.226 8.09691 105.715 8.43756 105.225C8.77821 104.735 9.14072 104.266 9.52336 103.819C9.90599 103.371 10.3087 102.945 10.7294 102.541C11.1502 102.137 11.589 101.756 12.044 101.397C12.499 101.039 12.9701 100.703 13.4553 100.392C13.9406 100.08 14.4401 99.7923 14.9517 99.5292C15.4633 99.2661 15.9871 99.0276 16.5209 98.8145C17.0549 98.6015 17.5989 98.414 18.1511 98.2527C18.7033 98.0914 19.2637 97.9563 19.8302 97.8483C20.3967 97.7403 20.9692 97.6596 21.546 97.6065C22.1228 97.5534 22.7038 97.5279 23.2869 97.5312C23.87 97.5345 24.4554 97.5665 25.0411 97.6278C25.6267 97.689 26.2125 97.7797 26.7968 97.9006C27.381 98.0215 27.9636 98.1725 28.5427 98.3546C28.6555 98.39 28.7741 98.4029 28.8918 98.3925C29.0096 98.3821 29.1241 98.3487 29.2289 98.294C29.3337 98.2393 29.4267 98.1646 29.5026 98.074C29.5785 97.9834 29.6358 97.8787 29.6713 97.7659C29.7067 97.6532 29.7196 97.5346 29.7092 97.4168C29.6988 97.2991 29.6654 97.1846 29.6107 97.0798C29.556 96.975 29.4813 96.882 29.3907 96.8061C29.3001 96.7302 29.1954 96.6729 29.0826 96.6374C28.4457 96.4371 27.8046 96.2711 27.1615 96.138C26.5184 96.005 25.8732 95.905 25.2284 95.8375C24.5836 95.77 23.9391 95.7351 23.2971 95.7314Z" fill="#FCFAF2"/>
<path d="M30.2311 98.0965L24.6126 99.5591L26.151 93.973L30.2311 98.0965Z" fill="#F9AEA5"/>
<path d="M26.1911 93.5464C26.0906 93.5369 25.9899 93.5631 25.9069 93.6204C25.8238 93.6776 25.7636 93.7622 25.7368 93.8593L24.1985 99.4455C24.1785 99.518 24.1781 99.5945 24.1971 99.6673C24.2162 99.7401 24.2541 99.8066 24.3071 99.8601C24.36 99.9136 24.4262 99.9523 24.4989 99.9723C24.5716 99.9922 24.6483 99.9927 24.7212 99.9737L30.3397 98.5111C30.4126 98.4921 30.4793 98.4543 30.5329 98.4014C30.5865 98.3486 30.6253 98.2826 30.6453 98.2101C30.6652 98.1375 30.6657 98.061 30.6467 97.9883C30.6276 97.9155 30.5897 97.849 30.5367 97.7954L26.4565 93.6719C26.3856 93.6002 26.2916 93.5558 26.1911 93.5464ZM26.3681 94.8023L29.4027 97.8691L25.2239 98.957L26.3681 94.8023Z" fill="#FCFAF2"/>
<path d="M16.1216 132.904L21.7401 131.441L20.2018 137.027L16.1216 132.904Z" fill="#F9AEA5"/>
<path d="M21.8099 131.018C21.7505 131.009 21.6897 131.011 21.6315 131.026L16.013 132.489C15.9401 132.508 15.8734 132.546 15.8198 132.599C15.7662 132.652 15.7274 132.718 15.7074 132.79C15.6874 132.863 15.687 132.939 15.706 133.012C15.7251 133.085 15.763 133.151 15.8159 133.205L19.8962 137.328C19.9491 137.382 20.0153 137.42 20.088 137.44C20.1607 137.46 20.2374 137.461 20.3103 137.442C20.3832 137.423 20.4499 137.385 20.5035 137.332C20.5571 137.279 20.5959 137.213 20.6159 137.141L22.1542 131.555C22.1701 131.497 22.1737 131.436 22.1646 131.377C22.1556 131.317 22.1341 131.261 22.1017 131.21C22.0692 131.16 22.0265 131.116 21.9762 131.083C21.926 131.05 21.8693 131.028 21.8099 131.018ZM21.1288 132.043L19.9846 136.198L16.95 133.131L21.1288 132.043Z" fill="#FCFAF2"/>
<path d="M23.1764 129.196H25.8598V122.753H31.4532V120.28H25.8275V117.807H31.4532V115.333H27.2985L33.8619 103.759H27.9775L23.1763 113.442L23.1764 129.196ZM23.1761 129.196H20.4927V122.753H14.8994V120.28H20.5251V117.807H14.8994V115.333H19.054L12.4907 103.759H18.375L23.1763 113.442" fill="#FCFAF2"/>
<path d="M34.7399 0H11.7399V23H34.7399V0Z" fill="#5BAD92"/>
<path d="M34.7399 292H11.7399V315H34.7399V292Z" fill="#5BAD92"/>
</svg>
