<svg width="46" height="315" viewBox="0 0 46 315" fill="none" xmlns="http://www.w3.org/2000/svg">
<path d="M23.3807 25.3644V28.8979L13.329 32.215L33.4323 38.8494L13.329 45.4838L33.4323 52.1182L13.329 58.7525L33.4323 65.3869L13.329 72.0213L33.4323 78.6557L13.329 85.2901L33.4323 91.9244L13.329 98.5588L33.4323 105.193L23.3807 108.51V112.044" stroke="#CBCBCB" stroke-width="5.00001" stroke-linecap="square"/>
<path d="M23.3807 161.34V166.574L13.329 171.487L33.4323 181.315L13.329 191.142L33.4323 200.969L13.329 210.797L33.4323 220.624L13.329 230.451L33.4323 240.279L13.329 250.106L33.4323 259.934L13.329 269.761L33.4323 279.588L23.3807 284.502V289.736" stroke="#CBCBCB" stroke-width="5.00001" stroke-linecap="square"/>
<path d="M45.8501 136.5C45.8501 142.467 43.4796 148.19 39.26 152.41C35.0404 156.629 29.3175 159 23.3501 159C17.3827 159 11.6598 156.629 7.4402 152.41C3.22063 148.19 0.850098 142.467 0.850098 136.5C0.850098 130.533 3.22063 124.81 7.4402 120.59C11.6598 116.371 17.3827 114 23.3501 114C29.3175 114 35.0404 116.371 39.26 120.59C43.4796 124.81 45.8501 130.533 45.8501 136.5Z" fill="#5BAD92"/>
<path d="M32.283 119.154C32.0535 119.219 31.8594 119.373 31.7435 119.582C31.6276 119.79 31.5993 120.037 31.6649 120.266C31.7305 120.496 31.8845 120.69 32.0932 120.806C32.6239 121.1 33.1345 121.419 33.6243 121.76C34.1141 122.101 34.5833 122.463 35.0308 122.846C35.4783 123.229 35.9044 123.631 36.3082 124.052C36.7119 124.473 37.0935 124.911 37.452 125.366C37.8105 125.821 38.1458 126.293 38.4574 126.778C38.769 127.263 39.0567 127.763 39.3197 128.274C39.5828 128.786 39.8214 129.31 40.0344 129.844C40.2474 130.378 40.4347 130.922 40.596 131.474C40.7573 132.026 40.8924 132.587 41.0004 133.153C41.1083 133.72 41.1891 134.292 41.2422 134.869C41.2953 135.446 41.3206 136.027 41.3173 136.61C41.314 137.194 41.2822 137.779 41.221 138.365C41.1596 138.95 41.069 139.536 40.9481 140.12C40.8272 140.705 40.6762 141.287 40.4941 141.867C40.3121 142.446 40.0989 143.022 39.8539 143.592C39.6089 144.162 39.3379 144.713 39.0431 145.244C38.7484 145.775 38.4295 146.285 38.0889 146.775C37.7482 147.265 37.3857 147.734 37.0031 148.181C37.0031 148.181 37.0031 148.182 37.0031 148.182C36.6205 148.629 36.2178 149.055 35.797 149.459C35.3763 149.863 34.9375 150.244 34.4825 150.603C34.0275 150.961 33.5564 151.297 33.0711 151.608C32.5859 151.92 32.0863 152.208 31.5747 152.471C31.0632 152.734 30.5394 152.973 30.0055 153.186C29.4716 153.399 28.9276 153.586 28.3754 153.748C27.8232 153.909 27.2628 154.044 26.6963 154.152C26.1298 154.26 25.5572 154.341 24.9804 154.394C24.4036 154.447 23.8227 154.472 23.2396 154.469C22.6564 154.466 22.071 154.434 21.4854 154.372C20.8998 154.311 20.3139 154.22 19.7297 154.1C19.1454 153.979 18.5628 153.828 17.9837 153.646C17.871 153.61 17.7523 153.597 17.6346 153.608C17.5169 153.618 17.4023 153.652 17.2975 153.706C17.1927 153.761 17.0997 153.836 17.0238 153.926C16.9479 154.017 16.8906 154.122 16.8552 154.234C16.8197 154.347 16.8068 154.466 16.8172 154.583C16.8276 154.701 16.8611 154.816 16.9158 154.92C16.9704 155.025 17.0452 155.118 17.1358 155.194C17.2264 155.27 17.3311 155.327 17.4438 155.363C18.0807 155.563 18.7218 155.729 19.365 155.862C20.0081 155.995 20.6533 156.095 21.298 156.163C21.9428 156.23 22.5874 156.265 23.2294 156.269C23.8713 156.273 24.5107 156.245 25.1454 156.186C25.7802 156.128 26.4102 156.039 27.0333 155.92C27.6565 155.801 28.2728 155.653 28.8801 155.475C29.4873 155.298 30.0855 155.092 30.6725 154.857C31.2596 154.623 31.8355 154.361 32.3981 154.072C32.9607 153.782 33.51 153.466 34.0438 153.123C34.5775 152.78 35.0957 152.411 35.5964 152.017C36.0971 151.622 36.5802 151.202 37.0434 150.758C37.5066 150.313 37.9499 149.844 38.3713 149.351C38.7926 148.858 39.1917 148.342 39.5667 147.803C39.9416 147.264 40.2924 146.702 40.6166 146.118C40.9408 145.534 41.2385 144.929 41.5075 144.302C41.7766 143.676 42.0108 143.043 42.2111 142.406C42.4113 141.77 42.5776 141.128 42.7107 140.485C42.8438 139.842 42.9435 139.197 43.011 138.552C43.011 138.552 43.011 138.552 43.011 138.552C43.0785 137.907 43.1136 137.262 43.1173 136.62C43.1209 135.978 43.0931 135.339 43.0347 134.704C42.9763 134.069 42.8873 133.439 42.7685 132.816C42.6497 132.193 42.5014 131.577 42.324 130.97C42.1467 130.362 41.9404 129.764 41.7062 129.177C41.472 128.59 41.21 128.014 40.9207 127.451C40.6313 126.889 40.3149 126.339 39.9722 125.805C39.6294 125.272 39.2603 124.753 38.8658 124.253C38.4713 123.752 38.0513 123.269 37.6068 122.806C37.1623 122.342 36.6933 121.899 36.2005 121.478C35.7078 121.056 35.1913 120.657 34.6521 120.282C34.1129 119.907 33.5509 119.556 32.9673 119.232C32.7586 119.116 32.5125 119.088 32.283 119.154V119.154Z" fill="#FCFAF2"/>
<path d="M23.4708 116.731C22.8288 116.728 22.1895 116.756 21.5547 116.814C20.92 116.872 20.29 116.961 19.6668 117.08C19.0437 117.199 18.4273 117.348 17.8201 117.525C17.2129 117.702 16.6147 117.909 16.0276 118.143C15.4406 118.377 14.8646 118.639 14.302 118.928C13.7395 119.218 13.1902 119.534 12.6564 119.877C12.1226 120.22 11.6044 120.589 11.1038 120.983C10.6031 121.378 10.12 121.798 9.65676 122.243C9.19357 122.687 8.7502 123.156 8.32891 123.649C7.90761 124.142 7.50846 124.658 7.13348 125.197C6.75851 125.737 6.40777 126.299 6.08356 126.883C5.75934 127.466 5.46168 128.072 5.19264 128.698C4.92359 129.324 4.68933 129.957 4.48907 130.594C4.28881 131.231 4.1225 131.872 3.98946 132.515C3.85642 133.158 3.75666 133.803 3.68917 134.448C3.62168 135.093 3.58652 135.738 3.58287 136.38C3.57922 137.022 3.60704 137.661 3.66547 138.296C3.7239 138.931 3.81291 139.561 3.93166 140.184C4.05042 140.807 4.19879 141.424 4.37613 142.031C4.55346 142.638 4.75981 143.236 4.99399 143.823C5.22817 144.41 5.49018 144.986 5.7795 145.549C6.06881 146.112 6.38525 146.661 6.728 147.195C7.07075 147.729 7.4399 148.247 7.83439 148.748C8.22888 149.248 8.64886 149.731 9.09338 150.195C9.53788 150.658 10.0069 151.101 10.4996 151.522C10.9924 151.944 11.5089 152.343 12.048 152.718C12.5872 153.093 13.1492 153.444 13.7329 153.768C13.9415 153.884 14.1877 153.912 14.4172 153.847C14.6467 153.781 14.8407 153.627 14.9567 153.418C15.0726 153.21 15.1008 152.964 15.0353 152.734C14.9697 152.505 14.8156 152.311 14.607 152.195C14.0763 151.9 13.5656 151.581 13.0758 151.24C12.586 150.9 12.1169 150.537 11.6694 150.155C11.2218 149.772 10.7958 149.369 10.392 148.948C9.98822 148.528 9.60666 148.089 9.24817 147.634C8.88969 147.179 8.55435 146.707 8.24276 146.222C7.93116 145.737 7.6435 145.237 7.38041 144.726C7.11731 144.214 6.87874 143.69 6.66577 143.157C6.45279 142.623 6.26541 142.078 6.10415 141.526C5.94289 140.974 5.80774 140.414 5.69977 139.847C5.59181 139.281 5.51104 138.708 5.45794 138.131C5.40484 137.554 5.37955 136.973 5.38287 136.39C5.38618 135.807 5.41791 135.221 5.4792 134.636C5.5405 134.05 5.63117 133.464 5.75204 132.88C5.8729 132.296 6.02394 131.713 6.20602 131.134C6.38811 130.554 6.60143 129.979 6.84648 129.408C7.09152 128.838 7.36221 128.287 7.65701 127.756C7.9518 127.226 8.27062 126.715 8.61126 126.225C8.95191 125.735 9.31443 125.266 9.69707 124.819C10.0797 124.371 10.4824 123.945 10.9031 123.541C11.3239 123.137 11.7627 122.756 12.2177 122.397C12.6727 122.039 13.1438 121.703 13.629 121.392C14.1143 121.08 14.6138 120.792 15.1254 120.529C15.637 120.266 16.1608 120.028 16.6947 119.815C17.2286 119.602 17.7726 119.414 18.3248 119.253C18.877 119.091 19.4374 118.956 20.0039 118.848C20.5704 118.74 21.1429 118.66 21.7197 118.606C22.2965 118.553 22.8775 118.528 23.4606 118.531C24.0438 118.535 24.6291 118.566 25.2148 118.628C25.8004 118.689 26.3862 118.78 26.9705 118.901C27.5547 119.021 28.1373 119.172 28.7164 119.355C28.8292 119.39 28.9478 119.403 29.0655 119.393C29.1833 119.382 29.2978 119.349 29.4026 119.294C29.5074 119.239 29.6004 119.165 29.6763 119.074C29.7522 118.983 29.8095 118.879 29.845 118.766C29.8804 118.653 29.8933 118.535 29.8829 118.417C29.8725 118.299 29.8391 118.185 29.7844 118.08C29.7297 117.975 29.655 117.882 29.5644 117.806C29.4738 117.73 29.3691 117.673 29.2563 117.637C28.6194 117.437 27.9783 117.271 27.3352 117.138C26.6921 117.005 26.0469 116.905 25.4021 116.838C24.7573 116.77 24.1128 116.735 23.4708 116.731Z" fill="#FCFAF2"/>
<path d="M30.4048 119.096L24.7864 120.559L26.3247 114.973L30.4048 119.096Z" fill="#F9AEA5"/>
<path d="M26.3648 114.546C26.2643 114.537 26.1637 114.563 26.0806 114.62C25.9975 114.678 25.9373 114.762 25.9105 114.859L24.3722 120.446C24.3522 120.518 24.3518 120.595 24.3708 120.667C24.3899 120.74 24.4278 120.807 24.4808 120.86C24.5338 120.914 24.5999 120.952 24.6726 120.972C24.7453 120.992 24.822 120.993 24.8949 120.974L30.5134 119.511C30.5863 119.492 30.653 119.454 30.7066 119.401C30.7603 119.349 30.799 119.283 30.819 119.21C30.839 119.138 30.8394 119.061 30.8204 118.988C30.8013 118.915 30.7634 118.849 30.7105 118.795L26.6303 114.672C26.5593 114.6 26.4653 114.556 26.3648 114.546ZM26.5418 115.802L29.5764 118.869L25.3976 119.957L26.5418 115.802Z" fill="#FCFAF2"/>
<path d="M16.2953 153.904L21.9138 152.441L20.3755 158.027L16.2953 153.904Z" fill="#F9AEA5"/>
<path d="M21.9836 152.018C21.9243 152.009 21.8635 152.011 21.8052 152.026L16.1867 153.489C16.1138 153.508 16.0472 153.546 15.9935 153.599C15.9399 153.652 15.9011 153.718 15.8811 153.79C15.8612 153.863 15.8607 153.939 15.8797 154.012C15.8988 154.085 15.9367 154.151 15.9897 154.205L20.0699 158.328C20.1229 158.382 20.189 158.42 20.2617 158.44C20.3344 158.46 20.4111 158.461 20.484 158.442C20.5569 158.423 20.6236 158.385 20.6772 158.332C20.7308 158.279 20.7696 158.213 20.7896 158.141L22.3279 152.555C22.3439 152.497 22.3474 152.436 22.3384 152.377C22.3293 152.317 22.3079 152.261 22.2754 152.21C22.2429 152.16 22.2002 152.116 22.1499 152.083C22.0997 152.05 22.043 152.028 21.9836 152.018ZM21.3025 153.043L20.1583 157.198L17.1237 154.131L21.3025 153.043Z" fill="#FCFAF2"/>
<path d="M23.3501 150.196H26.0335V143.753H31.6269V141.28H26.0012V138.807H31.6269V136.333H27.4723L34.0356 124.759H28.1512L23.35 134.442L23.3501 150.196ZM23.3499 150.196H20.6664V143.753H15.0731V141.28H20.6988V138.807H15.0731V136.333H19.2277L12.6644 124.759H18.5487L23.35 134.442" fill="#FCFAF2"/>
<path d="M34.9136 0H11.9136V23H34.9136V0Z" fill="#5BAD92"/>
<path d="M34.9136 292H11.9136V315H34.9136V292Z" fill="#5BAD92"/>
</svg>
