<svg width="46" height="315" viewBox="0 0 46 315" fill="none" xmlns="http://www.w3.org/2000/svg">
<path d="M20.925 22.7432V24.3619V25.3673L5.08124 28.6111L25.1848 32.7274L5.08124 36.8438L25.1828 40.9602L5.08124 45.0752L25.1828 49.1903L5.08124 53.3067L25.1848 57.423L5.08124 61.5394L25.1828 65.6558L5.08124 69.7708L25.1828 73.8872L20.925 74.7585V78.1363V79.7551H25.925V78.1363V77.131L41.7687 73.8872L21.6652 69.7708L41.7687 65.6545L21.6652 61.5381L41.7687 57.423L21.6652 53.308L41.7687 49.1916L21.6652 45.0752L41.7687 40.9589L21.6652 36.8425L41.7687 32.7274L21.6652 28.6124L25.925 27.7398V24.3619V22.7432H20.925Z" fill="#CBCBCB"/>
<path d="M23.4245 126.421V133.078L13.3728 139.328L33.4761 151.828L13.3728 164.328L33.4761 176.828L13.3728 189.328L33.4761 201.828L13.3728 214.328L33.4761 226.828L13.3728 239.328L33.4761 251.828L13.3728 264.328L33.4761 276.829L23.4245 283.079V289.736" stroke="#CBCBCB" stroke-width="5.00001" stroke-linecap="square"/>
<path d="M45.8939 101.5C45.8939 107.467 43.5234 113.19 39.3038 117.41C35.0843 121.629 29.3613 124 23.3939 124C17.4265 124 11.7036 121.629 7.48402 117.41C3.26445 113.19 0.893921 107.467 0.893921 101.5C0.893921 95.5326 3.26445 89.8097 7.48402 85.5901C11.7036 81.3705 17.4265 79 23.3939 79C29.3613 79 35.0843 81.3705 39.3038 85.5901C43.5234 89.8097 45.8939 95.5326 45.8939 101.5Z" fill="#5BAD92"/>
<path d="M32.3268 84.1535C32.0973 84.2191 31.9032 84.3732 31.7873 84.5818C31.6714 84.7905 31.6432 85.0366 31.7087 85.2661C31.7743 85.4956 31.9284 85.6897 32.137 85.8056C32.6677 86.1004 33.1784 86.4192 33.6682 86.7598C34.158 87.1005 34.6271 87.4632 35.0746 87.8459C35.5222 88.2285 35.9482 88.6311 36.352 89.0519C36.7558 89.4727 37.1373 89.9115 37.4958 90.3665C37.8543 90.8215 38.1896 91.2928 38.5012 91.7781C38.8128 92.2634 39.1005 92.7628 39.3636 93.2744C39.6267 93.7861 39.8653 94.3097 40.0782 94.8437C40.2912 95.3776 40.4786 95.9218 40.6398 96.474C40.8011 97.0263 40.9363 97.5866 41.0442 98.1531C41.1522 98.7197 41.233 99.2923 41.2861 99.8692C41.3392 100.446 41.3644 101.027 41.3611 101.61C41.3578 102.194 41.3261 102.779 41.2648 103.365C41.2035 103.95 41.1128 104.536 40.992 105.12C40.8711 105.705 40.7201 106.287 40.538 106.867C40.3559 107.446 40.1428 108.022 39.8977 108.592C39.6527 109.162 39.3818 109.713 39.087 110.244C38.7922 110.775 38.4734 111.285 38.1327 111.775C37.7921 112.265 37.4296 112.734 37.0469 113.181C37.0469 113.181 37.0469 113.182 37.0469 113.182C36.6643 113.629 36.2616 114.055 35.8409 114.459C35.4201 114.863 34.9813 115.244 34.5263 115.603C34.0713 115.961 33.6002 116.297 33.115 116.608C32.6297 116.92 32.1302 117.208 31.6186 117.471C31.107 117.734 30.5832 117.973 30.0493 118.186C29.5154 118.399 28.9714 118.586 28.4192 118.748C27.867 118.909 27.3066 119.044 26.7401 119.152C26.1736 119.26 25.6011 119.341 25.0243 119.394C24.4475 119.447 23.8665 119.472 23.2834 119.469C22.7003 119.466 22.1149 119.434 21.5292 119.372C20.9436 119.311 20.3578 119.22 19.7735 119.1C19.1893 118.979 18.6067 118.828 18.0276 118.646C17.9148 118.61 17.7962 118.597 17.6784 118.608C17.5607 118.618 17.4462 118.652 17.3414 118.706C17.2366 118.761 17.1436 118.836 17.0677 118.926C16.9918 119.017 16.9345 119.122 16.899 119.234C16.8636 119.347 16.8507 119.466 16.8611 119.583C16.8715 119.701 16.9049 119.816 16.9596 119.92C17.0143 120.025 17.089 120.118 17.1796 120.194C17.2702 120.27 17.3749 120.327 17.4877 120.363C18.1246 120.563 18.7657 120.729 19.4088 120.862C20.0519 120.995 20.6971 121.095 21.3419 121.163C21.9867 121.23 22.6312 121.265 23.2732 121.269C23.9152 121.273 24.5545 121.245 25.1893 121.186C25.824 121.128 26.454 121.039 27.0772 120.92C27.7003 120.801 28.3167 120.653 28.9239 120.475C29.5311 120.298 30.1293 120.092 30.7164 119.857C31.3034 119.623 31.8794 119.361 32.442 119.072C33.0045 118.782 33.5538 118.466 34.0876 118.123C34.6214 117.78 35.1396 117.411 35.6402 117.017C36.1409 116.622 36.624 116.202 37.0872 115.758C37.5504 115.313 37.9938 114.844 38.4151 114.351C38.8364 113.858 39.2355 113.342 39.6105 112.803C39.9855 112.264 40.3362 111.702 40.6604 111.118C40.9847 110.534 41.2823 109.929 41.5514 109.302C41.8204 108.676 42.0547 108.043 42.2549 107.406C42.4552 106.77 42.6215 106.128 42.7545 105.485C42.8876 104.842 42.9873 104.197 43.0548 103.552C43.0548 103.552 43.0548 103.552 43.0548 103.552C43.1223 102.907 43.1575 102.262 43.1611 101.62C43.1648 100.978 43.137 100.339 43.0785 99.7042C43.0201 99.0694 42.9311 98.4395 42.8123 97.8163C42.6936 97.1931 42.5452 96.5769 42.3679 95.9696C42.1905 95.3623 41.9842 94.764 41.75 94.1769C41.5158 93.5898 41.2538 93.0139 40.9645 92.4513C40.6752 91.8887 40.3588 91.3392 40.016 90.8054C39.6732 90.2716 39.3041 89.7533 38.9096 89.2526C38.5151 88.7519 38.0951 88.2688 37.6506 87.8056C37.2061 87.3423 36.7371 86.899 36.2444 86.4777C35.7516 86.0564 35.2351 85.6571 34.6959 85.2821C34.1568 84.9071 33.5948 84.5564 33.0111 84.2321C32.8025 84.1162 32.5563 84.088 32.3268 84.1535V84.1535Z" fill="#FCFAF2"/>
<path d="M23.5146 81.7314C22.8726 81.7278 22.2333 81.7556 21.5986 81.814C20.9638 81.8725 20.3338 81.9614 19.7106 82.0802C19.0875 82.199 18.4712 82.3475 17.8639 82.5249C17.2567 82.7023 16.6585 82.9086 16.0715 83.1428C15.4844 83.377 14.9084 83.6391 14.3459 83.9285C13.7833 84.2178 13.234 84.5342 12.7002 84.877C12.1664 85.2198 11.6483 85.5889 11.1476 85.9834C10.6469 86.3779 10.1638 86.798 9.70058 87.2426C9.2374 87.6871 8.79403 88.1563 8.37273 88.6491C7.95143 89.1419 7.55228 89.6583 7.17731 90.1975C6.80233 90.7367 6.4516 91.2988 6.12738 91.8826C5.80317 92.4663 5.5055 93.0716 5.23646 93.6978C4.96741 94.324 4.73315 94.9567 4.53289 95.5937C4.33264 96.2307 4.16633 96.8719 4.03329 97.5151C3.90024 98.1583 3.80048 98.8033 3.73299 99.4482C3.66551 100.093 3.63034 100.738 3.62669 101.38C3.62304 102.022 3.65086 102.661 3.70929 103.296C3.76773 103.931 3.85673 104.561 3.97549 105.184C4.09424 105.807 4.24262 106.424 4.41995 107.031C4.59728 107.638 4.80364 108.236 5.03781 108.823C5.27199 109.41 5.53401 109.986 5.82332 110.549C6.11264 111.112 6.42907 111.661 6.77182 112.195C7.11457 112.729 7.48373 113.247 7.87822 113.748C8.27271 114.248 8.69268 114.731 9.1372 115.195C9.58171 115.658 10.0507 116.101 10.5434 116.522C11.0362 116.944 11.5527 117.343 12.0919 117.718C12.631 118.093 13.193 118.444 13.7767 118.768C13.9854 118.884 14.2315 118.912 14.461 118.847C14.6905 118.781 14.8846 118.627 15.0005 118.418C15.1164 118.21 15.1447 117.964 15.0791 117.734C15.0135 117.505 14.8595 117.311 14.6508 117.195C14.1201 116.9 13.6095 116.581 13.1197 116.24C12.6298 115.9 12.1607 115.537 11.7132 115.155C11.2656 114.772 10.8396 114.369 10.4358 113.948C10.032 113.528 9.65049 113.089 9.292 112.634C8.93351 112.179 8.59818 111.707 8.28658 111.222C7.97499 110.737 7.68732 110.237 7.42423 109.726C7.16114 109.214 6.92257 108.69 6.70959 108.157C6.49661 107.623 6.30924 107.078 6.14798 106.526C5.98671 105.974 5.85156 105.414 5.7436 104.847C5.63563 104.281 5.55486 103.708 5.50177 103.131C5.44867 102.554 5.42337 101.973 5.42669 101.39C5.43001 100.807 5.46173 100.221 5.52303 99.6355C5.58432 99.0499 5.675 98.4641 5.79586 97.8798C5.91672 97.2955 6.06776 96.7128 6.24985 96.1336C6.43193 95.5545 6.64525 94.9788 6.8903 94.4085C7.13534 93.8382 7.40604 93.2872 7.70083 92.7564C7.99562 92.2257 8.31444 91.7151 8.65509 91.2253C8.99574 90.7354 9.35825 90.2664 9.74089 89.8188C10.1235 89.3712 10.5262 88.945 10.9469 88.5412C11.3677 88.1374 11.8065 87.7559 12.2615 87.3974C12.7165 87.0389 13.1876 86.7034 13.6729 86.3918C14.1581 86.0801 14.6577 85.7923 15.1692 85.5292C15.6808 85.2661 16.2046 85.0276 16.7385 84.8145C17.2724 84.6015 17.8164 84.414 18.3686 84.2527C18.9208 84.0914 19.4812 83.9563 20.0477 83.8483C20.6142 83.7403 21.1868 83.6596 21.7636 83.6065C22.3403 83.5534 22.9213 83.5279 23.5044 83.5312C24.0876 83.5345 24.673 83.5665 25.2586 83.6278C25.8442 83.689 26.43 83.7797 27.0143 83.9006C27.5985 84.0215 28.1811 84.1725 28.7603 84.3546C28.873 84.39 28.9916 84.4029 29.1094 84.3925C29.2271 84.3821 29.3416 84.3487 29.4464 84.294C29.5512 84.2393 29.6442 84.1646 29.7201 84.074C29.796 83.9834 29.8534 83.8787 29.8888 83.7659C29.9243 83.6532 29.9372 83.5346 29.9268 83.4168C29.9164 83.2991 29.8829 83.1846 29.8282 83.0798C29.7736 82.975 29.6988 82.882 29.6082 82.8061C29.5176 82.7302 29.4129 82.6729 29.3002 82.6374C28.6632 82.4371 28.0222 82.2711 27.379 82.138C26.7359 82.005 26.0907 81.905 25.4459 81.8375C24.8011 81.77 24.1566 81.7351 23.5146 81.7314Z" fill="#FCFAF2"/>
<path d="M30.4487 84.0965L24.8302 85.5591L26.3685 79.973L30.4487 84.0965Z" fill="#F9AEA5"/>
<path d="M26.4086 79.5464C26.3081 79.5369 26.2075 79.5631 26.1244 79.6204C26.0413 79.6776 25.9811 79.7622 25.9544 79.8593L24.416 85.4455C24.396 85.518 24.3956 85.5945 24.4146 85.6673C24.4337 85.7401 24.4716 85.8066 24.5246 85.8601C24.5776 85.9136 24.6437 85.9523 24.7164 85.9723C24.7891 85.9922 24.8658 85.9927 24.9387 85.9737L30.5572 84.5111C30.6301 84.4921 30.6968 84.4543 30.7504 84.4014C30.8041 84.3486 30.8428 84.2826 30.8628 84.2101C30.8828 84.1375 30.8833 84.061 30.8642 83.9883C30.8452 83.9155 30.8072 83.849 30.7543 83.7954L26.6741 79.6719C26.6031 79.6002 26.5091 79.5558 26.4086 79.5464ZM26.5856 80.8023L29.6203 83.8691L25.4414 84.957L26.5856 80.8023Z" fill="#FCFAF2"/>
<path d="M16.3392 118.904L21.9576 117.441L20.4193 123.027L16.3392 118.904Z" fill="#F9AEA5"/>
<path d="M22.0275 117.018C21.9681 117.009 21.9073 117.011 21.849 117.026L16.2306 118.489C16.1576 118.508 16.091 118.546 16.0373 118.599C15.9837 118.652 15.9449 118.718 15.925 118.79C15.905 118.863 15.9045 118.939 15.9236 119.012C15.9426 119.085 15.9805 119.151 16.0335 119.205L20.1137 123.328C20.1667 123.382 20.2328 123.42 20.3055 123.44C20.3782 123.46 20.4549 123.461 20.5278 123.442C20.6008 123.423 20.6674 123.385 20.721 123.332C20.7747 123.279 20.8134 123.213 20.8334 123.141L22.3718 117.555C22.3877 117.497 22.3912 117.436 22.3822 117.377C22.3731 117.317 22.3517 117.261 22.3192 117.21C22.2868 117.16 22.244 117.116 22.1938 117.083C22.1435 117.05 22.0869 117.028 22.0275 117.018ZM21.3464 118.043L20.2022 122.198L17.1675 119.131L21.3464 118.043Z" fill="#FCFAF2"/>
<path d="M23.3939 115.196H26.0773V108.753H31.6707V106.28H26.045V103.807H31.6707V101.333H27.5161L34.0794 89.7585H28.195L23.3938 99.4418L23.3939 115.196ZM23.3937 115.196H20.7103V108.753H15.1169V106.28H20.7426V103.807H15.1169V101.333H19.2715L12.7082 89.7585H18.5925L23.3938 99.4418" fill="#FCFAF2"/>
<path d="M34.9574 0H11.9574V23H34.9574V0Z" fill="#5BAD92"/>
<path d="M34.9574 292H11.9574V315H34.9574V292Z" fill="#5BAD92"/>
</svg>
