<svg width="46" height="315" viewBox="0 0 46 315" fill="none" xmlns="http://www.w3.org/2000/svg">
<path d="M22.9894 25.0225V28.2733L12.9377 31.3253L33.0411 37.4292L12.9377 43.5331L33.0411 49.6369L12.9377 55.7408L33.0411 61.8447L12.9377 67.9486L33.0411 74.0525L12.9377 80.1564L33.0411 86.2603L12.9377 92.3642L33.0411 98.468L22.9894 101.52V104.771" stroke="#CBCBCB" stroke-width="5.00001" stroke-linecap="square"/>
<path d="M22.9894 154.28V159.802L12.9377 164.985L33.0411 175.353L12.9377 185.721L33.0411 196.089L12.9377 206.456L33.0411 216.824L12.9377 227.192L33.0411 237.559L12.9377 247.927L33.0411 258.295L12.9377 268.663L33.0411 279.03L22.9894 284.214V289.736" stroke="#CBCBCB" stroke-width="5.00001" stroke-linecap="square"/>
<path d="M45.4589 129.5C45.4589 135.467 43.0883 141.19 38.8688 145.41C34.6492 149.629 28.9262 152 22.9589 152C16.9915 152 11.2685 149.629 7.04896 145.41C2.82939 141.19 0.458862 135.467 0.458862 129.5C0.458862 123.533 2.82939 117.81 7.04896 113.59C11.2685 109.371 16.9915 107 22.9589 107C28.9262 107 34.6492 109.371 38.8688 113.59C43.0883 117.81 45.4589 123.533 45.4589 129.5Z" fill="#5BAD92"/>
<path d="M31.8917 112.154C31.6622 112.219 31.4682 112.373 31.3523 112.582C31.2364 112.79 31.2081 113.037 31.2737 113.266C31.3392 113.496 31.4933 113.69 31.7019 113.806C32.2326 114.1 32.7433 114.419 33.2331 114.76C33.7229 115.101 34.192 115.463 34.6396 115.846C35.0871 116.229 35.5131 116.631 35.9169 117.052C36.3207 117.473 36.7023 117.911 37.0607 118.366C37.4192 118.821 37.7546 119.293 38.0662 119.778C38.3778 120.263 38.6654 120.763 38.9285 121.274C39.1916 121.786 39.4302 122.31 39.6432 122.844C39.8561 123.378 40.0435 123.922 40.2048 124.474C40.366 125.026 40.5012 125.587 40.6091 126.153C40.7171 126.72 40.7979 127.292 40.851 127.869C40.9041 128.446 40.9294 129.027 40.9261 129.61C40.9227 130.194 40.891 130.779 40.8297 131.365C40.7684 131.95 40.6777 132.536 40.5569 133.12C40.436 133.705 40.285 134.287 40.1029 134.867C39.9208 135.446 39.7077 136.022 39.4627 136.592C39.2176 137.162 38.9467 137.713 38.6519 138.244C38.3571 138.775 38.0383 139.285 37.6977 139.775C37.357 140.265 36.9945 140.734 36.6119 141.181C36.6119 141.181 36.6119 141.182 36.6119 141.182C36.2292 141.629 35.8266 142.055 35.4058 142.459C34.985 142.863 34.5462 143.244 34.0912 143.603C33.6363 143.961 33.1652 144.297 32.6799 144.608C32.1946 144.92 31.6951 145.208 31.1835 145.471C30.6719 145.734 30.1482 145.973 29.6143 146.186C29.0804 146.399 28.5363 146.586 27.9841 146.748C27.4319 146.909 26.8715 147.044 26.305 147.152C25.7385 147.26 25.166 147.341 24.5892 147.394C24.0124 147.447 23.4315 147.472 22.8483 147.469C22.2652 147.466 21.6798 147.434 21.0942 147.372C20.5085 147.311 19.9227 147.22 19.3385 147.1C18.7542 146.979 18.1716 146.828 17.5925 146.646C17.4797 146.61 17.3611 146.597 17.2434 146.608C17.1256 146.618 17.0111 146.652 16.9063 146.706C16.8015 146.761 16.7085 146.836 16.6326 146.926C16.5567 147.017 16.4994 147.122 16.4639 147.234C16.4285 147.347 16.4156 147.466 16.426 147.583C16.4364 147.701 16.4699 147.816 16.5245 147.92C16.5792 148.025 16.654 148.118 16.7446 148.194C16.8352 148.27 16.9398 148.327 17.0526 148.363C17.6895 148.563 18.3306 148.729 18.9737 148.862C19.6169 148.995 20.262 149.095 20.9068 149.163C21.5516 149.23 22.1962 149.265 22.8381 149.269C23.4801 149.273 24.1194 149.245 24.7542 149.186C25.3889 149.128 26.019 149.039 26.6421 148.92C27.2652 148.801 27.8816 148.653 28.4888 148.475C29.0961 148.298 29.6942 148.092 30.2813 147.857C30.8683 147.623 31.4443 147.361 32.0069 147.072C32.5695 146.782 33.1187 146.466 33.6525 146.123C34.1863 145.78 34.7045 145.411 35.2052 145.017C35.7058 144.622 36.189 144.202 36.6522 143.758C37.1153 143.313 37.5587 142.844 37.98 142.351C38.4013 141.858 38.8005 141.342 39.1754 140.803C39.5504 140.264 39.9011 139.702 40.2254 139.118C40.5496 138.534 40.8472 137.929 41.1163 137.302C41.3853 136.676 41.6196 136.043 41.8199 135.406C42.0201 134.77 42.1864 134.128 42.3195 133.485C42.4525 132.842 42.5523 132.197 42.6198 131.552C42.6198 131.552 42.6198 131.552 42.6198 131.552C42.6872 130.907 42.7224 130.262 42.7261 129.62C42.7297 128.978 42.7019 128.339 42.6434 127.704C42.585 127.069 42.496 126.439 42.3773 125.816C42.2585 125.193 42.1101 124.577 41.9328 123.97C41.7555 123.362 41.5491 122.764 41.3149 122.177C41.0808 121.59 40.8187 121.014 40.5294 120.451C40.2401 119.889 39.9237 119.339 39.5809 118.805C39.2382 118.272 38.869 117.753 38.4745 117.253C38.08 116.752 37.6601 116.269 37.2155 115.806C36.771 115.342 36.3021 114.899 35.8093 114.478C35.3165 114.056 34.8 113.657 34.2609 113.282C33.7217 112.907 33.1597 112.556 32.576 112.232C32.3674 112.116 32.1212 112.088 31.8917 112.154V112.154Z" fill="#FCFAF2"/>
<path d="M23.0796 109.731C22.4376 109.728 21.7982 109.756 21.1635 109.814C20.5288 109.872 19.8987 109.961 19.2756 110.08C18.6525 110.199 18.0361 110.348 17.4289 110.525C16.8216 110.702 16.2234 110.909 15.6364 111.143C15.0493 111.377 14.4734 111.639 13.9108 111.928C13.3482 112.218 12.7989 112.534 12.2652 112.877C11.7314 113.22 11.2132 113.589 10.7125 113.983C10.2118 114.378 9.72872 114.798 9.26553 115.243C8.80234 115.687 8.35897 116.156 7.93767 116.649C7.51637 117.142 7.11722 117.658 6.74225 118.197C6.36727 118.737 6.01654 119.299 5.69232 119.883C5.36811 120.466 5.07045 121.072 4.8014 121.698C4.53236 122.324 4.29809 122.957 4.09783 123.594C3.89758 124.231 3.73127 124.872 3.59823 125.515C3.46518 126.158 3.36542 126.803 3.29793 127.448C3.23045 128.093 3.19528 128.738 3.19163 129.38C3.18798 130.022 3.2158 130.661 3.27424 131.296C3.33267 131.931 3.42167 132.561 3.54043 133.184C3.65918 133.807 3.80756 134.424 3.98489 135.031C4.16222 135.638 4.36858 136.236 4.60275 136.823C4.83693 137.41 5.09895 137.986 5.38826 138.549C5.67758 139.112 5.99401 139.661 6.33676 140.195C6.67951 140.729 7.04867 141.247 7.44316 141.748C7.83765 142.248 8.25762 142.731 8.70214 143.195C9.14665 143.658 9.61563 144.101 10.1084 144.522C10.6011 144.944 11.1176 145.343 11.6568 145.718C12.196 146.093 12.758 146.444 13.3417 146.768C13.5503 146.884 13.7965 146.912 14.026 146.847C14.2555 146.781 14.4495 146.627 14.5654 146.418C14.6813 146.21 14.7096 145.964 14.644 145.734C14.5784 145.505 14.4244 145.311 14.2157 145.195C13.6851 144.9 13.1744 144.581 12.6846 144.24C12.1948 143.9 11.7257 143.537 11.2781 143.155C10.8306 142.772 10.4045 142.369 10.0008 141.948C9.59698 141.528 9.21543 141.089 8.85694 140.634C8.49845 140.179 8.16312 139.707 7.85152 139.222C7.53993 138.737 7.25226 138.237 6.98917 137.726C6.72608 137.214 6.48751 136.69 6.27453 136.157C6.06155 135.623 5.87418 135.078 5.71292 134.526C5.55166 133.974 5.4165 133.414 5.30854 132.847C5.20058 132.281 5.1198 131.708 5.06671 131.131C5.01361 130.554 4.98832 129.973 4.99163 129.39C4.99495 128.807 5.02667 128.221 5.08797 127.636C5.14926 127.05 5.23994 126.464 5.3608 125.88C5.48166 125.296 5.6327 124.713 5.81479 124.134C5.99687 123.554 6.21019 122.979 6.45524 122.408C6.70028 121.838 6.97098 121.287 7.26577 120.756C7.56056 120.226 7.87938 119.715 8.22003 119.225C8.56068 118.735 8.92319 118.266 9.30583 117.819C9.68847 117.371 10.0911 116.945 10.5119 116.541C10.9326 116.137 11.3715 115.756 11.8265 115.397C12.2814 115.039 12.7525 114.703 13.2378 114.392C13.7231 114.08 14.2226 113.792 14.7342 113.529C15.2458 113.266 15.7695 113.028 16.3034 112.815C16.8373 112.602 17.3814 112.414 17.9336 112.253C18.4858 112.091 19.0462 111.956 19.6126 111.848C20.1791 111.74 20.7517 111.66 21.3285 111.606C21.9053 111.553 22.4862 111.528 23.0694 111.531C23.6525 111.535 24.2379 111.566 24.8235 111.628C25.4091 111.689 25.995 111.78 26.5792 111.901C27.1635 112.021 27.7461 112.172 28.3252 112.355C28.4379 112.39 28.5566 112.403 28.6743 112.393C28.7921 112.382 28.9066 112.349 29.0114 112.294C29.1162 112.239 29.2092 112.165 29.2851 112.074C29.361 111.983 29.4183 111.879 29.4537 111.766C29.4892 111.653 29.5021 111.535 29.4917 111.417C29.4813 111.299 29.4478 111.185 29.3932 111.08C29.3385 110.975 29.2637 110.882 29.1731 110.806C29.0825 110.73 28.9779 110.673 28.8651 110.637C28.2282 110.437 27.5871 110.271 26.944 110.138C26.3008 110.005 25.6557 109.905 25.0109 109.838C24.3661 109.77 23.7215 109.735 23.0796 109.731Z" fill="#FCFAF2"/>
<path d="M30.0136 112.096L24.3951 113.559L25.9334 107.973L30.0136 112.096Z" fill="#F9AEA5"/>
<path d="M25.9736 107.546C25.873 107.537 25.7724 107.563 25.6893 107.62C25.6063 107.678 25.5461 107.762 25.5193 107.859L23.9809 113.446C23.961 113.518 23.9605 113.595 23.9796 113.667C23.9986 113.74 24.0366 113.807 24.0895 113.86C24.1425 113.914 24.2087 113.952 24.2814 113.972C24.3541 113.992 24.4307 113.993 24.5037 113.974L30.1221 112.511C30.1951 112.492 30.2617 112.454 30.3154 112.401C30.369 112.349 30.4078 112.283 30.4277 112.21C30.4477 112.138 30.4482 112.061 30.4292 111.988C30.4101 111.915 30.3722 111.849 30.3192 111.795L26.239 107.672C26.1681 107.6 26.0741 107.556 25.9736 107.546ZM26.1505 108.802L29.1852 111.869L25.0064 112.957L26.1505 108.802Z" fill="#FCFAF2"/>
<path d="M15.9041 146.904L21.5226 145.441L19.9842 151.027L15.9041 146.904Z" fill="#F9AEA5"/>
<path d="M21.5924 145.018C21.533 145.009 21.4722 145.011 21.414 145.026L15.7955 146.489C15.7226 146.508 15.6559 146.546 15.6023 146.599C15.5486 146.652 15.5099 146.718 15.4899 146.79C15.4699 146.863 15.4694 146.939 15.4885 147.012C15.5075 147.085 15.5454 147.151 15.5984 147.205L19.6786 151.328C19.7316 151.382 19.7978 151.42 19.8705 151.44C19.9432 151.46 20.0198 151.461 20.0928 151.442C20.1657 151.423 20.2323 151.385 20.286 151.332C20.3396 151.279 20.3784 151.213 20.3983 151.141L21.9367 145.555C21.9526 145.497 21.9562 145.436 21.9471 145.377C21.9381 145.317 21.9166 145.261 21.8841 145.21C21.8517 145.16 21.8089 145.116 21.7587 145.083C21.7084 145.05 21.6518 145.028 21.5924 145.018ZM20.9113 146.043L19.7671 150.198L16.7324 147.131L20.9113 146.043Z" fill="#FCFAF2"/>
<path d="M22.9589 143.196H25.6423V136.753H31.2356V134.28H25.6099V131.807H31.2356V129.333H27.081L33.6443 117.759H27.76L22.9587 127.442L22.9589 143.196ZM22.9586 143.196H20.2752V136.753H14.6818V134.28H20.3075V131.807H14.6818V129.333H18.8365L12.2731 117.759H18.1575L22.9587 127.442" fill="#FCFAF2"/>
<path d="M34.5223 0H11.5223V23H34.5223V0Z" fill="#5BAD92"/>
<path d="M34.5223 292H11.5223V315H34.5223V292Z" fill="#5BAD92"/>
</svg>
