<svg width="46" height="315" viewBox="0 0 46 315" fill="none" xmlns="http://www.w3.org/2000/svg">
<path d="M23.1633 25.3831V29.4873L13.1116 33.3404L33.2149 41.0465L13.1116 48.7527L33.2149 56.4588L13.1116 64.1649L33.2149 71.8711L13.1116 79.5772L33.2149 87.2833L13.1116 94.9894L33.2149 102.696L13.1116 110.402L33.2149 118.108L23.1633 121.961V126.065" stroke="#CBCBCB" stroke-width="5.00001" stroke-linecap="square"/>
<path d="M23.1633 175.107V179.779L13.1116 184.166L33.2149 192.94L13.1116 201.713L33.2149 210.487L13.1116 219.261L33.2149 228.034L13.1116 236.808L33.2149 245.582L13.1116 254.355L33.2149 263.129L13.1116 271.903L33.2149 280.676L23.1633 285.063V289.736" stroke="#CBCBCB" stroke-width="5.00001" stroke-linecap="square"/>
<path d="M45.6327 150.5C45.6327 156.467 43.2622 162.19 39.0426 166.41C34.823 170.629 29.1001 173 23.1327 173C17.1653 173 11.4424 170.629 7.22279 166.41C3.00322 162.19 0.63269 156.467 0.63269 150.5C0.63269 144.533 3.00322 138.81 7.22279 134.59C11.4424 130.371 17.1653 128 23.1327 128C29.1001 128 34.823 130.371 39.0426 134.59C43.2622 138.81 45.6327 144.533 45.6327 150.5Z" fill="#5BAD92"/>
<path d="M32.0656 133.154C31.8361 133.219 31.642 133.373 31.5261 133.582C31.4102 133.79 31.3819 134.037 31.4475 134.266C31.5131 134.496 31.6671 134.69 31.8758 134.806C32.4065 135.1 32.9171 135.419 33.4069 135.76C33.8967 136.101 34.3659 136.463 34.8134 136.846C35.2609 137.229 35.687 137.631 36.0908 138.052C36.4945 138.473 36.8761 138.911 37.2346 139.366C37.5931 139.821 37.9284 140.293 38.24 140.778C38.5516 141.263 38.8393 141.763 39.1023 142.274C39.3654 142.786 39.604 143.31 39.817 143.844C40.03 144.378 40.2173 144.922 40.3786 145.474C40.5399 146.026 40.675 146.587 40.783 147.153C40.8909 147.72 40.9717 148.292 41.0248 148.869C41.0779 149.446 41.1032 150.027 41.0999 150.61C41.0966 151.194 41.0648 151.779 41.0036 152.365C40.9422 152.95 40.8516 153.536 40.7307 154.12C40.6098 154.705 40.4588 155.287 40.2767 155.867C40.0947 156.446 39.8815 157.022 39.6365 157.592C39.3915 158.162 39.1205 158.713 38.8257 159.244C38.531 159.775 38.2121 160.285 37.8715 160.775C37.5308 161.265 37.1683 161.734 36.7857 162.181C36.7857 162.181 36.7857 162.182 36.7857 162.182C36.4031 162.629 36.0004 163.055 35.5796 163.459C35.1589 163.863 34.72 164.244 34.2651 164.603C33.8101 164.961 33.339 165.297 32.8537 165.608C32.3685 165.92 31.8689 166.208 31.3573 166.471C30.8458 166.734 30.322 166.973 29.7881 167.186C29.2542 167.399 28.7102 167.586 28.158 167.748C27.6058 167.909 27.0454 168.044 26.4789 168.152C25.9124 168.26 25.3398 168.341 24.763 168.394C24.1862 168.447 23.6053 168.472 23.0222 168.469C22.439 168.466 21.8536 168.434 21.268 168.372C20.6824 168.311 20.0965 168.22 19.5123 168.1C18.928 167.979 18.3454 167.828 17.7663 167.646C17.6536 167.61 17.5349 167.597 17.4172 167.608C17.2995 167.618 17.1849 167.652 17.0801 167.706C16.9753 167.761 16.8823 167.836 16.8064 167.926C16.7305 168.017 16.6732 168.122 16.6378 168.234C16.6023 168.347 16.5894 168.466 16.5998 168.583C16.6102 168.701 16.6437 168.816 16.6984 168.92C16.753 169.025 16.8278 169.118 16.9184 169.194C17.009 169.27 17.1137 169.327 17.2264 169.363C17.8633 169.563 18.5044 169.729 19.1475 169.862C19.7907 169.995 20.4359 170.095 21.0806 170.163C21.7254 170.23 22.37 170.265 23.012 170.269C23.6539 170.273 24.2933 170.245 24.928 170.186C25.5627 170.128 26.1928 170.039 26.8159 169.92C27.4391 169.801 28.0554 169.653 28.6627 169.475C29.2699 169.298 29.8681 169.092 30.4551 168.857C31.0422 168.623 31.6181 168.361 32.1807 168.072C32.7433 167.782 33.2926 167.466 33.8264 167.123C34.3601 166.78 34.8783 166.411 35.379 166.017C35.8797 165.622 36.3628 165.202 36.826 164.758C37.2892 164.313 37.7325 163.844 38.1538 163.351C38.5752 162.858 38.9743 162.342 39.3493 161.803C39.7242 161.264 40.075 160.702 40.3992 160.118C40.7234 159.534 41.0211 158.929 41.2901 158.302C41.5592 157.676 41.7934 157.043 41.9937 156.406C42.1939 155.77 42.3602 155.128 42.4933 154.485C42.6263 153.842 42.7261 153.197 42.7936 152.552C42.7936 152.552 42.7936 152.552 42.7936 152.552C42.861 151.907 42.8962 151.262 42.8999 150.62C42.9035 149.978 42.8757 149.339 42.8173 148.704C42.7589 148.069 42.6698 147.439 42.5511 146.816C42.4323 146.193 42.284 145.577 42.1066 144.97C41.9293 144.362 41.7229 143.764 41.4888 143.177C41.2546 142.59 40.9926 142.014 40.7033 141.451C40.4139 140.889 40.0975 140.339 39.7548 139.805C39.412 139.272 39.0429 138.753 38.6484 138.253C38.2539 137.752 37.8339 137.269 37.3894 136.806C36.9449 136.342 36.4759 135.899 35.9831 135.478C35.4904 135.056 34.9739 134.657 34.4347 134.282C33.8955 133.907 33.3335 133.556 32.7499 133.232C32.5412 133.116 32.2951 133.088 32.0656 133.154V133.154Z" fill="#FCFAF2"/>
<path d="M23.2534 130.731C22.6114 130.728 21.9721 130.756 21.3373 130.814C20.7026 130.872 20.0726 130.961 19.4494 131.08C18.8263 131.199 18.2099 131.348 17.6027 131.525C16.9954 131.702 16.3973 131.909 15.8102 132.143C15.2232 132.377 14.6472 132.639 14.0846 132.928C13.5221 133.218 12.9728 133.534 12.439 133.877C11.9052 134.22 11.387 134.589 10.8863 134.983C10.3857 135.378 9.90254 135.798 9.43935 136.243C8.97616 136.687 8.53279 137.156 8.1115 137.649C7.69019 138.142 7.29105 138.658 6.91607 139.197C6.5411 139.737 6.19036 140.299 5.86615 140.883C5.54193 141.466 5.24427 142.072 4.97523 142.698C4.70618 143.324 4.47191 143.957 4.27166 144.594C4.0714 145.231 3.90509 145.872 3.77205 146.515C3.63901 147.158 3.53924 147.803 3.47176 148.448C3.40427 149.093 3.36911 149.738 3.36546 150.38C3.36181 151.022 3.38963 151.661 3.44806 152.296C3.50649 152.931 3.59549 153.561 3.71425 154.184C3.83301 154.807 3.98138 155.424 4.15871 156.031C4.33605 156.638 4.5424 157.236 4.77658 157.823C5.01076 158.41 5.27277 158.986 5.56209 159.549C5.8514 160.112 6.16783 160.661 6.51059 161.195C6.85334 161.729 7.22249 162.247 7.61698 162.748C8.01147 163.248 8.43145 163.731 8.87596 164.195C9.32047 164.658 9.78946 165.101 10.2822 165.522C10.775 165.944 11.2915 166.343 11.8306 166.718C12.3698 167.093 12.9318 167.444 13.5155 167.768C13.7241 167.884 13.9703 167.912 14.1998 167.847C14.4293 167.781 14.6233 167.627 14.7393 167.418C14.8552 167.21 14.8834 166.964 14.8179 166.734C14.7523 166.505 14.5982 166.311 14.3896 166.195C13.8589 165.9 13.3482 165.581 12.8584 165.24C12.3686 164.9 11.8995 164.537 11.4519 164.155C11.0044 163.772 10.5784 163.369 10.1746 162.948C9.77081 162.528 9.38925 162.089 9.03076 161.634C8.67228 161.179 8.33694 160.707 8.02535 160.222C7.71375 159.737 7.42609 159.237 7.163 158.726C6.8999 158.214 6.66133 157.69 6.44836 157.157C6.23538 156.623 6.048 156.078 5.88674 155.526C5.72548 154.974 5.59032 154.414 5.48236 153.847C5.3744 153.281 5.29363 152.708 5.24053 152.131C5.18743 151.554 5.16214 150.973 5.16546 150.39C5.16877 149.807 5.2005 149.221 5.26179 148.636C5.32309 148.05 5.41376 147.464 5.53463 146.88C5.65549 146.296 5.80653 145.713 5.98861 145.134C6.1707 144.554 6.38402 143.979 6.62906 143.408C6.87411 142.838 7.1448 142.287 7.4396 141.756C7.73439 141.226 8.0532 140.715 8.39385 140.225C8.7345 139.735 9.09702 139.266 9.47966 138.819C9.86229 138.371 10.265 137.945 10.6857 137.541C11.1065 137.137 11.5453 136.756 12.0003 136.397C12.4553 136.039 12.9264 135.703 13.4116 135.392C13.8969 135.08 14.3964 134.792 14.908 134.529C15.4196 134.266 15.9433 134.028 16.4772 133.815C17.0111 133.602 17.5552 133.414 18.1074 133.253C18.6596 133.091 19.22 132.956 19.7865 132.848C20.353 132.74 20.9255 132.66 21.5023 132.606C22.0791 132.553 22.66 132.528 23.2432 132.531C23.8263 132.535 24.4117 132.566 24.9973 132.628C25.583 132.689 26.1688 132.78 26.7531 132.901C27.3373 133.021 27.9199 133.172 28.499 133.355C28.6118 133.39 28.7304 133.403 28.8481 133.393C28.9659 133.382 29.0804 133.349 29.1852 133.294C29.29 133.239 29.383 133.165 29.4589 133.074C29.5348 132.983 29.5921 132.879 29.6276 132.766C29.663 132.653 29.6759 132.535 29.6655 132.417C29.6551 132.299 29.6216 132.185 29.567 132.08C29.5123 131.975 29.4376 131.882 29.347 131.806C29.2564 131.73 29.1517 131.673 29.0389 131.637C28.402 131.437 27.7609 131.271 27.1178 131.138C26.4747 131.005 25.8295 130.905 25.1847 130.838C24.5399 130.77 23.8953 130.735 23.2534 130.731Z" fill="#FCFAF2"/>
<path d="M30.1874 133.096L24.5689 134.559L26.1073 128.973L30.1874 133.096Z" fill="#F9AEA5"/>
<path d="M26.1474 128.546C26.0469 128.537 25.9462 128.563 25.8632 128.62C25.7801 128.678 25.7199 128.762 25.6931 128.859L24.1548 134.446C24.1348 134.518 24.1344 134.595 24.1534 134.667C24.1725 134.74 24.2104 134.807 24.2634 134.86C24.3163 134.914 24.3825 134.952 24.4552 134.972C24.5279 134.992 24.6046 134.993 24.6775 134.974L30.296 133.511C30.3689 133.492 30.4356 133.454 30.4892 133.401C30.5428 133.349 30.5816 133.283 30.6016 133.21C30.6215 133.138 30.622 133.061 30.603 132.988C30.5839 132.915 30.546 132.849 30.4931 132.795L26.4128 128.672C26.3419 128.6 26.2479 128.556 26.1474 128.546ZM26.3244 129.802L29.359 132.869L25.1802 133.957L26.3244 129.802Z" fill="#FCFAF2"/>
<path d="M16.0779 167.904L21.6964 166.441L20.1581 172.027L16.0779 167.904Z" fill="#F9AEA5"/>
<path d="M21.7662 166.018C21.7068 166.009 21.646 166.011 21.5878 166.026L15.9693 167.489C15.8964 167.508 15.8297 167.546 15.7761 167.599C15.7225 167.652 15.6837 167.718 15.6637 167.79C15.6438 167.863 15.6433 167.939 15.6623 168.012C15.6814 168.085 15.7193 168.151 15.7722 168.205L19.8525 172.328C19.9054 172.382 19.9716 172.42 20.0443 172.44C20.117 172.46 20.1937 172.461 20.2666 172.442C20.3395 172.423 20.4062 172.385 20.4598 172.332C20.5134 172.279 20.5522 172.213 20.5722 172.141L22.1105 166.555C22.1264 166.497 22.13 166.436 22.1209 166.377C22.1119 166.317 22.0904 166.261 22.058 166.21C22.0255 166.16 21.9828 166.116 21.9325 166.083C21.8823 166.05 21.8256 166.028 21.7662 166.018ZM21.0851 167.043L19.9409 171.198L16.9063 168.131L21.0851 167.043Z" fill="#FCFAF2"/>
<path d="M23.1327 164.196H25.8161V157.753H31.4095V155.28H25.7838V152.807H31.4095V150.333H27.2548L33.8182 138.759H27.9338L23.1326 148.442L23.1327 164.196ZM23.1324 164.196H20.449V157.753H14.8557V155.28H20.4814V152.807H14.8557V150.333H19.0103L12.447 138.759H18.3313L23.1326 148.442" fill="#FCFAF2"/>
<path d="M34.6962 0H11.6962V23H34.6962V0Z" fill="#5BAD92"/>
<path d="M34.6962 292H11.6962V315H34.6962V292Z" fill="#5BAD92"/>
</svg>
