<?xml version="1.0" encoding="UTF-8" standalone="no"?>
<svg
   width="81.178665"
   height="117.77953"
   viewBox="0 0 81.178665 117.77953"
   fill="none"
   version="1.1"
   id="svg40"
   sodipodi:docname="thermometer(+MCR110%)_0921.svg"
   inkscape:version="1.1 (c68e22c387, 2021-05-23)"
   xmlns:inkscape="http://www.inkscape.org/namespaces/inkscape"
   xmlns:sodipodi="http://sodipodi.sourceforge.net/DTD/sodipodi-0.dtd"
   xmlns="http://www.w3.org/2000/svg"
   xmlns:svg="http://www.w3.org/2000/svg">
  <sodipodi:namedview
     id="namedview42"
     pagecolor="#ffffff"
     bordercolor="#666666"
     borderopacity="1.0"
     inkscape:pageshadow="2"
     inkscape:pageopacity="0.0"
     inkscape:pagecheckerboard="0"
     showgrid="false"
     fit-margin-top="0"
     fit-margin-left="0"
     fit-margin-right="0"
     fit-margin-bottom="0"
     inkscape:zoom="2.8284272"
     inkscape:cx="42.603183"
     inkscape:cy="33.234018"
     inkscape:window-width="1467"
     inkscape:window-height="1040"
     inkscape:window-x="476"
     inkscape:window-y="124"
     inkscape:window-maximized="0"
     inkscape:current-layer="g893" />
  <defs
     id="defs38">
    <filter
       id="filter0_d"
       x="0.110229"
       y="0.110229"
       width="38.889801"
       height="118.78"
       filterUnits="userSpaceOnUse"
       color-interpolation-filters="sRGB">
      <feFlood
         flood-opacity="0"
         result="BackgroundImageFix"
         id="feFlood16" />
      <feColorMatrix
         in="SourceAlpha"
         type="matrix"
         values="0 0 0 0 0 0 0 0 0 0 0 0 0 0 0 0 0 0 127 0"
         result="hardAlpha"
         id="feColorMatrix18" />
      <feOffset
         dx="1"
         dy="1"
         id="feOffset20" />
      <feComposite
         in2="hardAlpha"
         operator="out"
         id="feComposite22" />
      <feColorMatrix
         type="matrix"
         values="0 0 0 0 0 0 0 0 0 0 0 0 0 0 0 0 0 0 0.25 0"
         id="feColorMatrix24" />
      <feBlend
         mode="normal"
         in2="BackgroundImageFix"
         result="effect1_dropShadow"
         id="feBlend26" />
      <feBlend
         mode="normal"
         in="SourceGraphic"
         in2="effect1_dropShadow"
         result="shape"
         id="feBlend28" />
    </filter>
    <linearGradient
       id="paint0_linear"
       x1="17"
       y1="1"
       x2="17"
       y2="101"
       gradientUnits="userSpaceOnUse">
      <stop
         offset="0.390404"
         stop-color="#FF8585"
         id="stop31" />
      <stop
         offset="0.683086"
         stop-color="#E483FF"
         id="stop33" />
      <stop
         offset="0.76125"
         stop-color="#838CFF"
         id="stop35" />
    </linearGradient>
    <filter
       id="filter0_d-5"
       x="8.1102304"
       y="21.110201"
       width="38.889801"
       height="118.78"
       filterUnits="userSpaceOnUse"
       color-interpolation-filters="sRGB">
      <feFlood
         flood-opacity="0"
         result="BackgroundImageFix"
         id="feFlood995" />
      <feColorMatrix
         in="SourceAlpha"
         type="matrix"
         values="0 0 0 0 0 0 0 0 0 0 0 0 0 0 0 0 0 0 127 0"
         result="hardAlpha"
         id="feColorMatrix997" />
      <feOffset
         dx="1"
         dy="1"
         id="feOffset999" />
      <feComposite
         in2="hardAlpha"
         operator="out"
         id="feComposite1001" />
      <feColorMatrix
         type="matrix"
         values="0 0 0 0 0 0 0 0 0 0 0 0 0 0 0 0 0 0 0.25 0"
         id="feColorMatrix1003" />
      <feBlend
         mode="normal"
         in2="BackgroundImageFix"
         result="effect1_dropShadow"
         id="feBlend1005" />
      <feBlend
         mode="normal"
         in="SourceGraphic"
         in2="effect1_dropShadow"
         result="shape"
         id="feBlend1007" />
    </filter>
    <linearGradient
       id="paint0_linear-9"
       x1="25"
       y1="22"
       x2="25"
       y2="122"
       gradientUnits="userSpaceOnUse">
      <stop
         offset="0.392115"
         stop-color="#FF9898"
         id="stop1010" />
      <stop
         offset="0.684512"
         stop-color="#E483FF"
         id="stop1012" />
      <stop
         offset="0.762896"
         stop-color="#838CFF"
         id="stop1014" />
    </linearGradient>
  </defs>
  <g
     style="fill:none"
     id="g893"
     transform="translate(-0.11023498,-0.11023498)">
    <path
       d="m 2.14691,100.501 c 0,8.284 6.71573,15 14.99999,15 8.2843,0 15,-6.716 15,-15"
       fill="#868bff"
       id="path859" />
    <path
       d="M 32,1 H 2 v 100 h 30 z"
       fill="url(#paint0_linear)"
       id="path861"
       style="fill:url(#paint0_linear)" />
    <path
       d="M 32,0.86567411 H 2 V 10.865674 h 30 z"
       fill="#fcfaf2"
       id="path863"
       style="stroke-width:1" />
    <line
       x1="27.5"
       y1="10.869293"
       x2="36.5"
       y2="10.869293"
       stroke="#cfcfcf"
       stroke-width="3"
       stroke-linecap="round"
       id="line865" />
    <path
       d="m 2,2 v 98.508 C 2,109.064 8.71573,116 17,116 c 8.2843,0 15,-6.936 15,-15.492 V 2"
       stroke="#cfcfcf"
       stroke-width="3.77953"
       stroke-linecap="round"
       id="path867" />
    <line
       x1="27.5"
       y1="77.5"
       x2="36.5"
       y2="77.5"
       stroke="#cfcfcf"
       stroke-width="3"
       stroke-linecap="round"
       id="line869" />
    <g
       style="fill:none"
       id="g1046"
       transform="translate(-126.59776,-182.77454)">
      <path
         d="m 168.02606,256.58214 1.8262,5.1564 1.8164,-5.1564 h 1.9238 v 7.1094 h -1.4697 v -1.943 l 0.1465,-3.3549 -1.919,5.2979 h -1.0058 l -1.9141,-5.293 0.1465,3.35 v 1.943 h -1.4648 v -7.1094 z m 11.5768,4.7412 c -0.0554,0.7652 -0.3386,1.3672 -0.8496,1.8062 -0.5078,0.44 -1.1784,0.66 -2.0117,0.66 -0.9115,0 -1.6293,-0.306 -2.1534,-0.918 -0.5208,-0.616 -0.7812,-1.4586 -0.7812,-2.5296 v -0.4346 c 0,-0.6836 0.1204,-1.2858 0.3613,-1.8066 0.2409,-0.5209 0.5843,-0.9196 1.0303,-1.1963 0.4492,-0.28 0.97,-0.4199 1.5625,-0.4199 0.8203,0 1.4811,0.2197 1.9824,0.6591 0.5013,0.4395 0.791,1.0564 0.8692,1.8506 h -1.4649 c -0.0358,-0.4589 -0.1644,-0.791 -0.3857,-0.9961 -0.2181,-0.2083 -0.5518,-0.3125 -1.001,-0.3125 -0.4883,0 -0.8545,0.1758 -1.0986,0.5274 -0.2409,0.3483 -0.3646,0.8903 -0.3711,1.626 v 0.5371 c 0,0.7682 0.1155,1.3294 0.3466,1.6844 0.2344,0.355 0.6023,0.532 1.1036,0.532 0.4524,0 0.7893,-0.102 1.0107,-0.307 0.2246,-0.209 0.3532,-0.529 0.3857,-0.9622 z m 2.7437,-0.2343 h -1.167 v 2.6025 h -1.4648 v -7.1094 h 2.6416 c 0.8398,0 1.4876,0.1872 1.9434,0.5615 0.4557,0.3744 0.6836,0.9034 0.6836,1.587 0,0.485 -0.1058,0.8903 -0.3174,1.2158 -0.2084,0.3222 -0.5257,0.5794 -0.9522,0.7715 l 1.5381,2.9056 v 0.068 h -1.5723 z m -1.167,-1.1866 h 1.1817 c 0.3678,0 0.6527,-0.0927 0.8545,-0.2783 0.2018,-0.1888 0.3027,-0.4476 0.3027,-0.7764 0,-0.3352 -0.096,-0.5989 -0.2881,-0.791 -0.1888,-0.192 -0.4801,-0.2881 -0.874,-0.2881 h -1.1768 z m 8.9885,3.7891 h -1.4111 v -5.4395 l -1.6846,0.5225 v -1.1475 l 2.9444,-1.0546 h 0.1513 z m 4.8922,0 h -1.4111 v -5.4395 l -1.6846,0.5225 v -1.1475 l 2.9443,-1.0546 h 0.1514 z m 6.2496,-2.9395 c 0,0.9835 -0.2034,1.7355 -0.6103,2.2555 -0.4069,0.521 -1.0026,0.782 -1.7871,0.782 -0.7748,0 -1.3672,-0.256 -1.7774,-0.767 -0.4101,-0.511 -0.6201,-1.243 -0.6299,-2.1972 v -1.3086 c 0,-0.9928 0.2051,-1.7464 0.6153,-2.2607 0.4134,-0.5144 1.0075,-0.7715 1.7822,-0.7715 0.7747,0 1.3672,0.2555 1.7773,0.7666 0.4102,0.5078 0.6202,1.2386 0.6299,2.1924 z m -1.4111,-1.4355 c 0,-0.5892 -0.0814,-1.0173 -0.2442,-1.2842 -0.1595,-0.2702 -0.4101,-0.4053 -0.7519,-0.4053 -0.332,0 -0.5778,0.1286 -0.7373,0.3858 -0.1563,0.2539 -0.2393,0.6527 -0.249,1.1963 v 1.7285 c 0,0.5794 0.0781,1.0109 0.2343,1.2939 0.1595,0.28 0.4134,0.42 0.7618,0.42 0.345,0 0.594,-0.135 0.747,-0.405 0.153,-0.27 0.2328,-0.6839 0.2393,-1.2405 z m 1.4986,-1.3672 c 0,-0.4362 0.1416,-0.7894 0.4248,-1.0596 0.2832,-0.2734 0.6543,-0.4101 1.1133,-0.4101 0.4655,0 0.8398,0.1351 1.123,0.4053 0.2833,0.2669 0.4249,0.6298 0.4249,1.0888 v 0.3516 c 0,0.4394 -0.1416,0.7926 -0.4249,1.0596 -0.2832,0.2669 -0.6542,0.4004 -1.1132,0.4004 -0.4623,0 -0.8366,-0.1335 -1.1231,-0.4004 -0.2832,-0.2702 -0.4248,-0.6332 -0.4248,-1.0889 z m 0.9375,0.376 c 0,0.1953 0.0554,0.3532 0.166,0.4736 0.114,0.1172 0.2621,0.1758 0.4444,0.1758 0.1823,0 0.3271,-0.0602 0.4345,-0.1807 0.1075,-0.1204 0.1612,-0.2815 0.1612,-0.4834 v -0.3613 c 0,-0.1953 -0.0537,-0.3532 -0.1612,-0.4736 -0.1074,-0.1205 -0.2555,-0.1807 -0.4443,-0.1807 -0.179,0 -0.3239,0.0602 -0.4346,0.1807 -0.1106,0.1172 -0.166,0.2816 -0.166,0.4931 z m 2.461,3.6232 c 0,-0.4396 0.1432,-0.7928 0.4296,-1.0597 0.2865,-0.2702 0.6576,-0.4053 1.1133,-0.4053 0.4623,0 0.835,0.1335 1.1182,0.4004 0.2864,0.2637 0.4297,0.6282 0.4297,1.0936 v 0.352 c 0,0.436 -0.14,0.789 -0.4199,1.059 -0.28,0.267 -0.6527,0.401 -1.1182,0.401 -0.4688,0 -0.8447,-0.135 -1.1279,-0.406 -0.2832,-0.27 -0.4248,-0.628 -0.4248,-1.074 z m 0.9375,0.381 c 0,0.179 0.0585,0.332 0.1757,0.459 0.1172,0.127 0.2637,0.19 0.4395,0.19 0.3971,0 0.5957,-0.22 0.5957,-0.659 v -0.371 c 0,-0.195 -0.0553,-0.3517 -0.166,-0.4689 -0.1107,-0.1205 -0.2572,-0.1807 -0.4395,-0.1807 -0.1823,0 -0.3288,0.0602 -0.4394,0.1807 -0.1107,0.1172 -0.166,0.2779 -0.166,0.4829 z m -2.5098,0.83 -0.6885,-0.371 3.4717,-5.557 0.6885,0.3711 z"
         fill="#818181"
         id="path989" />
    </g>
  </g>
</svg>
